<?xml version="1.0" encoding="utf-8"?>
<!-- Generator: Adobe Illustrator 23.0.1, SVG Export Plug-In . SVG Version: 6.00 Build 0)  -->
<svg version="1.1" id="Layer_1" xmlns="http://www.w3.org/2000/svg" xmlns:xlink="http://www.w3.org/1999/xlink" x="0px" y="0px"
	 viewBox="0 0 512 512" style="enable-background:new 0 0 512 512;" xml:space="preserve">
<style type="text/css">
	.st0{fill:none;}
	.st1{fill:#1D4BEF;}
</style>
<title>01</title>
<g>
	<path class="st0" d="M258,206.2c-27.5,0-49.8,22.3-49.8,49.8s22.3,49.8,49.8,49.8c27.5,0,49.7-22.3,49.8-49.8
		C307.8,228.5,285.5,206.2,258,206.2z"/>
	<path class="st0" d="M320.1,126.3H195c-36,0-65.1,29.1-65.1,65.1v125.1c0,35.9,29.2,65.1,65.1,65.1h125.1
		c35.9,0,65.1-29.1,65.1-65.1l0-125.1C385.2,155.5,356.1,126.3,320.1,126.3z M258.1,333.7c-42.9,0-77.7-34.8-77.7-77.7
		s34.8-77.7,77.7-77.7c42.9,0,77.7,34.8,77.7,77.7C335.8,298.9,301,333.7,258.1,333.7z M340.3,191.6c-10.2,0-18.5-8.3-18.5-18.5
		c0-10.2,8.3-18.5,18.5-18.5c10.2,0,18.5,8.3,18.5,18.5C358.8,183.3,350.5,191.6,340.3,191.6z"/>
	<path class="st0" d="M255.8,34.9c-120.9,0-219,98-219,219s98,219,219,219s219-98,219-219S376.7,34.9,255.8,34.9z M320.1,411.3H195
		c-52.3,0-94.8-42.4-94.8-94.8V191.4c0,0,0,0,0,0c0-52.3,42.4-94.8,94.8-94.8h125.1c0,0,0,0,0,0c52.3,0,94.8,42.4,94.8,94.8l0,125.1
		C414.9,368.9,372.4,411.3,320.1,411.3z"/>
	<path class="st1" d="M256,6C118.2,6,6,118.2,6,256s112.2,250,250,250s250-112.1,250-250S393.9,6,256,6z M255.8,472.9
		c-120.9,0-219-98-219-219s98-219,219-219s219,98,219,219S376.7,472.9,255.8,472.9z"/>
	<circle class="st1" cx="340.3" cy="173.1" r="18.5"/>
	<path class="st1" d="M258,178.3c-42.9,0-77.7,34.8-77.7,77.7s34.8,77.7,77.7,77.7s77.7-34.8,77.7-77.7
		C335.7,213.1,300.9,178.3,258,178.3z M258,305.8c-27.5,0-49.8-22.3-49.8-49.8s22.3-49.8,49.8-49.8s49.8,22.3,49.8,49.8
		C307.8,283.5,285.5,305.7,258,305.8z"/>
	<path class="st1" d="M414.8,191.4c0-52.3-42.4-94.8-94.8-94.8c0,0,0,0,0,0H195c-52.3,0-94.8,42.4-94.8,94.8c0,0,0,0,0,0v125.1
		c0,52.3,42.4,94.8,94.8,94.8h125.1c52.3,0,94.8-42.4,94.8-94.8L414.8,191.4z M385.2,316.5c0,35.9-29.2,65.1-65.1,65.1H195
		c-35.9,0-65.1-29.1-65.1-65.1V191.4c0-36,29.1-65.1,65.1-65.1h125.1c36,0,65.1,29.1,65.1,65.1L385.2,316.5z"/>
</g>
</svg>
