<svg xmlns="http://www.w3.org/2000/svg" viewBox="0 0 500 500"><g id="freepik--background-complete--inject-27"><rect y="382.4" width="500" height="0.25" style="fill:#ebebeb"></rect><rect x="416.78" y="398.49" width="33.12" height="0.25" style="fill:#ebebeb"></rect><rect x="322.53" y="401.21" width="8.69" height="0.25" style="fill:#ebebeb"></rect><rect x="396.59" y="389.21" width="19.19" height="0.25" style="fill:#ebebeb"></rect><rect x="52.46" y="390.89" width="43.19" height="0.25" style="fill:#ebebeb"></rect><rect x="104.56" y="390.89" width="6.33" height="0.25" style="fill:#ebebeb"></rect><rect x="131.47" y="395.11" width="93.68" height="0.25" style="fill:#ebebeb"></rect><path d="M237,337.8H43.91a5.71,5.71,0,0,1-5.7-5.71V60.66A5.71,5.71,0,0,1,43.91,55H237a5.71,5.71,0,0,1,5.71,5.71V332.09A5.71,5.71,0,0,1,237,337.8ZM43.91,55.2a5.46,5.46,0,0,0-5.45,5.46V332.09a5.46,5.46,0,0,0,5.45,5.46H237a5.47,5.47,0,0,0,5.46-5.46V60.66A5.47,5.47,0,0,0,237,55.2Z" style="fill:#ebebeb"></path><path d="M453.31,337.8H260.21a5.72,5.72,0,0,1-5.71-5.71V60.66A5.72,5.72,0,0,1,260.21,55h193.1A5.71,5.71,0,0,1,459,60.66V332.09A5.71,5.71,0,0,1,453.31,337.8ZM260.21,55.2a5.47,5.47,0,0,0-5.46,5.46V332.09a5.47,5.47,0,0,0,5.46,5.46h193.1a5.47,5.47,0,0,0,5.46-5.46V60.66a5.47,5.47,0,0,0-5.46-5.46Z" style="fill:#ebebeb"></path><polygon points="438.89 382.08 438.89 337.77 416.13 337.77 416.13 292.04 412.92 292.04 412.92 318.25 404.17 318.25 404.17 311 388.41 311 388.41 285.9 385.49 285.9 385.49 255.23 383.16 255.23 383.16 285.34 377.61 285.34 377.61 329.96 367.11 329.96 367.11 285.34 348.14 285.34 348.14 323.08 328.23 323.08 328.23 277.34 325.02 277.34 325.02 303.56 316.27 303.56 316.27 296.31 300.51 296.31 300.51 271.21 297.59 271.21 297.59 240.53 295.26 240.53 295.26 270.65 289.71 270.65 289.71 315.27 279.21 315.27 279.21 270.65 260.24 270.65 260.24 313.81 247.45 313.81 247.45 288.71 244.53 288.71 244.53 258.04 242.2 258.04 242.2 288.15 236.66 288.15 236.66 332.77 226.15 332.77 226.15 288.15 207.18 288.15 207.18 332.77 197.85 332.77 197.85 337.77 181.49 337.77 181.49 292.04 178.28 292.04 178.28 318.25 169.53 318.25 169.53 311 153.77 311 153.77 285.9 150.85 285.9 150.85 255.23 148.52 255.23 148.52 285.34 143.43 285.34 143.43 282.83 124.46 282.83 124.46 285.34 113.96 285.34 113.96 282.83 108.41 282.83 108.41 252.72 106.08 252.72 106.08 283.39 103.16 283.39 103.16 308.49 87.4 308.49 87.4 315.74 78.65 315.74 78.65 289.52 75.44 289.52 75.44 335.26 52.68 335.26 52.68 382.08 438.89 382.08" style="fill:#e0e0e0"></polygon><circle cx="114.94" cy="111.95" r="27.79" style="fill:#fafafa"></circle><path d="M100.53,111.63A4.81,4.81,0,0,0,94.31,107a10.42,10.42,0,0,0,.11-1.48A10.23,10.23,0,0,0,84.19,95.3a10.71,10.71,0,0,0-1.89.17A8.94,8.94,0,0,0,65.73,100h-.15a8.24,8.24,0,0,0,0,16.48H95.83A4.83,4.83,0,0,0,100.53,111.63Z" style="fill:#f0f0f0"></path><path d="M426.6,218.31c3.68-.1,6.33-4.3,3.52-8.2a5.34,5.34,0,0,0-5-1.25,11,11,0,0,0-2.64-8.65c-3.27-2.82-6.52-3.41-9.37-2.88a8.93,8.93,0,0,0-16.57,4.52h-.15c-7.19,0-12.23,9.21-4,16.48H426.6Z" style="fill:#f0f0f0"></path><path d="M346.78,237.88c3.67-.1,6.32-4.3,3.52-8.2a5.3,5.3,0,0,0-5.05-1.25,11,11,0,0,0-2.63-8.66c-3.27-2.82-6.52-3.41-9.37-2.88a8.94,8.94,0,0,0-16.58,4.52h-.15c-7.19,0-12.23,9.21-4,16.48h34.22Z" style="fill:#f0f0f0"></path><path d="M145.21,182.15a7.65,7.65,0,0,1,7.64-7.65,7.54,7.54,0,0,1,2.19.33,16.56,16.56,0,0,1-.17-2.35,16.18,16.18,0,0,1,16.19-16.18,16.35,16.35,0,0,1,3,.27,14.15,14.15,0,0,1,26.23,7.16l.23,0a13,13,0,0,1,0,26.08H152.63A7.64,7.64,0,0,1,145.21,182.15Z" style="fill:#f0f0f0"></path><path d="M266.72,154.45a9.19,9.19,0,0,1,11.84-8.81,18.72,18.72,0,0,1-.21-2.82,19.48,19.48,0,0,1,19.48-19.48,20.31,20.31,0,0,1,3.59.33A17,17,0,0,1,333,132.28h.28a15.69,15.69,0,1,1,0,31.37h-57.6A9.19,9.19,0,0,1,266.72,154.45Z" style="fill:#f0f0f0"></path><path d="M161.14,126.11a3,3,0,0,0-3.87-2.88,7,7,0,0,0,.07-.92A6.36,6.36,0,0,0,151,116a6.45,6.45,0,0,0-1.17.11,5.56,5.56,0,0,0-10.31,2.81h-.09a5.13,5.13,0,1,0,0,10.25h18.81A3,3,0,0,0,161.14,126.11Z" style="fill:#f0f0f0"></path><path d="M362.45,93.7a3,3,0,0,1,3.86-2.87,7,7,0,0,1-.07-.92,6.36,6.36,0,0,1,6.36-6.36,6.56,6.56,0,0,1,1.18.11,5.55,5.55,0,0,1,10.3,2.81h.09a5.13,5.13,0,1,1,0,10.25h-18.8A3,3,0,0,1,362.45,93.7Z" style="fill:#f0f0f0"></path></g><g id="freepik--Shadow--inject-27"><ellipse id="freepik--path--inject-27" cx="250" cy="416.24" rx="193.89" ry="11.32" style="fill:#f5f5f5"></ellipse></g><g id="freepik--canadian-national-tower--inject-27"><path d="M401.48,378V176.74l-4.77-2.44S392.78,335.05,385,378Z" style="fill:#407BFF"></path><path d="M418.28,378c-7.82-42.95-11.75-203.7-11.75-203.7l-4.77,2.44V378Z" style="fill:#407BFF"></path><g style="opacity:0.2"><path d="M401.48,378V176.74l-4.77-2.44S392.78,335.05,385,378Z" style="fill:#fff"></path><path d="M418.28,378c-7.82-42.95-11.75-203.7-11.75-203.7l-4.77,2.44V378Z" style="fill:#fff"></path></g><g style="opacity:0.2"><path d="M400.54,378V176.74l-2.6-2.44s-2.13,160.75-6.39,203.7Z"></path><path d="M409.69,378c-4.26-42.95-6.4-203.7-6.4-203.7l-2.59,2.44V378Z"></path></g><rect x="398.92" y="172.73" width="5.41" height="205.27" style="fill:#407BFF"></rect><rect x="398.92" y="172.73" width="5.41" height="205.27" style="fill:#fff;opacity:0.30000000000000004"></rect><rect x="401.11" y="76.56" width="1.01" height="25.12" style="fill:#407BFF"></rect><rect x="401.11" y="76.56" width="1.01" height="25.12" style="fill:#fff;opacity:0.2"></rect><rect x="400.6" y="96.56" width="2.03" height="19.38" style="fill:#407BFF"></rect><rect x="400.6" y="96.56" width="2.03" height="19.38" style="fill:#fff;opacity:0.2"></rect><rect x="399.86" y="106.56" width="3.51" height="19.38" style="fill:#407BFF"></rect><rect x="399.86" y="106.56" width="3.51" height="19.38" style="fill:#fff;opacity:0.2"></rect><rect x="399.12" y="129.27" width="5" height="28.63" style="fill:#407BFF"></rect><rect x="399.12" y="129.27" width="5" height="28.63" style="fill:#fff;opacity:0.2"></rect><rect x="400.6" y="141.21" width="2.03" height="6.59" style="opacity:0.2"></rect><rect x="398.06" y="150.52" width="2.57" height="7.91" style="fill:#407BFF"></rect><rect x="398.06" y="150.52" width="2.57" height="7.91" style="fill:#fff;opacity:0.30000000000000004"></rect><rect x="397.6" y="149.93" width="3.03" height="3.03" rx="0.43" style="fill:#407BFF"></rect><rect x="397.6" y="149.93" width="3.03" height="3.03" rx="0.43" style="fill:#fff;opacity:0.4"></rect><rect x="402.6" y="150.52" width="2.57" height="7.91" transform="translate(807.78 308.96) rotate(180)" style="fill:#407BFF"></rect><rect x="402.6" y="150.52" width="2.57" height="7.91" transform="translate(807.78 308.96) rotate(180)" style="fill:#fff;opacity:0.30000000000000004"></rect><rect x="402.6" y="149.93" width="3.03" height="3.03" rx="0.43" transform="translate(808.24 302.89) rotate(180)" style="fill:#407BFF"></rect><rect x="402.6" y="149.93" width="3.03" height="3.03" rx="0.43" transform="translate(808.24 302.89) rotate(180)" style="fill:#fff;opacity:0.4"></rect><polygon points="416.37 161.43 416.18 162.78 415.69 166.31 415.44 168.02 415.27 169.26 414.99 171.19 388.25 171.19 387.97 169.26 387.8 168.02 387.56 166.31 387.06 162.78 386.87 161.43 416.37 161.43" style="fill:#407BFF"></polygon><path d="M411.24,162H392l.64-5.37a.76.76,0,0,1,.76-.67h16.44a.77.77,0,0,1,.76.67Z" style="fill:#407BFF"></path><path d="M411.24,162H392l.64-5.37a.76.76,0,0,1,.76-.67h16.44a.77.77,0,0,1,.76.67Z" style="fill:#fff;opacity:0.4"></path><polygon points="396.06 161.99 407.18 161.99 406.9 157.9 396.34 157.9 396.06 161.99" style="opacity:0.2"></polygon><g style="opacity:0.2"><polygon points="394.56 161.99 392 161.99 392.49 157.9 394.92 157.9 394.56 161.99"></polygon><polygon points="411.24 161.99 408.68 161.99 408.32 157.9 410.75 157.9 411.24 161.99"></polygon></g><path d="M417.16,161.43H386.08l.55-1.34a1.78,1.78,0,0,1,1.66-1.12H415a1.78,1.78,0,0,1,1.66,1.12Z" style="fill:#407BFF"></path><path d="M417.16,161.43H386.08l.55-1.34a1.78,1.78,0,0,1,1.66-1.12H415a1.78,1.78,0,0,1,1.66,1.12Z" style="opacity:0.2"></path><polygon points="412.82 174.26 390.42 174.26 387.61 171.19 415.63 171.19 412.82 174.26" style="fill:#407BFF"></polygon><polygon points="412.82 174.26 390.42 174.26 387.61 171.19 415.63 171.19 412.82 174.26" style="opacity:0.2"></polygon><polygon points="399.35 174.26 398.79 174.26 398.08 171.19 398.77 171.19 399.35 174.26" style="fill:#fff;opacity:0.4"></polygon><polygon points="404.45 174.26 403.89 174.26 404.46 171.19 405.16 171.19 404.45 174.26" style="fill:#fff;opacity:0.4"></polygon><polygon points="395.44 174.26 394.89 174.26 393.2 171.19 393.89 171.19 395.44 174.26" style="fill:#fff;opacity:0.4"></polygon><polygon points="408.35 174.26 407.8 174.26 409.35 171.19 410.04 171.19 408.35 174.26" style="fill:#fff;opacity:0.4"></polygon><polygon points="391.94 174.26 391.39 174.26 388.82 171.19 389.51 171.19 391.94 174.26" style="fill:#fff;opacity:0.4"></polygon><polygon points="411.85 174.26 411.3 174.26 413.73 171.19 414.42 171.19 411.85 174.26" style="fill:#fff;opacity:0.4"></polygon><polygon points="387.28 169.26 415.95 169.26 415.66 171.19 387.57 171.19 387.28 169.26" style="fill:#407BFF"></polygon><polygon points="416.39 166.31 416.13 168.02 387.1 168.02 386.85 166.31 416.39 166.31" style="fill:#407BFF"></polygon><polygon points="417.11 161.43 416.91 162.78 386.32 162.78 386.12 161.43 417.11 161.43" style="fill:#407BFF"></polygon><polygon points="387.28 169.26 415.95 169.26 415.66 171.19 387.57 171.19 387.28 169.26" style="fill:#fff;opacity:0.4"></polygon><polygon points="416.39 166.31 416.13 168.02 387.1 168.02 386.85 166.31 416.39 166.31" style="fill:#fff;opacity:0.4"></polygon><polygon points="417.11 161.43 416.91 162.78 386.32 162.78 386.12 161.43 417.11 161.43" style="fill:#fff;opacity:0.4"></polygon><path d="M409.43,179.6H393.8a4.53,4.53,0,0,1-4.3-3.09l-.58-1.72a.84.84,0,0,1,.79-1.11h23.81a.84.84,0,0,1,.8,1.11l-.58,1.72A4.54,4.54,0,0,1,409.43,179.6Z" style="fill:#407BFF"></path><path d="M409.43,179.6H393.8a4.53,4.53,0,0,1-4.3-3.09l-.58-1.72a.84.84,0,0,1,.79-1.11h23.81a.84.84,0,0,1,.8,1.11l-.58,1.72A4.54,4.54,0,0,1,409.43,179.6Z" style="fill:#fff;opacity:0.4"></path><polygon points="405.4 128.19 397.84 128.19 398.84 130.29 404.4 130.29 405.4 128.19" style="fill:#407BFF"></polygon><rect x="397.84" y="126.6" width="7.55" height="1.59" style="fill:#407BFF"></rect><rect x="397.84" y="126.6" width="7.55" height="1.59" style="fill:#fff;opacity:0.4"></rect><polygon points="403.4 123.39 399.84 123.39 397.84 126.6 405.4 126.6 403.4 123.39" style="fill:#407BFF"></polygon><polygon points="403.4 123.39 399.84 123.39 397.84 126.6 405.4 126.6 403.4 123.39" style="fill:#fff;opacity:0.5"></polygon></g><g id="freepik--Buildings--inject-27"><rect x="114.36" y="321.56" width="19.66" height="57.44" style="fill:#407BFF"></rect><rect x="173.64" y="332.37" width="19.66" height="46.62" style="fill:#407BFF"></rect><g style="opacity:0.7000000000000001"><rect x="114.36" y="321.56" width="19.66" height="57.44" style="fill:#fff"></rect></g><rect x="144.37" y="339.75" width="19.66" height="39.25" style="fill:#407BFF"></rect><g style="opacity:0.7000000000000001"><rect x="173.64" y="332.37" width="19.66" height="46.62" style="fill:#fff"></rect></g><g style="opacity:0.7000000000000001"><rect x="144.37" y="339.75" width="19.66" height="39.25" style="fill:#fff"></rect></g><g style="opacity:0.2"><rect x="114.36" y="325.49" width="19.66" height="0.49"></rect><rect x="114.36" y="329.42" width="19.66" height="0.49"></rect><rect x="114.36" y="333.36" width="19.66" height="0.49"></rect><rect x="114.36" y="337.29" width="19.66" height="0.49"></rect><rect x="114.36" y="341.22" width="19.66" height="0.49"></rect><rect x="114.36" y="345.15" width="19.66" height="0.49"></rect><rect x="114.36" y="349.09" width="19.66" height="0.49"></rect><rect x="114.36" y="353.02" width="19.66" height="0.49"></rect><rect x="114.36" y="356.95" width="19.66" height="0.49"></rect><rect x="114.36" y="360.88" width="19.66" height="0.49"></rect><rect x="114.36" y="364.82" width="19.66" height="0.49"></rect><rect x="114.36" y="368.75" width="19.66" height="0.49"></rect><rect x="114.36" y="372.68" width="19.66" height="0.49"></rect><rect x="114.36" y="376.61" width="19.66" height="0.49"></rect><rect x="144.37" y="355.48" width="19.66" height="0.49"></rect><rect x="144.37" y="343.68" width="19.66" height="0.49"></rect><rect x="144.37" y="347.61" width="19.66" height="0.49"></rect><rect x="144.37" y="351.55" width="19.66" height="0.49"></rect><rect x="144.37" y="359.41" width="19.66" height="0.49"></rect><rect x="144.37" y="363.34" width="19.66" height="0.49"></rect><rect x="144.37" y="367.28" width="19.66" height="0.49"></rect><rect x="144.37" y="371.21" width="19.66" height="0.49"></rect><rect x="144.37" y="375.14" width="19.66" height="0.49"></rect><rect x="173.64" y="336.31" width="19.66" height="0.49"></rect><rect x="173.64" y="340.24" width="19.66" height="0.49"></rect><rect x="173.64" y="344.17" width="19.66" height="0.49"></rect><rect x="173.64" y="348.1" width="19.66" height="0.49"></rect><rect x="173.64" y="352.04" width="19.66" height="0.49"></rect><rect x="173.64" y="355.97" width="19.66" height="0.49"></rect><rect x="173.64" y="359.9" width="19.66" height="0.49"></rect><rect x="173.64" y="363.83" width="19.66" height="0.49"></rect><rect x="173.64" y="367.77" width="19.66" height="0.49"></rect><rect x="173.64" y="371.7" width="19.66" height="0.49"></rect><rect x="173.64" y="375.63" width="19.66" height="0.49"></rect></g><rect x="80.64" y="332.37" width="19.66" height="46.62" style="fill:#407BFF"></rect><rect x="48.37" y="339.75" width="19.66" height="39.25" style="fill:#407BFF"></rect><g style="opacity:0.7000000000000001"><rect x="80.64" y="332.37" width="19.66" height="46.62" style="fill:#fff"></rect></g><g style="opacity:0.7000000000000001"><rect x="48.37" y="339.75" width="19.66" height="39.25" style="fill:#fff"></rect></g><g style="opacity:0.2"><rect x="48.37" y="355.48" width="19.66" height="0.49"></rect><rect x="48.37" y="343.68" width="19.66" height="0.49"></rect><rect x="48.37" y="347.61" width="19.66" height="0.49"></rect><rect x="48.37" y="351.55" width="19.66" height="0.49"></rect><rect x="48.37" y="359.41" width="19.66" height="0.49"></rect><rect x="48.37" y="363.34" width="19.66" height="0.49"></rect><rect x="48.37" y="367.28" width="19.66" height="0.49"></rect><rect x="48.37" y="371.21" width="19.66" height="0.49"></rect><rect x="48.37" y="375.14" width="19.66" height="0.49"></rect></g><g style="opacity:0.2"><rect x="80.64" y="336.31" width="19.66" height="0.49"></rect><rect x="80.64" y="340.24" width="19.66" height="0.49"></rect><rect x="80.64" y="344.17" width="19.66" height="0.49"></rect><rect x="80.64" y="348.1" width="19.66" height="0.49"></rect><rect x="80.64" y="352.04" width="19.66" height="0.49"></rect><rect x="80.64" y="355.97" width="19.66" height="0.49"></rect><rect x="80.64" y="359.9" width="19.66" height="0.49"></rect><rect x="80.64" y="363.83" width="19.66" height="0.49"></rect><rect x="80.64" y="367.77" width="19.66" height="0.49"></rect><rect x="80.64" y="371.7" width="19.66" height="0.49"></rect><rect x="80.64" y="375.63" width="19.66" height="0.49"></rect></g><rect x="329.36" y="320.56" width="19.66" height="57.44" style="fill:#407BFF"></rect><g style="opacity:0.7000000000000001"><rect x="329.36" y="320.56" width="19.66" height="57.44" style="fill:#fff"></rect></g><rect x="362.37" y="338.75" width="19.66" height="39.25" style="fill:#407BFF"></rect><g style="opacity:0.7000000000000001"><rect x="362.37" y="338.75" width="19.66" height="39.25" style="fill:#fff"></rect></g><g style="opacity:0.2"><rect x="329.36" y="324.49" width="19.66" height="0.49"></rect><rect x="329.36" y="328.42" width="19.66" height="0.49"></rect><rect x="329.36" y="332.36" width="19.66" height="0.49"></rect><rect x="329.36" y="336.29" width="19.66" height="0.49"></rect><rect x="329.36" y="340.22" width="19.66" height="0.49"></rect><rect x="329.36" y="344.15" width="19.66" height="0.49"></rect><rect x="329.36" y="348.09" width="19.66" height="0.49"></rect><rect x="329.36" y="352.02" width="19.66" height="0.49"></rect><rect x="329.36" y="355.95" width="19.66" height="0.49"></rect><rect x="329.36" y="359.88" width="19.66" height="0.49"></rect><rect x="329.36" y="363.82" width="19.66" height="0.49"></rect><rect x="329.36" y="367.75" width="19.66" height="0.49"></rect><rect x="329.36" y="371.68" width="19.66" height="0.49"></rect><rect x="329.36" y="375.61" width="19.66" height="0.49"></rect><rect x="362.37" y="354.48" width="19.66" height="0.49"></rect><rect x="362.37" y="342.68" width="19.66" height="0.49"></rect><rect x="362.37" y="346.61" width="19.66" height="0.49"></rect><rect x="362.37" y="350.55" width="19.66" height="0.49"></rect><rect x="362.37" y="358.41" width="19.66" height="0.49"></rect><rect x="362.37" y="362.34" width="19.66" height="0.49"></rect><rect x="362.37" y="366.28" width="19.66" height="0.49"></rect><rect x="362.37" y="370.21" width="19.66" height="0.49"></rect><rect x="362.37" y="374.14" width="19.66" height="0.49"></rect></g><rect x="427.64" y="332.37" width="19.66" height="46.62" style="fill:#407BFF"></rect><g style="opacity:0.7000000000000001"><rect x="427.64" y="332.37" width="19.66" height="46.62" style="fill:#fff"></rect></g><g style="opacity:0.2"><rect x="427.64" y="336.31" width="19.66" height="0.49"></rect><rect x="427.64" y="340.24" width="19.66" height="0.49"></rect><rect x="427.64" y="344.17" width="19.66" height="0.49"></rect><rect x="427.64" y="348.1" width="19.66" height="0.49"></rect><rect x="427.64" y="352.04" width="19.66" height="0.49"></rect><rect x="427.64" y="355.97" width="19.66" height="0.49"></rect><rect x="427.64" y="359.9" width="19.66" height="0.49"></rect><rect x="427.64" y="363.83" width="19.66" height="0.49"></rect><rect x="427.64" y="367.77" width="19.66" height="0.49"></rect><rect x="427.64" y="371.7" width="19.66" height="0.49"></rect><rect x="427.64" y="375.63" width="19.66" height="0.49"></rect></g><path d="M447.2,375.86H48.91a6.64,6.64,0,0,0-4.64,1.88l-5.06,4.91H456.9l-5.06-4.91A6.64,6.64,0,0,0,447.2,375.86Z" style="fill:#407BFF"></path><path d="M447.2,375.86H48.91a6.64,6.64,0,0,0-4.64,1.88l-5.06,4.91H456.9l-5.06-4.91A6.64,6.64,0,0,0,447.2,375.86Z" style="fill:#fff;opacity:0.15"></path></g><g id="freepik--rogers-centre--inject-27"><path d="M351.94,356c0-12.72-37.62-41.19-84-41.19s-84,28.47-84,41.19,37.62,22,84,22S351.94,368.69,351.94,356Z" style="fill:#407BFF"></path><path d="M351.94,356c0-12.72-37.62-41.19-84-41.19s-84,28.47-84,41.19,37.62,22,84,22S351.94,368.69,351.94,356Z" style="fill:#fff;opacity:0.30000000000000004"></path><rect x="335.16" y="349.28" width="17.52" height="28.72" style="fill:#407BFF"></rect><rect x="183.16" y="349.28" width="17.52" height="28.72" style="fill:#407BFF"></rect><path d="M337.94,356.28c0-9.81-31.35-31.76-70-31.76s-70,22-70,31.76,31.35,17.76,70,17.76S337.94,366.09,337.94,356.28Z" style="fill:#407BFF"></path><path d="M337.94,356.28c0-9.81-31.35-31.76-70-31.76s-70,22-70,31.76,31.35,17.76,70,17.76S337.94,366.09,337.94,356.28Z" style="fill:#fff;opacity:0.5"></path><rect x="197.89" y="355.87" width="140.04" height="22.13" style="fill:#407BFF"></rect><rect x="197.89" y="355.87" width="140.04" height="22.13" style="fill:#fff;opacity:0.30000000000000004"></rect><rect x="234.88" y="355.87" width="66.07" height="22.13" style="fill:#fff;opacity:0.2"></rect><rect x="253.76" y="363.98" width="8.31" height="14.02" style="opacity:0.2"></rect><rect x="263.76" y="363.98" width="8.31" height="14.02" style="opacity:0.2"></rect><rect x="273.76" y="363.98" width="8.31" height="14.02" style="opacity:0.2"></rect><rect x="307.76" y="363.98" width="8.31" height="14.02" style="opacity:0.2"></rect><rect x="317.76" y="363.98" width="8.31" height="14.02" style="opacity:0.2"></rect><rect x="327.76" y="363.98" width="8.31" height="14.02" style="opacity:0.2"></rect><rect x="199.76" y="363.98" width="8.31" height="14.02" style="opacity:0.2"></rect><rect x="209.76" y="363.98" width="8.31" height="14.02" style="opacity:0.2"></rect><rect x="219.76" y="363.98" width="8.31" height="14.02" style="opacity:0.2"></rect></g><g id="freepik--Street--inject-27"><path d="M379,401.87s2.44-8.18-2.49-9.81-7.87-5.45-7.7-9.77-5-8.53-8.93-4.48-3.38-3.11-8.57-4.85-9.6,2.48-8.18,6.34-3.7,6.28-9.84,3-12.89,2.69-11.59,7.37.23,5.19-3.65,3.63-10.84,2.86-8.4,8.58S379,401.87,379,401.87Z" style="fill:#407BFF"></path><path d="M379,401.87s2.44-8.18-2.49-9.81-7.87-5.45-7.7-9.77-5-8.53-8.93-4.48-3.38-3.11-8.57-4.85-9.6,2.48-8.18,6.34-3.7,6.28-9.84,3-12.89,2.69-11.59,7.37.23,5.19-3.65,3.63-10.84,2.86-8.4,8.58S379,401.87,379,401.87Z" style="fill:#fff;opacity:0.30000000000000004;isolation:isolate"></path><path d="M180.45,401.44c4.39-4.39.44-11.84-3.94-12.71s-8.79-8.59-9-13.5-8.1-20-20.37-10.68-8.54,1.37-17.42-1.25-14.47,4.92-10.58,10.57c0,0-8.92-2.23-12.59,6.09s0,13.5,0,13.5S89.79,393,91.3,403.34,180.45,401.44,180.45,401.44Z" style="fill:#407BFF"></path><path d="M180.45,401.44c4.39-4.39.44-11.84-3.94-12.71s-8.79-8.59-9-13.5-8.1-20-20.37-10.68-8.54,1.37-17.42-1.25-14.47,4.92-10.58,10.57c0,0-8.92-2.23-12.59,6.09s0,13.5,0,13.5S89.79,393,91.3,403.34,180.45,401.44,180.45,401.44Z" style="fill:#fff;opacity:0.30000000000000004;isolation:isolate"></path><path d="M415.78,400.82v12H77.47v-12A3.58,3.58,0,0,1,81,397.05H412.24A3.58,3.58,0,0,1,415.78,400.82Z" style="fill:#263238"></path><rect x="96.75" y="397.05" width="21.03" height="15.78" style="fill:#407BFF"></rect><rect x="137.07" y="397.05" width="20.16" height="15.78" style="fill:#407BFF"></rect><rect x="176.51" y="397.05" width="21.03" height="15.78" style="fill:#407BFF"></rect><rect x="216.83" y="397.05" width="20.16" height="15.78" style="fill:#407BFF"></rect><rect x="256.27" y="397.05" width="20.16" height="15.78" style="fill:#407BFF"></rect><rect x="295.71" y="397.05" width="21.03" height="15.78" style="fill:#407BFF"></rect><rect x="336.03" y="397.05" width="20.16" height="15.78" style="fill:#407BFF"></rect><rect x="375.47" y="397.05" width="21.03" height="15.78" style="fill:#407BFF"></rect><g style="opacity:0.6000000000000001;isolation:isolate"><rect x="96.75" y="397.05" width="21.03" height="15.78" style="fill:#fff"></rect><rect x="137.07" y="397.05" width="20.16" height="15.78" style="fill:#fff"></rect><rect x="176.51" y="397.05" width="21.03" height="15.78" style="fill:#fff"></rect><rect x="216.83" y="397.05" width="20.16" height="15.78" style="fill:#fff"></rect><rect x="256.27" y="397.05" width="20.16" height="15.78" style="fill:#fff"></rect><rect x="295.71" y="397.05" width="21.03" height="15.78" style="fill:#fff"></rect><rect x="336.03" y="397.05" width="20.16" height="15.78" style="fill:#fff"></rect><rect x="375.47" y="397.05" width="21.03" height="15.78" style="fill:#fff"></rect></g><path d="M415.78,400.82v12H77.47v-12A3.58,3.58,0,0,1,81,397.05H412.24A3.58,3.58,0,0,1,415.78,400.82Z" style="fill:#fff;opacity:0.1;isolation:isolate"></path></g><g id="freepik--Character--inject-27"><path d="M208,274.16a3.18,3.18,0,0,1,2,.33c.8.52,7.15,6.23,7.82,7.61s-4.8,3.25-5.72,3.71-7.6-6-7.84-8.41S208,274.16,208,274.16Z" style="fill:#b97964"></path><path d="M208,274.16a3.18,3.18,0,0,1,2,.33c.8.52,7.15,6.23,7.82,7.61s-4.8,3.25-5.72,3.71-7.6-6-7.84-8.41S208,274.16,208,274.16Z" style="opacity:0.1;isolation:isolate"></path><path d="M178,252.45s3.07,14.4,5.77,16.58c3,2.42,24.35,5.28,24.35,5.28l-.39,4.78s-23.34-1.09-28.87-5c-4.26-3-10.3-17.67-10.3-17.67Z" style="fill:#b97964"></path><path d="M178,252.45s3.07,14.4,5.77,16.58c3,2.42,24.35,5.28,24.35,5.28l-.39,4.78s-23.34-1.09-28.87-5c-4.26-3-10.3-17.67-10.3-17.67Z" style="opacity:0.1;isolation:isolate"></path><path d="M173,234.91c-6.36-4.56-10.16,7-9.56,13.49S169,263.08,169,263.08l11.2-4.5S178.28,238.71,173,234.91Z" style="fill:#407BFF"></path><path d="M173,234.91c-6.36-4.56-10.16,7-9.56,13.49S169,263.08,169,263.08l11.2-4.5S178.28,238.71,173,234.91Z" style="opacity:0.2;isolation:isolate"></path><polyline points="167.97 262.66 180.82 257.08 181.51 259.36 168.79 264.47 167.47 262.66" style="fill:#407BFF"></polyline><polyline points="167.97 262.66 180.82 257.08 181.51 259.36 168.79 264.47 167.47 262.66" style="fill:#fff;opacity:0.7000000000000001"></polyline><polygon points="185.77 343.75 179.96 355.08 175.92 362.95 168.64 359.04 172.69 351.17 178.17 340.47 185.77 343.75" style="fill:#e4897b"></polygon><polygon points="185.77 343.75 179.96 355.08 172.69 351.17 178.17 340.47 185.77 343.75" style="opacity:0.2;isolation:isolate"></polygon><path d="M178.13,358.27h-9.67a.71.71,0,0,0-.68.55l-1.57,7.09a1.19,1.19,0,0,0,1.16,1.42c3.13-.05,5.41-.24,9.34-.24,2.42,0,9.72.25,13.07.25s3.78-3.3,2.41-3.61c-6.14-1.33-10.76-3.19-12.72-5A2,2,0,0,0,178.13,358.27Z" style="fill:#263238"></path><path d="M124.74,270.38s-1.13,8.55.63,21.72,59.07,7.48,63.21,10.06c3.74,2.32-16.66,44.95-16.66,44.95l12.76,3s27-51.89,24.1-56.64c-9.28-15.05-49.57-12.6-56.38-19.13-2.64-2.53-1.72-4.94-1.72-4.94Z" style="fill:#263238"></path><path d="M184.68,350.13l-12.76-3s20.4-42.63,16.66-44.95c-.88-.55-4.13-.72-8.74-.79-17.16-.22-53.08,1.12-54.47-9.27-.32-2.38-.54-4.61-.69-6.66a80.7,80.7,0,0,1,.06-15.06l25.94-1s-.92,2.41,1.72,4.94c6.81,6.53,47.1,4.08,56.38,19.13C211.7,298.24,184.68,350.13,184.68,350.13Z" style="fill:#fff;opacity:0.30000000000000004"></path><path d="M179.84,301.37c-17.16-.22-53.08,1.12-54.47-9.27-.32-2.38-.54-4.61-.69-6.66l13.84-4.08S168.57,284.16,179.84,301.37Z" style="opacity:0.2;isolation:isolate"></path><path d="M222.53,293.28s-7.37-.37-8.36-.47-8.65.08-8.29-6.84,6.81-6.88,8.64-6.87l11.38.06a1.81,1.81,0,0,0,1.8-1.59h0a1.81,1.81,0,0,0-1.66-2l-1-.07s-9.26,0-11.87.19S202,275.24,202,285.82s8.81,10.27,10.47,10.28l9.93.06Z" style="fill:#263238"></path><path d="M222.53,293.28s-7.37-.37-8.36-.47-8.65.08-8.29-6.84,6.81-6.88,8.64-6.87l11.38.06a1.81,1.81,0,0,0,1.8-1.59h0a1.81,1.81,0,0,0-1.66-2l-1-.07s-9.26,0-11.87.19S202,275.24,202,285.82s8.81,10.27,10.47,10.28l9.93.06Z" style="fill:#fff;opacity:0.30000000000000004"></path><rect x="178.07" y="367.78" width="9.64" height="3.89" style="fill:#263238"></rect><rect x="162.75" y="376.72" width="23.88" height="3.23" transform="translate(-206.66 210.33) rotate(-41.44)" style="fill:#263238"></rect><rect x="162.75" y="376.72" width="23.88" height="3.23" transform="translate(-206.66 210.33) rotate(-41.44)" style="fill:#fff;opacity:0.05"></rect><path d="M109.86,374.52a4.88,4.88,0,1,1-4.87-4.87A4.87,4.87,0,0,1,109.86,374.52Z" style="fill:#263238"></path><path d="M109.86,374.52a4.88,4.88,0,1,1-4.87-4.87A4.87,4.87,0,0,1,109.86,374.52Z" style="fill:#fff;opacity:0.6000000000000001"></path><path d="M250.16,374.52a4.87,4.87,0,1,1-4.87-4.87A4.87,4.87,0,0,1,250.16,374.52Z" style="fill:#263238"></path><path d="M250.16,374.52a4.87,4.87,0,1,1-4.87-4.87A4.87,4.87,0,0,1,250.16,374.52Z" style="fill:#fff;opacity:0.6000000000000001"></path><path d="M104.71,329.79a42.87,42.87,0,1,0,42.87,42.87A42.88,42.88,0,0,0,104.71,329.79Zm0,80.55a37.68,37.68,0,1,1,37.68-37.68A37.68,37.68,0,0,1,104.71,410.34Z" style="fill:#263238"></path><path d="M104.71,329.79a42.87,42.87,0,1,0,42.87,42.87A42.88,42.88,0,0,0,104.71,329.79Zm0,80.55a37.68,37.68,0,1,1,37.68-37.68A37.68,37.68,0,0,1,104.71,410.34Z" style="fill:#fff;opacity:0.5"></path><path d="M104.71,326.5a46.17,46.17,0,1,0,46.17,46.16A46.16,46.16,0,0,0,104.71,326.5Zm0,86.73a40.57,40.57,0,1,1,40.57-40.57A40.57,40.57,0,0,1,104.71,413.23Z" style="fill:#263238"></path><path d="M245.29,329.79a42.87,42.87,0,1,0,42.87,42.87A42.87,42.87,0,0,0,245.29,329.79Zm0,80.55A37.68,37.68,0,1,1,283,372.66,37.67,37.67,0,0,1,245.29,410.34Z" style="fill:#263238"></path><path d="M245.29,329.79a42.87,42.87,0,1,0,42.87,42.87A42.87,42.87,0,0,0,245.29,329.79Zm0,80.55A37.68,37.68,0,1,1,283,372.66,37.67,37.67,0,0,1,245.29,410.34Z" style="fill:#fff;opacity:0.5"></path><path d="M245.29,326.5a46.17,46.17,0,1,0,46.17,46.16A46.17,46.17,0,0,0,245.29,326.5Zm0,86.73a40.57,40.57,0,1,1,40.57-40.57A40.57,40.57,0,0,1,245.29,413.23Z" style="fill:#263238"></path><polygon points="205.7 279.35 214.81 308.6 218.58 307.37 209.92 278.39 205.7 279.35" style="fill:#263238"></polygon><path d="M234.52,356.4,225.6,329l-7-21.6-3.77,1.23.83,2.54H146.36l-.59-2.08-3.23.93,1,3.48-35.72,57.94h0l-.79,1.29.46.29-.37,1.69L166,387.27v0l53.49-64.34,2.38,7.3,10.46,26.93,14.4,19,1.86-1.4Zm-90-39.46,19.11,66.4L110.59,372Zm22,64.33-19-66.15h69.42l1.3,4Z" style="fill:#263238"></path><path d="M234.52,356.4,225.6,329l-7-21.6-3.77,1.23.83,2.54H146.36l-.59-2.08-3.23.93,1,3.48-35.72,57.94h0l-.79,1.29.46.29-.37,1.69L166,387.27v0l53.49-64.34,2.38,7.3,10.46,26.93,14.4,19,1.86-1.4Zm-90-39.46,19.11,66.4L110.59,372Zm22,64.33-19-66.15h69.42l1.3,4Z" style="fill:#fff;opacity:0.1"></path><polygon points="132.91 299.69 137.77 303.36 139.98 302.83 142.54 309.99 145.77 309.06 141.48 299.69 139.98 298.25 132.91 299.69" style="fill:#263238"></polygon><polygon points="132.91 299.69 137.77 303.36 139.98 302.83 142.54 309.99 145.77 309.06 141.48 299.69 139.98 298.25 132.91 299.69" style="fill:#fff;opacity:0.4"></polygon><path d="M156.78,295.32c-6.22-1.46-12.64.16-19.23,4.37h-6.63s-8-4.24-9.55-6-.53-2.13-.53-2.13c10.1,1.48,30-.66,32.62-.66S157.73,293.86,156.78,295.32Z" style="fill:#263238"></path><path d="M156.78,295.32c-6.22-1.46-12.64.16-19.23,4.37h-6.63s-8-4.24-9.55-6-.53-2.13-.53-2.13c10.1,1.48,30-.66,32.62-.66S157.73,293.86,156.78,295.32Z" style="fill:#fff;opacity:0.1"></path><path d="M166.22,374A11.77,11.77,0,1,0,178,385.73,11.77,11.77,0,0,0,166.22,374Zm6.76,7.85-5.33,1.73v-5.72A7.78,7.78,0,0,1,173,381.82Zm-8.31-4v5.76l-5.26-1.71A7.8,7.8,0,0,1,164.67,377.85Zm-6.13,6.9,5.21,1.69-3.34,4.6a8.19,8.19,0,0,1-1.93-5.31C158.48,385.4,158.51,385.08,158.54,384.75Zm4.19,8.16,3.43-4.71,3.46,4.75a7.41,7.41,0,0,1-6.89,0Zm9.23-1.8-3.42-4.71,5.34-1.73a9.28,9.28,0,0,1,.07,1.06A8.18,8.18,0,0,1,172,391.11Z" style="fill:#263238"></path><path d="M166.22,374A11.77,11.77,0,1,0,178,385.73,11.77,11.77,0,0,0,166.22,374Zm6.76,7.85-5.33,1.73v-5.72A7.78,7.78,0,0,1,173,381.82Zm-8.31-4v5.76l-5.26-1.71A7.8,7.8,0,0,1,164.67,377.85Zm-6.13,6.9,5.21,1.69-3.34,4.6a8.19,8.19,0,0,1-1.93-5.31C158.48,385.4,158.51,385.08,158.54,384.75Zm4.19,8.16,3.43-4.71,3.46,4.75a7.41,7.41,0,0,1-6.89,0Zm9.23-1.8-3.42-4.71,5.34-1.73a9.28,9.28,0,0,1,.07,1.06A8.18,8.18,0,0,1,172,391.11Z" style="fill:#fff;opacity:0.4"></path><rect x="147.47" y="390.21" width="23.88" height="3.23" transform="translate(-219.41 203.59) rotate(-41.44)" style="fill:#263238"></rect><rect x="147.47" y="390.21" width="23.88" height="3.23" transform="translate(-219.41 203.59) rotate(-41.44)" style="fill:#fff;opacity:0.05"></rect><rect x="146.06" y="397.04" width="9.64" height="3.89" style="fill:#263238"></rect><polygon points="219.31 276.82 209.92 278.61 211.31 283.02 214.27 282.57 215.11 283.91 220.31 282.82 219.31 276.82" style="fill:#263238"></polygon><path d="M207.53,295.28s-7.37-.37-8.36-.47-8.65.08-8.29-6.84,6.81-6.88,8.64-6.87l11.38.06a1.81,1.81,0,0,0,1.8-1.59h0a1.81,1.81,0,0,0-1.66-2l-1-.07s-9.26,0-11.87.19S187,277.24,187,287.82s8.81,10.27,10.47,10.28l9.93.06Z" style="fill:#263238"></path><path d="M207.53,295.28s-7.37-.37-8.36-.47-8.65.08-8.29-6.84,6.81-6.88,8.64-6.87l11.38.06a1.81,1.81,0,0,0,1.8-1.59h0a1.81,1.81,0,0,0-1.66-2l-1-.07s-9.26,0-11.87.19S187,277.24,187,287.82s8.81,10.27,10.47,10.28l9.93.06Z" style="fill:#fff;opacity:0.5"></path><polygon points="155.66 370.76 152.32 383.04 149.99 391.58 142.06 389.26 144.39 380.72 147.55 369.12 155.66 370.76" style="fill:#e4897b"></polygon><polygon points="155.66 370.76 152.32 383.04 144.39 380.72 147.55 369.12 155.66 370.76" style="opacity:0.2;isolation:isolate"></polygon><path d="M150.85,387.9h-9.67a.69.69,0,0,0-.68.54l-1.57,7.09a1.18,1.18,0,0,0,.91,1.4l.26,0c3.13-.05,5.41-.24,9.34-.24,2.42,0,9.72.25,13.06.25s3.78-3.3,2.41-3.61c-6.13-1.33-10.75-3.19-12.72-5A1.92,1.92,0,0,0,150.85,387.9Z" style="fill:#263238"></path><path d="M121.45,264.93s-4.56,5.62-4,18.91,39.53,28.29,41.25,37.44c1.77,9.42-15,55.23-15,55.23l12.43,4.18s25.79-54.26,23.66-64.81c-3.49-17.33-26.18-26.07-32.36-33.2-2.4-2.77,0-16.3,0-16.3Z" style="fill:#263238"></path><path d="M121.45,264.93s-4.56,5.62-4,18.91,39.53,28.29,41.25,37.44c1.77,9.42-15,55.23-15,55.23l12.43,4.18s25.79-54.26,23.66-64.81c-3.49-17.33-26.18-26.07-32.36-33.2-2.4-2.77,0-16.3,0-16.3Z" style="fill:#fff;opacity:0.30000000000000004"></path><path d="M121.09,268.29s-11.37-4.47-11.73-7.24,21.66-37.71,24.41-38.61,21.31,1.95,24.08,3.27,6.57,10.06,6.57,10.06Z" style="fill:#263238"></path><path d="M117.38,268.29s7-25.3,26-33.94,30.78,1.41,31,3c1.75,13.64-21.59,21.83-21.59,35.48C152.8,272.84,133.16,273.24,117.38,268.29Z" style="fill:#407BFF"></path><path d="M142.58,260s27.87-11.92,12.41-28.91l-5.93-.43s18.28,14.65-8.29,29.34c0,0-14.91,3.11-18.28-8.1l-5.11,8.18S126.65,270,142.58,260Z" style="fill:#263238"></path><path d="M168.75,231.79s9.67,10.26-5.54,24.19c0,0,13.15-6.66,11.18-20.21Z" style="fill:#263238"></path><path d="M158.65,253.83s3.07,14.4,5.77,16.59c3,2.42,24.35,5.27,24.35,5.27l-.39,4.78s-23.35-1.08-28.88-5c-4.25-3.05-10.29-17.67-10.29-17.67Z" style="fill:#b97964"></path><path d="M153.57,236.29c-6.37-4.56-10.16,7-9.57,13.49s5.61,14.69,5.61,14.69l11.21-4.5S158.88,240.09,153.57,236.29Z" style="fill:#407BFF"></path><path d="M153.57,236.29c-6.37-4.56-10.16,7-9.57,13.49s5.61,14.69,5.61,14.69l11.21-4.5S158.88,240.09,153.57,236.29Z" style="opacity:0.2;isolation:isolate"></path><path d="M188.65,275.54a3.15,3.15,0,0,1,1.95.33c.8.52,7.15,6.23,7.83,7.62s-4.8,3.25-5.73,3.71-7.6-6-7.83-8.41S188.65,275.54,188.65,275.54Z" style="fill:#b97964"></path><path d="M164.42,243.88s-12.44-14.21-14.77-20,9.09-5.83,14.28-.37,11.1,14.71,5.06,20.4Z" style="fill:#407BFF"></path><path d="M164.42,243.88s-12.44-14.21-14.77-20,9.09-5.83,14.28-.37,11.1,14.71,5.06,20.4Z" style="fill:#fff;opacity:0.7000000000000001"></path><path d="M164.42,242.55s-5.13-6.46-7.21-11.49-2.57-9.34,3.23-7.58,13.32,15.21,8.85,19.47C169.29,243,166,240.47,164.42,242.55Z" style="opacity:0.2;isolation:isolate"></path><path d="M160.24,249.61a11.76,11.76,0,0,1-5.51-1.79c-9.49-5.35-12.62-.36-12.75-.14a.37.37,0,0,1-.64-.38c0-.06,3.59-5.87,13.76-.14,3.09,1.75,5.49,2.16,7.11,1.21,2.27-1.32,2.32-4.92,2.32-5a.37.37,0,0,1,.37-.38h0a.38.38,0,0,1,.38.38c0,.16-.05,4.06-2.69,5.6A4.56,4.56,0,0,1,160.24,249.61Z" style="fill:#fff"></path><path d="M159,253.85c-.64,0-1.31,0-2,0a.37.37,0,0,1-.36-.39.38.38,0,0,1,.39-.36c6.84.28,11.15-.86,12.47-3.28s-.84-5.64-.86-5.67a.37.37,0,0,1,.09-.52.38.38,0,0,1,.52.08c.11.15,2.49,3.56.91,6.46C168.86,252.6,165.11,253.85,159,253.85Z" style="fill:#fff"></path><path d="M159.88,231.45c-2.25,3.17,4.59,11.7,9.41,9.47a9.21,9.21,0,0,1,.94-5.15,7.26,7.26,0,0,1,2-2.13,13.75,13.75,0,0,1,1.33-.93l-1.09-10.49C170.12,225.83,164.92,234,159.88,231.45Z" style="fill:#b97964"></path><path d="M170.8,226.35c-3.53,3.68-1.74,7.72-.57,9.42a7.26,7.26,0,0,1,2-2.13Z" style="opacity:0.2;isolation:isolate"></path><path d="M186.18,212.4s2.62,8.45-1.47,12.46-6.51-12.07-6.51-12.07Z" style="fill:#263238"></path><path d="M172.42,233.73a7.92,7.92,0,0,0,9.46,1.69,8.83,8.83,0,0,0,4.38-4.81,7.73,7.73,0,0,0,.29-.89c1.47-5.62.8-15-5.31-17.59a8.61,8.61,0,0,0-12,8.35C169.45,226.76,169.3,230.47,172.42,233.73Z" style="fill:#b97964"></path><path d="M178.71,222.43c-.05.51.25.93.59.94s.61-.41.62-.92-.25-.93-.58-.93S178.72,221.91,178.71,222.43Z" style="fill:#263238"></path><path d="M184.49,222.55c0,.5.26.93.59.93s.61-.4.63-.91-.26-.93-.59-.94S184.5,222.06,184.49,222.55Z" style="fill:#263238"></path><path d="M182.65,222.76a18.14,18.14,0,0,0,2.36,4.43,3,3,0,0,1-2.47.41Z" style="fill:#a24e3f"></path><path d="M177,220.52a.3.3,0,0,0,.3-.11,2.43,2.43,0,0,1,1.94-1,.3.3,0,0,0,.33-.26.31.31,0,0,0-.27-.33h0a3,3,0,0,0-2.46,1.19.29.29,0,0,0,0,.42h0A.38.38,0,0,0,177,220.52Z" style="fill:#263238"></path><path d="M187,220.6a.25.25,0,0,0,.17,0,.3.3,0,0,0,.16-.39h0a3,3,0,0,0-2.12-1.73.3.3,0,0,0-.34.25h0a.31.31,0,0,0,.25.34h0a2.44,2.44,0,0,1,1.66,1.4A.31.31,0,0,0,187,220.6Z" style="fill:#263238"></path><path d="M168.57,227.85h1.57c-.18-1.59-.06-2.9.35-3,.84-.26.93.75.93.75,1.74-1.49,3-5.14,2-7.44a2.07,2.07,0,0,1,1-2.63l-.41-2.76-7.11,1.07c-1,2-.71,6.24.74,11.31A23.2,23.2,0,0,0,168.57,227.85Z" style="fill:#263238"></path><path d="M185.06,212.46s-2.5,5.35-3.55,4.57.93-2.1.93-2.1-6.06,3.64-6.88,3.11,3.15-2.5,3.15-2.5-5.29,3.88-6.52,2.46S180,211.28,185.06,212.46Z" style="fill:#263238"></path><path d="M183,229.13a16.07,16.07,0,0,0-.61,2.23H182c-1.85-.09-2.67-.74-3-1.43a2.22,2.22,0,0,1-.24-1.1,2,2,0,0,1,.08-.64,8.76,8.76,0,0,0,3.59.92C182.76,229.13,183,229.13,183,229.13Z" style="fill:#263238"></path><path d="M182.38,229.1l-.2.65c-1.74-.09-3-.38-3.47-.93a2,2,0,0,1,.08-.64A8.76,8.76,0,0,0,182.38,229.1Z" style="fill:#fff"></path><path d="M182,231.35c-1.85-.09-2.67-.74-3-1.43a5.92,5.92,0,0,1,2,.5A2.22,2.22,0,0,1,182,231.35Z" style="fill:#de5753"></path><path d="M187,218.31s1.07-4.17-.65-6.91c0,0,.8-2.61-2.5-4.32s-7.39-2.9-7.92-2.18,1,.92,1,.92-6.49-.52-10,2.64-3.82,8.44-3.16,8.57,1.84-1.73,1.84-1.73a7.69,7.69,0,0,0,2.15,10.21l5.45-9.32,11.88-3.73S186.53,213.36,187,218.31Z" style="fill:#263238"></path><path d="M166.36,225.58a6,6,0,0,0,3.37,3.09c2,.71,3.11-1,2.69-3-.39-1.72-1.87-4.22-3.92-4.07A2.67,2.67,0,0,0,166.36,225.58Z" style="fill:#b97964"></path><polyline points="148.52 264.34 161.36 258.77 162.06 261.04 149.34 266.16 148.01 264.34" style="fill:#407BFF"></polyline><polyline points="148.52 264.34 161.36 258.77 162.06 261.04 149.34 266.16 148.01 264.34" style="fill:#fff;opacity:0.7000000000000001"></polyline></g></svg>