<svg xmlns="http://www.w3.org/2000/svg" viewBox="0 0 500 500"><g id="freepik--background-complete--inject-6"><rect y="382.4" width="500" height="0.25" style="fill:#ebebeb"></rect><rect x="396.83" y="398.49" width="53.07" height="0.25" style="fill:#ebebeb"></rect><rect x="272.56" y="395.36" width="58.66" height="0.25" style="fill:#ebebeb"></rect><rect x="380.2" y="393.92" width="19.19" height="0.25" style="fill:#ebebeb"></rect><rect x="100.47" y="390.89" width="43.19" height="0.25" style="fill:#ebebeb"></rect><rect x="79.46" y="390.89" width="15.44" height="0.25" style="fill:#ebebeb"></rect><rect x="131.47" y="395.11" width="54.2" height="0.25" style="fill:#ebebeb"></rect><path d="M237,337.8H43.91a5.71,5.71,0,0,1-5.7-5.71V60.66A5.71,5.71,0,0,1,43.91,55H237a5.71,5.71,0,0,1,5.71,5.71V332.09A5.71,5.71,0,0,1,237,337.8ZM43.91,55.2a5.46,5.46,0,0,0-5.45,5.46V332.09a5.46,5.46,0,0,0,5.45,5.46H237a5.47,5.47,0,0,0,5.46-5.46V60.66A5.47,5.47,0,0,0,237,55.2Z" style="fill:#ebebeb"></path><path d="M453.31,337.8H260.21a5.72,5.72,0,0,1-5.71-5.71V60.66A5.72,5.72,0,0,1,260.21,55h193.1A5.71,5.71,0,0,1,459,60.66V332.09A5.71,5.71,0,0,1,453.31,337.8ZM260.21,55.2a5.47,5.47,0,0,0-5.46,5.46V332.09a5.47,5.47,0,0,0,5.46,5.46h193.1a5.47,5.47,0,0,0,5.46-5.46V60.66a5.47,5.47,0,0,0-5.46-5.46Z" style="fill:#ebebeb"></path><rect x="47.33" y="252.12" width="403.18" height="130.28" transform="translate(497.85 634.52) rotate(180)" style="fill:#e6e6e6"></rect><polygon points="463.22 252.12 47.33 252.12 47.33 235.76 467.09 235.76 463.22 252.12" style="fill:#f5f5f5"></polygon><rect x="47.33" y="252.12" width="403.18" height="8.89" transform="translate(497.85 513.14) rotate(180)" style="fill:#e6e6e6"></rect><path d="M360.64,371.48h70.89V270.09H360.64Zm69.6-1.07H361.93V271.16h68.31Z" style="fill:#fff"></path><path d="M269.29,371.48h70.9V270.09h-70.9Zm69.61-1.07H270.58V271.16H338.9Z" style="fill:#fff"></path><path d="M178,371.48h70.89V270.09H178Zm69.6-1.07H179.24V271.16h68.31Z" style="fill:#fff"></path><path d="M86.6,371.48h70.89V270.09H86.6Zm69.61-1.07H87.89V271.16h68.32Z" style="fill:#fff"></path><path d="M232.23,289.5h37.34a6.86,6.86,0,0,0,6.83-6.83h0a6.86,6.86,0,0,0-6.83-6.84H232.23a6.85,6.85,0,0,0-6.83,6.84h0A6.85,6.85,0,0,0,232.23,289.5Z" style="fill:#fff"></path><polygon points="271.32 382.4 274.18 382.4 266.58 289.5 263.73 289.5 271.32 382.4" style="fill:#fff"></polygon><polygon points="253.07 382.4 255.93 382.4 252.17 289.5 249.31 289.5 253.07 382.4" style="fill:#fff"></polygon><rect x="229.07" y="356.44" width="41.78" height="6.56" transform="translate(499.91 719.44) rotate(180)" style="fill:#fff"></rect><polygon points="228.81 382.4 225.95 382.4 233.54 289.5 236.4 289.5 228.81 382.4" style="fill:#fff"></polygon><path d="M395.59,289.5h37.34a6.85,6.85,0,0,0,6.83-6.83h0a6.85,6.85,0,0,0-6.83-6.84H395.59a6.86,6.86,0,0,0-6.83,6.84h0A6.86,6.86,0,0,0,395.59,289.5Z" style="fill:#fff"></path><polygon points="434.68 382.4 437.54 382.4 429.95 289.5 427.09 289.5 434.68 382.4" style="fill:#fff"></polygon><polygon points="416.44 382.4 419.29 382.4 415.53 289.5 412.68 289.5 416.44 382.4" style="fill:#fff"></polygon><rect x="392.43" y="356.44" width="41.78" height="6.56" transform="translate(826.63 719.44) rotate(180)" style="fill:#fff"></rect><polygon points="392.17 382.4 389.32 382.4 396.91 289.5 399.76 289.5 392.17 382.4" style="fill:#fff"></polygon><path d="M154.69,289.5H192a6.85,6.85,0,0,0,6.83-6.83h0a6.85,6.85,0,0,0-6.83-6.84H154.69a6.86,6.86,0,0,0-6.84,6.84h0A6.86,6.86,0,0,0,154.69,289.5Z" style="fill:#fff"></path><polygon points="193.78 382.4 196.63 382.4 189.04 289.5 186.19 289.5 193.78 382.4" style="fill:#fff"></polygon><polygon points="175.53 382.4 178.38 382.4 174.62 289.5 171.77 289.5 175.53 382.4" style="fill:#fff"></polygon><rect x="151.52" y="356.44" width="41.78" height="6.56" transform="translate(344.81 719.44) rotate(180)" style="fill:#fff"></rect><polygon points="151.26 382.4 148.41 382.4 156 289.5 158.85 289.5 151.26 382.4" style="fill:#fff"></polygon><path d="M359.66,163.23l.36-.54a11.2,11.2,0,0,0,1.85-5.11L363,146.93a.41.41,0,0,1-.35-.39.4.4,0,0,1,.4-.4h4.36a.4.4,0,0,1,.05.79l1.11,10.65a11.32,11.32,0,0,0,1.85,5.11l.36.54a5.32,5.32,0,0,1,.91,3v22.57a1.71,1.71,0,0,1-1.72,1.71h-9.48a1.7,1.7,0,0,1-1.71-1.71V166.19A5.31,5.31,0,0,1,359.66,163.23Z" style="fill:#e0e0e0"></path><rect x="363.67" y="169.6" width="8" height="14.33" transform="translate(735.34 353.53) rotate(180)" style="fill:#f5f5f5"></rect><path d="M335.33,163.23l.36-.54a11.2,11.2,0,0,0,1.85-5.11l1.11-10.65a.4.4,0,0,1,.06-.79h4.35a.4.4,0,0,1,.05.79l1.11,10.65a11.32,11.32,0,0,0,1.85,5.11l.37.54a5.39,5.39,0,0,1,.9,3v22.57a1.71,1.71,0,0,1-1.71,1.71h-9.49a1.71,1.71,0,0,1-1.71-1.71V166.19A5.31,5.31,0,0,1,335.33,163.23Z" style="fill:#e0e0e0"></path><rect x="341.45" y="169.6" width="5.89" height="14.33" transform="translate(688.79 353.53) rotate(180)" style="fill:#f5f5f5"></rect><path d="M318.83,163.23l.37-.54a11.32,11.32,0,0,0,1.85-5.11l1.11-10.65a.4.4,0,0,1,0-.79h4.35a.4.4,0,0,1,.06.79l1.11,10.65a11.2,11.2,0,0,0,1.85,5.11l.36.54a5.31,5.31,0,0,1,.9,3v22.57a1.71,1.71,0,0,1-1.71,1.71h-9.49a1.71,1.71,0,0,1-1.71-1.71V166.19A5.39,5.39,0,0,1,318.83,163.23Z" style="fill:#e0e0e0"></path><rect x="321.64" y="169.6" width="9.2" height="14.33" transform="translate(652.48 353.53) rotate(180)" style="fill:#f5f5f5"></rect><path d="M262.12,163.23l.36-.54a11.33,11.33,0,0,0,1.86-5.11l1.1-10.65a.4.4,0,0,1,.06-.79h4.35a.4.4,0,0,1,0,.79L271,157.58a11.32,11.32,0,0,0,1.85,5.11l.37.54a5.31,5.31,0,0,1,.9,3v22.57a1.71,1.71,0,0,1-1.71,1.71h-9.49a1.71,1.71,0,0,1-1.71-1.71V166.19A5.31,5.31,0,0,1,262.12,163.23Z" style="fill:#f5f5f5"></path><rect x="266.13" y="169.6" width="8" height="14.33" transform="translate(540.26 353.53) rotate(180)" style="fill:#e0e0e0"></rect><path d="M130.37,163.23l-.36-.54a11.2,11.2,0,0,1-1.85-5.11l-1.11-10.65a.41.41,0,0,0,.35-.39.4.4,0,0,0-.4-.4h-4.36a.4.4,0,0,0,0,.79l-1.11,10.65a11.32,11.32,0,0,1-1.85,5.11l-.36.54a5.32,5.32,0,0,0-.91,3v22.57a1.71,1.71,0,0,0,1.72,1.71h9.48a1.7,1.7,0,0,0,1.71-1.71V166.19A5.31,5.31,0,0,0,130.37,163.23Z" style="fill:#e0e0e0"></path><rect x="118.36" y="169.6" width="9.54" height="14.33" style="fill:#f5f5f5"></rect><path d="M73.66,163.23l-.36-.54a11.2,11.2,0,0,1-1.85-5.11l-1.11-10.65a.41.41,0,0,0,.35-.39.4.4,0,0,0-.4-.4H65.93a.4.4,0,0,0-.05.79l-1.11,10.65a11.32,11.32,0,0,1-1.85,5.11l-.36.54a5.32,5.32,0,0,0-.91,3v22.57a1.71,1.71,0,0,0,1.72,1.71h9.48a1.7,1.7,0,0,0,1.71-1.71V166.19A5.31,5.31,0,0,0,73.66,163.23Z" style="fill:#f5f5f5"></path><rect x="61.65" y="169.6" width="10.07" height="14.33" style="fill:#e0e0e0"></rect><path d="M90.16,163.23l-.36-.54A11.2,11.2,0,0,1,88,157.58l-1.11-10.65a.4.4,0,0,0-.06-.79H82.43a.4.4,0,0,0-.05.79l-1.11,10.65a11.32,11.32,0,0,1-1.85,5.11l-.37.54a5.39,5.39,0,0,0-.9,3v22.57a1.71,1.71,0,0,0,1.71,1.71h9.49a1.71,1.71,0,0,0,1.71-1.71V166.19A5.31,5.31,0,0,0,90.16,163.23Z" style="fill:#f5f5f5"></path><rect x="83.07" y="169.6" width="8" height="14.33" style="fill:#e0e0e0"></rect><path d="M143.18,87.16l-.36-.54A11.16,11.16,0,0,1,141,81.51l-1.11-10.65a.39.39,0,0,0,.35-.39.4.4,0,0,0-.4-.4h-4.36a.4.4,0,0,0-.4.4.38.38,0,0,0,.35.39l-1.11,10.65a11.28,11.28,0,0,1-1.85,5.11l-.37.54a5.4,5.4,0,0,0-.9,3V112.7a1.72,1.72,0,0,0,1.72,1.71h9.48a1.71,1.71,0,0,0,1.71-1.71V90.13A5.32,5.32,0,0,0,143.18,87.16Z" style="fill:#f5f5f5"></path><rect x="136.09" y="93.54" width="8" height="14.33" style="fill:#e0e0e0"></rect><path d="M80.41,87.16,80,86.62a11.28,11.28,0,0,1-1.85-5.11L77.08,70.86a.38.38,0,0,0,.35-.39.4.4,0,0,0-.4-.4H72.68a.4.4,0,0,0-.4.4.38.38,0,0,0,.34.39L71.51,81.51a11.16,11.16,0,0,1-1.85,5.11l-.36.54a5.32,5.32,0,0,0-.9,3V112.7a1.72,1.72,0,0,0,1.71,1.71H79.6a1.72,1.72,0,0,0,1.71-1.71V90.13A5.4,5.4,0,0,0,80.41,87.16Z" style="fill:#e0e0e0"></path><rect x="68.4" y="93.54" width="7.49" height="14.33" style="fill:#f5f5f5"></rect><path d="M161.13,87.16l-.36-.54a11.16,11.16,0,0,1-1.85-5.11l-1.11-10.65a.39.39,0,0,0,.35-.39.4.4,0,0,0-.4-.4H153.4a.4.4,0,0,0-.4.4.38.38,0,0,0,.35.39l-1.11,10.65a11.28,11.28,0,0,1-1.85,5.11l-.36.54a5.33,5.33,0,0,0-.91,3V112.7a1.72,1.72,0,0,0,1.72,1.71h9.48A1.71,1.71,0,0,0,162,112.7V90.13A5.32,5.32,0,0,0,161.13,87.16Z" style="fill:#e0e0e0"></path><rect x="149.12" y="93.54" width="6.06" height="14.33" style="fill:#f5f5f5"></rect><rect x="160.55" y="93.54" width="1.48" height="14.33" style="fill:#f5f5f5"></rect><path d="M111.33,87.16l-.37-.54a11.28,11.28,0,0,1-1.85-5.11L108,70.86a.38.38,0,0,0,.35-.39.4.4,0,0,0-.4-.4H103.6a.4.4,0,0,0-.41.4.39.39,0,0,0,.35.39l-1.11,10.65a11.16,11.16,0,0,1-1.85,5.11l-.36.54a5.32,5.32,0,0,0-.9,3V112.7a1.72,1.72,0,0,0,1.71,1.71h9.49a1.72,1.72,0,0,0,1.71-1.71V90.13A5.4,5.4,0,0,0,111.33,87.16Z" style="fill:#e0e0e0"></path><rect x="99.32" y="93.54" width="9.72" height="14.33" style="fill:#f5f5f5"></rect><path d="M217.05,87.16l-.37-.54a11.28,11.28,0,0,1-1.85-5.11l-1.11-10.65a.38.38,0,0,0,.35-.39.4.4,0,0,0-.4-.4h-4.36a.4.4,0,0,0-.4.4.39.39,0,0,0,.35.39l-1.11,10.65a11.16,11.16,0,0,1-1.85,5.11l-.36.54a5.32,5.32,0,0,0-.9,3V112.7a1.72,1.72,0,0,0,1.71,1.71h9.49A1.72,1.72,0,0,0,218,112.7V90.13A5.4,5.4,0,0,0,217.05,87.16Z" style="fill:#e0e0e0"></path><rect x="205.04" y="93.54" width="8" height="14.33" style="fill:#f5f5f5"></rect><rect x="47.33" y="190.47" width="352.43" height="17.36" transform="translate(447.09 398.3) rotate(180)" style="fill:#f5f5f5"></rect><rect x="47.33" y="114.41" width="352.43" height="17.36" transform="translate(447.09 246.18) rotate(180)" style="fill:#f5f5f5"></rect><path d="M330.72,114.41h0a90.82,90.82,0,0,1-12.8-.65c-5.69-.77-13.55-2.57-17.08-6-10.9-10.13-10.9-29.37,0-39.5,3.53-3.4,11.39-5.21,17.08-6a92,92,0,0,1,12.8-.64h0a92.2,92.2,0,0,1,12.81.64c5.68.77,13.54,2.58,17.07,6,10.9,10.13,10.9,29.37,0,39.5-3.53,3.4-11.38,5.2-17.07,6A91,91,0,0,1,330.72,114.41Z" style="fill:#ebebeb"></path><path d="M330.72,114.41h0c-5.71,0-18.8-3.62-24.37-10.21a28.6,28.6,0,0,1,0-32.32c5.57-6.6,18.66-10.23,24.37-10.21h0c5.71,0,18.81,3.61,24.37,10.21a28.6,28.6,0,0,1,0,32.32C349.53,110.79,336.43,114.43,330.72,114.41Z" style="fill:#f5f5f5"></path><path d="M330.72,114.41h0c-6.16,0-12.61-5.2-13.55-11.63a130.91,130.91,0,0,1,0-29.48c.94-6.44,7.39-11.63,13.55-11.63h0c6.17,0,12.62,5.2,13.55,11.63a129.75,129.75,0,0,1,0,29.48C343.34,109.21,336.89,114.41,330.72,114.41Z" style="fill:#fff"></path><path d="M332.32,84.9,334,87.52a1.91,1.91,0,0,1-1.6,3H329a1.91,1.91,0,0,1-1.6-3l1.71-2.62A1.92,1.92,0,0,1,332.32,84.9Z" style="fill:#e0e0e0"></path><path d="M305.91,98.37h0a2.79,2.79,0,0,0,2.68,1.83l3.84-.1a2.79,2.79,0,0,1,2.38,1.23l2,3a2.78,2.78,0,0,0,3.26,1.06l3.4-1.24a2.78,2.78,0,0,1,2.68.43l2.83,2.24a2.77,2.77,0,0,0,3.44,0l2.83-2.24a2.78,2.78,0,0,1,2.68-.43l3.4,1.24a2.78,2.78,0,0,0,3.26-1.06l2-3A2.78,2.78,0,0,1,349,100.1l3.84.1a2.79,2.79,0,0,0,2.69-1.83h0a2.78,2.78,0,0,0-1.63-3.54l-.14,0a2.78,2.78,0,0,0-3.12.82l-1.67,2a2.76,2.76,0,0,1-3.42.69l-2.39-1.25a2.76,2.76,0,0,0-3.13.38L338,99.26a2.78,2.78,0,0,1-3.44.2l-2.24-1.56a2.77,2.77,0,0,0-3.18,0l-2.24,1.56a2.77,2.77,0,0,1-3.43-.2l-2-1.83a2.78,2.78,0,0,0-3.14-.38l-2.39,1.25a2.77,2.77,0,0,1-3.42-.69l-1.68-2a2.78,2.78,0,0,0-3.12-.82l-.13,0A2.79,2.79,0,0,0,305.91,98.37Z" style="fill:#e0e0e0"></path><path d="M338.48,77.9l11.61-4.36a1.27,1.27,0,0,1,1.65,1.62c-1.24,3.3-4.6,8.35-13.26,5.13A1.28,1.28,0,0,1,338.48,77.9Z" style="fill:#e0e0e0"></path><path d="M323,77.9l-11.61-4.36a1.27,1.27,0,0,0-1.65,1.62c1.24,3.3,4.6,8.35,13.27,5.13A1.28,1.28,0,0,0,323,77.9Z" style="fill:#e0e0e0"></path><path d="M155.67,190.43h0a82.74,82.74,0,0,1-11.62-.59c-5.16-.7-12.3-2.33-15.5-5.42-9.89-9.2-9.9-26.66,0-35.86,3.2-3.09,10.34-4.72,15.5-5.42a84.33,84.33,0,0,1,11.62-.59h0a84.46,84.46,0,0,1,11.63.59c5.16.7,12.29,2.34,15.49,5.42,9.9,9.2,9.9,26.66,0,35.86-3.2,3.09-10.33,4.72-15.49,5.42A84.46,84.46,0,0,1,155.67,190.43Z" style="fill:#ebebeb"></path><path d="M155.67,190.43h0c-5.18,0-17.07-3.29-22.12-9.27a26,26,0,0,1,0-29.34c5.06-6,16.94-9.28,22.12-9.27h0c5.19,0,17.07,3.29,22.12,9.27a26,26,0,0,1,0,29.34C172.74,187.14,160.86,190.44,155.67,190.43Z" style="fill:#f5f5f5"></path><path d="M155.67,190.43h0c-5.59,0-11.45-4.72-12.3-10.56a118.55,118.55,0,0,1,0-26.76c.85-5.84,6.71-10.56,12.3-10.56h0c5.6,0,11.46,4.72,12.3,10.56a117.39,117.39,0,0,1,0,26.76C167.13,185.71,161.27,190.43,155.67,190.43Z" style="fill:#fff"></path><path d="M157.13,163l1.55,2.38a1.74,1.74,0,0,1-1.45,2.69h-3.11a1.74,1.74,0,0,1-1.46-2.69l1.56-2.38A1.75,1.75,0,0,1,157.13,163Z" style="fill:#e0e0e0"></path><path d="M178.2,180.69h0a2.53,2.53,0,0,0-2.44-1.67l-3.48.09a2.5,2.5,0,0,1-2.16-1.11l-1.84-2.75a2.53,2.53,0,0,0-3-1l-3.09,1.13a2.51,2.51,0,0,1-2.42-.39l-2.57-2a2.51,2.51,0,0,0-3.13,0l-2.57,2a2.51,2.51,0,0,1-2.42.39L146,174.28a2.53,2.53,0,0,0-3,1L141.23,178a2.52,2.52,0,0,1-2.16,1.11l-3.49-.09a2.53,2.53,0,0,0-2.43,1.66h0a2.52,2.52,0,0,0,1.48,3.22l.12,0a2.52,2.52,0,0,0,2.83-.75l1.52-1.83a2.53,2.53,0,0,1,3.11-.62l2.16,1.13a2.53,2.53,0,0,0,2.85-.34l1.86-1.66a2.51,2.51,0,0,1,3.12-.18l2,1.42a2.55,2.55,0,0,0,2.89,0l2-1.42a2.51,2.51,0,0,1,3.12.18l1.86,1.66a2.53,2.53,0,0,0,2.85.34l2.16-1.13a2.52,2.52,0,0,1,3.11.62l1.52,1.83a2.52,2.52,0,0,0,2.83.75l.12,0A2.52,2.52,0,0,0,178.2,180.69Z" style="fill:#e0e0e0"></path><path d="M162.72,157.29l10.54-4a1.15,1.15,0,0,1,1.49,1.47c-1.12,3-4.17,7.58-12,4.66A1.16,1.16,0,0,1,162.72,157.29Z" style="fill:#e0e0e0"></path><path d="M148.63,157.29l-10.54-4a1.16,1.16,0,0,0-1.5,1.47c1.13,3,4.18,7.58,12,4.66A1.16,1.16,0,0,0,148.63,157.29Z" style="fill:#e0e0e0"></path></g><g id="freepik--Shadow--inject-6"><ellipse id="freepik--path--inject-6" cx="250" cy="416.24" rx="193.89" ry="11.32" style="fill:#f5f5f5"></ellipse></g><g id="freepik--character-1--inject-6"><path d="M105.46,109.5c10.65,1.32,26.89,32.93,12.31,42.06A106.85,106.85,0,0,0,81.35,151s-4.45-19.58-.72-29.34S92.2,107.85,105.46,109.5Z" style="fill:#e0e0e0"></path><path d="M44.89,260.12c5.73,4.89,16.66-5.74,16.91-17.76C62,231.23,69.64,228,80.21,226.7l-7.09,14.73s-2.45.44-8.08,16.4C60.83,269.78,48.49,270,48.49,270S44.5,266.72,44.89,260.12Z"></path><path d="M95.15,221.37c-9.1-9.12-26.84-18-26.83-8.71s0,6.69-5.29,13.8,10.73,7.74,20.29,5.75A15.84,15.84,0,0,0,95.15,221.37Z"></path><path d="M122.84,219.28s6.68,52,6.1,85c2.54,31,7.58,102,7.58,102-.12,1.58-6.27,2.37-7.75,1.42,0,0-22.32-53.12-19.21-103.39-21.26-52.43-20-85-20-85Z" style="fill:#b55b52"></path><path d="M95.49,261.26c1.65,6.77,3.77,14.28,6.48,22.45.79-16.46,5.24-38.49,5.39-39.24Z" style="opacity:0.2"></path><path d="M113.78,219.28S98.58,278,92.56,306.77C86.23,337,77.37,389.19,79.13,409.29c-1.69,1-4.38,1.06-7.8,0,0,0-16.39-72.05.17-101.18-6-71.68,13-88.83,13-88.83Z" style="fill:#b55b52"></path><path d="M67.83,408.17c.27-1,.67-2.13,1.06-3.55a1.77,1.77,0,0,1,1.84-1.3l8.58.61a2,2,0,0,1,1.56.93c1.64,2.6,4.75,6.51,8.53,7,4,.53,1.69,4.36-1.24,4.36-7.35,0-7.78-.72-11.72-2l-.81-.26a3.42,3.42,0,0,0-4,1.62l-.38.69H67.52C67.27,415,66.81,410.92,67.83,408.17Z" style="fill:#263238"></path><path d="M126.51,408.52c-.08-1-.09-2.16-.2-3.59a1.47,1.47,0,0,1,1.35-1.59l8.62-1.15a2.46,2.46,0,0,1,1.86.58c2.5,2.14,9.83,4.63,13.71,4.35,4.1-.29,3.18,3.8.31,4.39-7.21,1.47-11-.11-15.21.3h0a3.39,3.39,0,0,0-3,2.78l-.12.7-4.78,1C128.34,415.11,126.47,411.33,126.51,408.52Z" style="fill:#263238"></path><path d="M110.76,173.47c2.49,4.47,5.12,8.81,7.79,13.15s5.45,8.61,8.26,12.86l2.13,3.17.54.8a11.22,11.22,0,0,0,1.31,1.67,9.6,9.6,0,0,0,2.06,1.67,8.94,8.94,0,0,0,2.79,1.1,9.5,9.5,0,0,0,5-.34,12.69,12.69,0,0,0,3.05-1.55,20,20,0,0,0,3.74-3.4,33,33,0,0,0,2.68-3.44c.8-1.16,1.53-2.32,2.2-3.5a55.16,55.16,0,0,0,3.52-7.3,3.52,3.52,0,0,0-5.83-3.72l-.13.14c-3.29,3.51-6.75,7.31-10.08,9.86A11,11,0,0,1,137.6,196c-.27.11-.48.13-.4.05a1.8,1.8,0,0,1,1.25-.13,3.14,3.14,0,0,1,1,.37,3,3,0,0,1,.62.44c.12.1.21.19.19.14l-.46-.84L138,192.68q-3.68-6.63-7.43-13.24c-2.53-4.38-5.07-8.77-7.72-13.06h0a7,7,0,0,0-12.1,7.1Z" style="fill:#b55b52"></path><path d="M114.79,158.7c7.32,1.38,11.21,7.59,18.42,20.58-1.67,4.84-13.05,9.47-13.05,9.47S102.72,168.16,114.79,158.7Z" style="fill:#407BFF"></path><path d="M114.79,158.7c7.32,1.38,11.21,7.59,18.42,20.58-1.67,4.84-13.05,9.47-13.05,9.47S102.72,168.16,114.79,158.7Z" style="opacity:0.4"></path><path d="M126.4,171.66a158.73,158.73,0,0,1-.26,17.08,192.13,192.13,0,0,1-4.27,31c-4.32,1.86-24.26,1.2-37.4-.5.8-10.52-.5-26.17-7.63-49.83-1.65-5.48,2-10.75,7.91-11.31,1.58-.15,3.24-.28,5-.36a135.32,135.32,0,0,1,18,0c2,.17,4,.4,5.92.66C120.66,159.35,126.19,165.09,126.4,171.66Z" style="fill:#407BFF"></path><path d="M126.4,171.66a158.73,158.73,0,0,1-.26,17.08,192.13,192.13,0,0,1-4.27,31c-4.32,1.86-24.26,1.2-37.4-.5.8-10.52-.5-26.17-7.63-49.83-1.65-5.48,2-10.75,7.91-11.31,1.58-.15,3.24-.28,5-.36a135.32,135.32,0,0,1,18,0c2,.17,4,.4,5.92.66C120.66,159.35,126.19,165.09,126.4,171.66Z" style="opacity:0.4"></path><path d="M91,137.51c1.57,5.8,3.49,16.42-.27,20.29,0,0,1,4.29,15.51,6.75,7.75-3.66,2.51-6.75,2.51-6.75-6.58-1.54-6.77-6.34-6-10.84Z" style="fill:#b55b52"></path><path d="M95.77,141.37l7,5.58a18.46,18.46,0,0,0-.32,3.2c-2.49-.36-6.09-3.07-6.54-5.65A8.48,8.48,0,0,1,95.77,141.37Z" style="opacity:0.2"></path><path d="M86,125.87c1.76,9.37,2.3,13.36,7.65,17.85,8,6.75,19.07,3.18,20.13-6.37,1-8.59-2.09-22.45-11.74-25.55A12.2,12.2,0,0,0,86,125.87Z" style="fill:#b55b52"></path><path d="M100.85,127.43c.11.8.62,1.41,1.12,1.37s.83-.71.72-1.5-.62-1.41-1.13-1.37S100.74,126.64,100.85,127.43Z" style="fill:#263238"></path><path d="M110.41,126.87c.11.79.62,1.4,1.13,1.37s.82-.71.71-1.5-.62-1.41-1.13-1.37S110.3,126.08,110.41,126.87Z" style="fill:#263238"></path><path d="M110.91,125.43l1.78-.69S112,126.3,110.91,125.43Z" style="fill:#263238"></path><path d="M107.94,128.37a23.32,23.32,0,0,0,3.49,4.85,3.18,3.18,0,0,1-2.69.73Z" style="fill:#a02724"></path><path d="M104.7,137.21a8.2,8.2,0,0,0,1.32,0,.21.21,0,0,0,.19-.25.25.25,0,0,0-.26-.22,6.69,6.69,0,0,1-5.37-2.08.22.22,0,0,0-.32-.05.23.23,0,0,0,0,.33A7,7,0,0,0,104.7,137.21Z" style="fill:#263238"></path><path d="M84.87,132.68a6.56,6.56,0,0,0,4.24,3.16c2.22.4,3-2.17,2-4.6-.83-2.18-3-5-5.06-4.32S83.6,130.58,84.87,132.68Z" style="fill:#b55b52"></path><path d="M98.63,125a.44.44,0,0,0,.29-.2,3.4,3.4,0,0,1,2.73-1.74.44.44,0,0,0,.43-.47.5.5,0,0,0-.5-.45,4.26,4.26,0,0,0-3.48,2.16.47.47,0,0,0,.18.64A.44.44,0,0,0,98.63,125Z" style="fill:#263238"></path><path d="M113.2,123.72a.43.43,0,0,0,.32-.11.47.47,0,0,0,0-.65,4.87,4.87,0,0,0-4-1.76.42.42,0,0,0-.37.51.52.52,0,0,0,.54.41,3.89,3.89,0,0,1,3.12,1.43A.55.55,0,0,0,113.2,123.72Z" style="fill:#263238"></path><path d="M101.34,126l1.79-.68S102.39,126.86,101.34,126Z" style="fill:#263238"></path><path d="M109.69,213a.4.4,0,0,0,.15,0,.37.37,0,0,0,.19-.49L91.37,169.78a.38.38,0,0,0-.5-.19.36.36,0,0,0-.19.49l18.66,42.74A.38.38,0,0,0,109.69,213Z" style="fill:#fff"></path><polygon points="89.3 166.12 89.59 169.25 86.7 170.5 89.77 171.19 90.05 174.32 91.66 171.62 94.73 172.31 92.65 169.95 94.26 167.24 91.37 168.49 89.3 166.12" style="fill:#fff"></polygon><path d="M102.58,188.25,99.64,188a3.46,3.46,0,0,0-2.94,1.17l-3.41,3.92a6.42,6.42,0,0,0-1.4,5.73l.3,1.25c4.86.81,10.7-1.9,10.7-1.9l1.75-.58a2.87,2.87,0,0,0,1.91-3.61l-1.12-3.48A3.29,3.29,0,0,0,102.58,188.25Z" style="fill:#b55b52"></path><path d="M164.66,184.56l-1.46,2.57a3.47,3.47,0,0,1-2.64,1.73l-5.18.53a6.43,6.43,0,0,1-5.49-2.15l-.85-1c2.14-4.43,7.71-7.66,7.71-7.66l1.49-1.09a2.86,2.86,0,0,1,4,.52l2.21,2.91A3.32,3.32,0,0,1,164.66,184.56Z" style="fill:#b55b52"></path><path d="M73,168.39c-.35.78-.59,1.33-.86,2s-.5,1.24-.73,1.86c-.48,1.23-.88,2.47-1.29,3.72a76,76,0,0,0-2,7.62c-.27,1.29-.48,2.6-.69,3.9s-.35,2.63-.45,4a60.3,60.3,0,0,0-.18,8.08l0,.37a4.36,4.36,0,0,0,.13,1,10,10,0,0,0,1.71,3.66,9.11,9.11,0,0,0,3.36,2.73,11.31,11.31,0,0,0,5.81.94,17.89,17.89,0,0,0,3.95-.8,32.57,32.57,0,0,0,3.26-1.23,46.19,46.19,0,0,0,5.66-3.08,47.13,47.13,0,0,0,5.08-3.72,3.53,3.53,0,0,0-3.24-6.1l-.2.06c-1.75.5-3.6,1.08-5.38,1.56s-3.54.94-5.21,1.24c-.84.15-1.64.28-2.38.34a8.45,8.45,0,0,1-1.85,0c-.43,0-.57-.3.1-.09a2.73,2.73,0,0,1,1.15.85,3.4,3.4,0,0,1,.56,1l.15,1.34c.18-2.14.4-4.26.79-6.42s.84-4.29,1.41-6.43,1.17-4.28,1.87-6.4c.35-1,.72-2.1,1.09-3.14l.57-1.54.53-1.39.14-.36A7,7,0,0,0,73,168.39Z" style="fill:#b55b52"></path><path d="M84.39,158.22c-6.46,1-9.06,3-14.33,15.95,2.39,4.84,13,13.16,13,13.16S91.1,166.83,84.39,158.22Z" style="fill:#407BFF"></path><path d="M84.39,158.22c-6.46,1-9.06,3-14.33,15.95,2.39,4.84,13,13.16,13,13.16S91.1,166.83,84.39,158.22Z" style="opacity:0.4"></path><path d="M123,223.44c-13,3.86-28.91,3.59-42,.34-1-.25.61-2,.86-2.88.48-1.72.5-2.72.91-4.46.2-.8.45-1.51,1.92-1.25,12.77,2.3,26.1,2.41,38.56-1.3.46-.14.9.68,1,1.81.14,1.81-.65,3.63-.51,5.44C123.79,222.27,123.49,223.3,123,223.44Z" style="fill:#263238"></path><path d="M123.07,222.86c3.07,4.11,28.79,34.21,35.2,70.81-2.21,17.42-23.81,22.58-35,16.87S100.9,307.3,81,314s-29.14-4.82-36.46-15.46c7.54-33.75,28-70.9,37.11-75.5C102.58,218.64,123.07,222.86,123.07,222.86Z" style="fill:#263238"></path><polygon points="79.49 235.76 78.12 237.91 75.65 237.26 77.26 239.23 75.89 241.38 78.26 240.45 79.88 242.43 79.73 239.88 82.11 238.95 79.64 238.31 79.49 235.76" style="fill:#407BFF"></polygon><polygon points="115.03 227.35 115.37 229.88 113.07 230.99 115.58 231.45 115.91 233.98 117.13 231.73 119.64 232.2 117.88 230.35 119.09 228.1 116.79 229.21 115.03 227.35" style="fill:#407BFF"></polygon><polygon points="132.76 248.8 133.09 251.33 130.79 252.43 133.3 252.89 133.63 255.42 134.85 253.18 137.36 253.64 135.6 251.79 136.82 249.55 134.51 250.65 132.76 248.8" style="fill:#407BFF"></polygon><polygon points="102.39 261.39 101.91 263.89 99.38 264.22 101.62 265.44 101.14 267.95 103 266.2 105.24 267.43 104.15 265.12 106.01 263.37 103.48 263.69 102.39 261.39" style="fill:#407BFF"></polygon><polygon points="133.77 284.5 133.29 287 130.76 287.33 133 288.56 132.52 291.06 134.38 289.31 136.62 290.54 135.53 288.23 137.39 286.48 134.86 286.81 133.77 284.5" style="fill:#407BFF"></polygon><polygon points="73.94 292.03 72.82 294.32 70.3 293.96 72.13 295.74 71 298.03 73.26 296.83 75.09 298.61 74.65 296.1 76.91 294.9 74.38 294.54 73.94 292.03" style="fill:#407BFF"></polygon><polygon points="66.63 262.57 64.81 264.36 62.55 263.19 63.69 265.47 61.87 267.26 64.39 266.88 65.53 269.16 65.95 266.65 68.47 266.27 66.21 265.09 66.63 262.57" style="fill:#407BFF"></polygon><path d="M88.68,293.51c19.12,0,33.15-4.5,44.49-8.15,9-2.88,16.07-5.16,22-3.78a.5.5,0,0,0,.23-1c-6.21-1.45-13.41.87-22.53,3.8-11.65,3.74-26.12,8.4-46.07,8.09C52,292,49.45,282.45,49.43,282.35a.5.5,0,0,0-.59-.38.48.48,0,0,0-.39.58c.08.43,2.46,10.39,38.34,10.95Z" style="fill:#407BFF"></path><path d="M81.14,265.67c14.81,0,28.33-6.17,39.19-11.13,8.84-4,15.81-7.22,20.27-5.72a.5.5,0,1,0,.32-.94c-4.83-1.64-12,1.62-21,5.75C103.7,261,81.48,271.18,58.1,259a.5.5,0,0,0-.67.22.49.49,0,0,0,.21.67A49.93,49.93,0,0,0,81.14,265.67Z" style="fill:#407BFF"></path><path d="M85,236.89c8.44,0,16.84-3.38,24.08-6.3,6.81-2.74,12.69-5.11,16.51-3.84a.5.5,0,0,0,.64-.32.51.51,0,0,0-.32-.63c-4.17-1.39-10.21,1-17.2,3.86-10.8,4.35-24.24,9.77-36.23,3.08a.5.5,0,0,0-.68.19.49.49,0,0,0,.19.68A26.15,26.15,0,0,0,85,236.89Z" style="fill:#407BFF"></path><path d="M90.51,110.39c14.07-4.84,19.71,2,19.71,2a22.87,22.87,0,0,1,5.73,7.31,106.43,106.43,0,0,1-18.29-.54,2.23,2.23,0,0,0-1.9.73l-.1.12a2.29,2.29,0,0,0-.57,1.79c1,9.19-2.83,12.71,3.15,18-5.89,9-14.57,8-14.57,8l-3-18.58S77.44,114.89,90.51,110.39Z" style="fill:#e0e0e0"></path><path d="M112.51,131.91c2.39,0,4.34-2.93,4.34-6.53s-1.95-6.54-4.34-6.54-4.35,2.93-4.35,6.54S110.11,131.91,112.51,131.91Zm0-12.57c2.12,0,3.84,2.71,3.84,6s-1.72,6-3.84,6-3.85-2.71-3.85-6S110.39,119.34,112.51,119.34Z" style="fill:#263238"></path><path d="M106.32,126.4a.23.23,0,0,0,.16-.06c1.19-1,1.73-.42,1.75-.39a.25.25,0,0,0,.35,0,.24.24,0,0,0,0-.35s-.87-1-2.44.33a.24.24,0,0,0,0,.35A.26.26,0,0,0,106.32,126.4Z" style="fill:#263238"></path><path d="M102.24,133.09c2.39,0,4.34-2.93,4.34-6.53s-2-6.54-4.34-6.54-4.35,2.93-4.35,6.54S99.84,133.09,102.24,133.09Zm0-12.57c2.12,0,3.84,2.71,3.84,6s-1.72,6-3.84,6-3.85-2.71-3.85-6S100.12,120.52,102.24,120.52Z" style="fill:#263238"></path><path d="M66,141.85c16-13.85,47-28.91,67.11-32.38-13.86-3.59-26.93-4.19-44.95,5.61C72.35,123.66,66,141.85,66,141.85Z" style="fill:#263238"></path><path d="M108.9,109.11c-2.45-6.89-17.31-25.4-40.19-25s-30.75,21.35-22,28.36c-3.51-6.84,1.43-19.83,13.56-19.8S82,112.76,80.59,122.45C99.45,121,108.9,109.11,108.9,109.11Z" style="fill:#263238"></path><polygon points="47.36 108.29 45.91 111.08 42.81 110.55 45.01 112.8 43.55 115.59 46.37 114.19 48.57 116.43 48.11 113.32 50.92 111.92 47.82 111.4 47.36 108.29" style="fill:#407BFF"></polygon><polygon points="98.41 102.74 99.36 104.54 97.94 106 99.95 105.65 100.9 107.45 101.19 105.43 103.2 105.08 101.37 104.19 101.65 102.17 100.24 103.63 98.41 102.74" style="fill:#407BFF"></polygon><polygon points="77.61 97.58 78.48 99.42 77 100.82 79.02 100.56 79.89 102.4 80.27 100.4 82.29 100.14 80.5 99.16 80.88 97.16 79.39 98.56 77.61 97.58" style="fill:#407BFF"></polygon><polygon points="65.51 83.74 66.38 85.58 64.9 86.98 66.92 86.72 67.8 88.56 68.17 86.56 70.19 86.3 68.4 85.32 68.78 83.32 67.3 84.71 65.51 83.74" style="fill:#407BFF"></polygon><path d="M80.64,119.1h0a.5.5,0,0,0,.47-.53c-.1-1.42,3.53-3.95,7-6.39,6.09-4.24,13.67-9.51,12.5-15.16a.49.49,0,0,0-.59-.39.5.5,0,0,0-.39.59c1,5-6.24,10.07-12.09,14.14-4.24,3-7.59,5.29-7.46,7.28A.5.5,0,0,0,80.64,119.1Z" style="fill:#407BFF"></path><path d="M77.22,107.57h.06a.49.49,0,0,0,.43-.56c-.19-1.59,1.86-3.54,4-5.61,2.76-2.64,5.9-5.63,5.92-9.15,0-2-.93-3.82-2.85-5.68a.5.5,0,0,0-.71,0,.51.51,0,0,0,0,.71c1.72,1.66,2.55,3.28,2.55,4.95,0,3.1-3,5.93-5.61,8.43-2.47,2.35-4.59,4.38-4.34,6.46A.5.5,0,0,0,77.22,107.57Z" style="fill:#407BFF"></path><path d="M70,97.5a.49.49,0,0,0,.49-.41,10.25,10.25,0,0,0-2.63-8.85c-1.69-1.7-4.9-3.52-10.6-2.51a.49.49,0,0,0-.4.58.5.5,0,0,0,.58.4c4.17-.74,7.53,0,9.71,2.23a9.26,9.26,0,0,1,2.36,8,.5.5,0,0,0,.4.58Z" style="fill:#407BFF"></path></g><g id="freepik--character-2--inject-6"><circle cx="193.03" cy="102.88" r="14.21" transform="translate(-13.99 32.25) rotate(-9.22)" style="fill:#ff5652"></circle><circle cx="206.06" cy="107.99" r="14.21" style="fill:#ff5652"></circle><circle cx="186.24" cy="115.96" r="14.21" style="fill:#ff5652"></circle><circle cx="193.93" cy="126.32" r="10.36" style="fill:#ff5652"></circle><path d="M218.92,164.29c1.13,3.43,2.37,6.75,3.65,10.09s2.61,6.65,4,9.94l2.12,4.94,2.23,4.93c1.51,3.3,3.06,6.56,4.82,9.93l.61,1.18a7.32,7.32,0,0,0,1.59,2,29.76,29.76,0,0,0,5.16,3.68,31.09,31.09,0,0,0,5.39,2.34,37.57,37.57,0,0,0,10.36,1.69,46.14,46.14,0,0,0,9.51-.8c1.52-.28,3-.65,4.48-1.06.74-.22,1.47-.45,2.2-.7l1.1-.4,1.2-.46a5.73,5.73,0,0,0,.12-10.65l-2.39-1a4.17,4.17,0,0,0-.79-.13l-.9-.12-1.81-.25c-1.21-.16-2.41-.38-3.58-.59s-2.32-.48-3.42-.75a32.19,32.19,0,0,1-3.19-.93,22.45,22.45,0,0,1-5.22-2.4,13.64,13.64,0,0,1-1.77-1.38,9.37,9.37,0,0,1-1.13-1.37l2.2,3.22c-1.12-3.09-2.24-6.39-3.39-9.65l-1.69-4.94-1.74-4.95c-1.14-3.31-2.35-6.61-3.55-9.91s-2.45-6.59-3.77-9.81v0a12,12,0,0,0-22.42,8.27Z" style="fill:#ff8b7b"></path><path d="M230.25,141.93c9.82,5.16,17.13,24,17.13,24-1.37,6.3-13.48,19.33-21.11,21.44a35.82,35.82,0,0,1-8.45-17.68C216.08,158.25,224.71,142.78,230.25,141.93Z" style="fill:#263238"></path><path d="M269.38,202.36l.53,6.88c3.08,6.56,10.83,1.14,10.83,1.14l4.78-1.1a3.66,3.66,0,0,0,2.58-4l-.34-4.81a3.81,3.81,0,0,0-3.73-3.78l-4.28.27a7.53,7.53,0,0,0-3.5,1.12Z" style="fill:#ff8b7b"></path><path d="M281.11,216.14h11.27a1.6,1.6,0,0,0,1.59-1.49l1.57-23.9a1.6,1.6,0,0,0-1.59-1.7H279.54a1.6,1.6,0,0,0-1.6,1.7l1.58,23.9A1.59,1.59,0,0,0,281.11,216.14Z" style="fill:#407BFF"></path><path d="M278.08,189.78H295.4a.73.73,0,0,0,.73-.73h0a.73.73,0,0,0-.73-.73H278.08a.73.73,0,0,0-.73.73h0A.73.73,0,0,0,278.08,189.78Z" style="fill:#407BFF"></path><path d="M278.08,189.78H295.4a.73.73,0,0,0,.73-.73h0a.73.73,0,0,0-.73-.73H278.08a.73.73,0,0,0-.73.73h0A.73.73,0,0,0,278.08,189.78Z" style="fill:#fff;opacity:0.6000000000000001"></path><path d="M272,202.29c1.27-5.56,6.25-6.75,9.82-8.88.6-.36,2.08.8,1.56,2a5.89,5.89,0,0,1-3.08,3.39c.32,1.75-.53,6.84-5.47,7.8A7.31,7.31,0,0,1,272,202.29Z" style="fill:#ff8b7b"></path><polygon points="257.36 387.19 243.42 390.89 247.56 409.77 259.21 406.7 257.36 387.19" style="fill:#ff8b7b"></polygon><path d="M219.6,318.8c-9.94-23.32-23.75-53.92-13.35-77.53l45.54-2.2s2.9,51.14,3.63,74.06c.65,20.22,6.81,64,7.59,76.38a6.31,6.31,0,0,1-2.85,5.71c-2.9,1.86-11.83,3.21-15.15,3.83a6.32,6.32,0,0,1-7-3.94C232.77,381.78,220.35,341.06,219.6,318.8Z" style="fill:#407BFF"></path><path d="M219.6,318.8c-9.94-23.32-23.75-53.92-13.35-77.53l45.54-2.2s2.9,51.14,3.63,74.06c.65,20.22,6.81,64,7.59,76.38a6.31,6.31,0,0,1-2.85,5.71c-2.9,1.86-11.83,3.21-15.15,3.83a6.32,6.32,0,0,1-7-3.94C232.77,381.78,220.35,341.06,219.6,318.8Z" style="fill:#fff;opacity:0.4"></path><path d="M202.7,256.17h0c-1.15,16.1,4.92,33.8,11.41,49.66a303.77,303.77,0,0,0,2.15-37.49A12.23,12.23,0,0,0,202.7,256.17Z" style="fill:#407BFF;opacity:0.2"></path><polygon points="183.63 390.77 169.21 390.92 168.58 410.24 180.63 410.13 183.63 390.77" style="fill:#ff8b7b"></polygon><path d="M188.54,410.67a21.62,21.62,0,0,0-5.63-1.42c1.25-2.58,3.5-3.09,1.83-4.34s-13.11-1.09-11.92,2.09c.5,1.33-.08,1.75-.08,1.75s-4.25-1.42-6.83,0c-1.17,3.25,1.08,6.42,1.08,6.42s14.25.16,19.92-1.25S188.54,410.67,188.54,410.67Z" style="fill:#407BFF"></path><path d="M188.54,410.67a21.62,21.62,0,0,0-5.63-1.42c1.25-2.58,3.5-3.09,1.83-4.34s-13.11-1.09-11.92,2.09c.5,1.33-.08,1.75-.08,1.75s-4.25-1.42-6.83,0c-1.17,3.25,1.08,6.42,1.08,6.42s14.25.16,19.92-1.25S188.54,410.67,188.54,410.67Z" style="fill:#fff;opacity:0.7000000000000001"></path><path d="M166.84,315.55c-1.32-24.79-3.8-61.88,4.51-73.28L223,241.13s-14.19,54.28-19.48,77.15c-4.78,20.64-13.73,65.84-16.5,77.4-.41,1.72-3.62,2.91-5.36,3.21a34.24,34.24,0,0,1-11.45.2c-2-.32-6.15-1.75-6.37-3.76C162.59,383.26,161.14,339.74,166.84,315.55Z" style="fill:#407BFF"></path><path d="M167.84,402.57l-1.43-6.9a43.83,43.83,0,0,1,10.09-.75c6.72.09,9,1.06,9,1.06l-3.09,7.36S178,402.35,167.84,402.57Z" style="fill:#263238"></path><path d="M165.57,416.1H208.8c8.44,0,2.77-10.27-10.67-10.08s-18,9.65-25.89,8.09S162.8,414.1,165.57,416.1Z" style="fill:#407BFF"></path><path d="M268.18,408a21.56,21.56,0,0,0-5.76-.76c.94-2.71,3.12-3.47,1.32-4.52s-13.15.45-11.59,3.47c.65,1.26.12,1.74.12,1.74s-4.39-.91-6.79.8c-.78,3.37,1.83,6.25,1.83,6.25s14.17-1.5,19.63-3.57S268.18,408,268.18,408Z" style="fill:#407BFF"></path><path d="M268.18,408a21.56,21.56,0,0,0-5.76-.76c.94-2.71,3.12-3.47,1.32-4.52s-13.15.45-11.59,3.47c.65,1.26.12,1.74.12,1.74s-4.39-.91-6.79.8c-.78,3.37,1.83,6.25,1.83,6.25s14.17-1.5,19.63-3.57S268.18,408,268.18,408Z" style="fill:#fff;opacity:0.7000000000000001"></path><path d="M246,416.1a189.52,189.52,0,0,0,43-7.82c8.06-2.51-.41-10.64-13.18-6.45S260.41,414,252.4,413.35,243,414.43,246,416.1Z" style="fill:#407BFF"></path><path d="M245,402.52l-3.09-6.34a43.9,43.9,0,0,1,9.6-3.21c6.54-1.57,9-1.19,9-1.19l-1.18,7.9S254.79,399.8,245,402.52Z" style="fill:#263238"></path><path d="M223.28,139.88a206.12,206.12,0,0,0-45.52.72A15.35,15.35,0,0,0,165,158.89c7.08,35.64,1.79,75.41,6.37,83.38,25.16,7.48,73.72,6.95,79.9-1.14,16.56-15.51-7.79-62.36-15.76-92.57C234.13,143.39,228.59,140.43,223.28,139.88Z" style="fill:#407BFF"></path><path d="M171.35,395.91h0a1,1,0,0,0,1-1c-.84-26.43,3-52.62,5.61-69.95.49-3.32.93-6.3,1.28-8.91a.76.76,0,0,0,0-.15c-.63-34.94,2.14-47.36,4.58-58.32a118.26,118.26,0,0,0,2.69-15.45,1,1,0,0,0-.06-.45c-10.12-26.72-9.56-61.94-9.55-62.3a1,1,0,0,0-1-1h0a1,1,0,0,0-1,1c0,.36-.58,35.77,9.6,62.83a119.69,119.69,0,0,1-2.63,15c-2.46,11.06-5.26,23.59-4.63,58.71-.35,2.58-.79,5.53-1.27,8.8-2.58,17.41-6.48,43.71-5.63,70.31A1,1,0,0,0,171.35,395.91Z" style="fill:#fff"></path><path d="M221,195.35a4.53,4.53,0,1,0,4.51-4.92A4.73,4.73,0,0,0,221,195.35Z" style="opacity:0.2"></path><path d="M224.09,214.75a4.54,4.54,0,1,0,4.52-4.92A4.73,4.73,0,0,0,224.09,214.75Z" style="opacity:0.2"></path><path d="M224.7,234.15a4.54,4.54,0,1,0,4.52-4.92A4.74,4.74,0,0,0,224.7,234.15Z" style="opacity:0.2"></path><path d="M221.65,194.06a4.92,4.92,0,1,0,4.92-4.92A4.92,4.92,0,0,0,221.65,194.06Z" style="fill:#ff5652"></path><path d="M225,213.47a4.92,4.92,0,1,0,4.92-4.92A4.92,4.92,0,0,0,225,213.47Z" style="fill:#ff5652"></path><path d="M225.7,232.87a4.92,4.92,0,1,0,4.92-4.92A4.92,4.92,0,0,0,225.7,232.87Z" style="fill:#ff5652"></path><path d="M186.32,179.33c0,1.57.86,2.84,1.92,2.84s1.92-1.27,1.92-2.84-.86-2.83-1.92-2.83S186.32,177.77,186.32,179.33Z" style="fill:#fff"></path><path d="M239,177.38c.35,1.52,1.47,2.57,2.5,2.33s1.58-1.66,1.24-3.18-1.47-2.57-2.5-2.34S238.66,175.85,239,177.38Z" style="fill:#fff"></path><path d="M222,139.75c10.14,16.81,17.51,33.35,11.36,40.25-5,5.57-23.59,6.88-33.09,4.11-5.87-1.71-8.59-6.27-8.56-12.38,0-13.93-6.33-28.62-8.3-31.8A211.11,211.11,0,0,1,222,139.75Z" style="fill:#263238"></path><path d="M160.87,155.22c-.42.58-.68.94-1,1.4l-.89,1.3c-.57.86-1.13,1.72-1.67,2.59-1.1,1.73-2.12,3.51-3.12,5.3a108.25,108.25,0,0,0-5.42,11.2,78.56,78.56,0,0,0-4.08,12.39A48.12,48.12,0,0,0,143.3,204l0,.85a2.72,2.72,0,0,0,.09.56c.73,3.13,1.57,6.13,2.5,9.09s1.94,5.86,3,8.74,2.2,5.71,3.42,8.53,2.47,5.58,3.95,8.36a6.07,6.07,0,0,0,11.43-3V237c-.07-3-.29-6-.51-9l-.36-4.46-.41-4.43-.88-8.75-.83-8.51.14,1.41a34.16,34.16,0,0,1,1.8-7.79c.49-1.43,1.05-2.9,1.7-4.38s1.29-3,2-4.48c1.47-3,3.07-6,4.8-9,.84-1.5,1.75-3,2.63-4.47l2.61-4.21.24-.4a11.94,11.94,0,0,0-19.8-13.33Z" style="fill:#ff8b7b"></path><path d="M173.83,141.76c-10.44,3.75-20.29,21.42-20.29,21.42.49,6.43,10.68,21,17.94,24.15A35.78,35.78,0,0,0,182.3,171C185.61,159.88,179.2,143.36,173.83,141.76Z" style="fill:#263238"></path><path d="M218.26,142.5a9.55,9.55,0,0,0-4.59-4.34,8.88,8.88,0,0,1-.15-6L191.09,125c1.54,6.3,2.8,11.48,1.45,15.1a2.53,2.53,0,0,0,1.15,3c4.63,2.71,11.63,6.21,19.17,6C221.67,148.92,219.7,145.61,218.26,142.5Z" style="fill:#ff8b7b"></path><path d="M212.25,147.6c-7.15-2.3-12.24-8-14.7-5.85-4.79,4.19,2,7.21,1.2,12.89s3.91,7.83,8.74,2.39,5.26-6.3,5.26-6.3Z" style="fill:#fff"></path><path d="M212,151.28c2.31,1.91,4.14,4,5.23-.56s-.92-6.41-3-5c-1.06-1.69-5.59-1.55-4.68,1.64S212,151.28,212,151.28Z" style="fill:#fff"></path><path d="M215.15,147.23c4.4-2.65,5-7.1,8.65-6.43,5.9,1.09,1.13,6.57,3.73,11.56s-.06,7.28-5.54,2.84-6.09-5.15-6.09-5.15Z" style="fill:#fff"></path><path d="M213.34,132.86l-16.83-1c5.26,5.63,13.24,7.74,16.88,5.46A8.85,8.85,0,0,1,213.34,132.86Z" style="opacity:0.2"></path><path d="M186.72,113.68c2.67,9.65,4.72,16.15,11.68,19.25,13.85,6.17,20-.37,20.53-10.56.44-9.17-4-23.41-15.13-25.48C192.85,94.84,184,104,186.72,113.68Z" style="fill:#ff8b7b"></path><path d="M194.42,114.29c2.29,8.22,4,13.74,9.2,16.09,10.3,4.65,14.57-1.31,14.56-10.14,0-8-3.75-20.06-11.92-21.31S192.13,106.08,194.42,114.29Z" style="fill:#fff"></path><path d="M210.79,117.09a4.92,4.92,0,1,0,4.92-4.92A4.92,4.92,0,0,0,210.79,117.09Z" style="fill:#ff5652"></path><circle cx="186.41" cy="108.65" r="12.65" style="fill:#ff5652"></circle><circle cx="205.31" cy="94.65" r="10.1" style="fill:#ff5652"></circle><path d="M210.41,99.89c8.22-6.61,2.37-14.82,2.37-14.82,3.75,1.19,5.42,6.46,3.74,11.78a11.86,11.86,0,0,1-11.21,7.9Z" style="fill:#ff5652"></path><circle cx="192.49" cy="99.4" r="10.1" style="fill:#ff5652"></circle><path d="M211.29,125.48c.26,0,.53,0,.81-.07a1.51,1.51,0,0,0,1.06-.63,1.6,1.6,0,0,0,.27-1.22,1.62,1.62,0,0,0-1.66-1.29c-.3,0-.49,0-.68.06a7.18,7.18,0,0,1-5.37-2,1.56,1.56,0,0,0-2.72,1,1.62,1.62,0,0,0,.42,1.15,10.41,10.41,0,0,0,7.87,3Z" style="fill:#ff5652"></path><path d="M210.25,124.21a8.92,8.92,0,0,0,1.69-.07.27.27,0,0,0,.23-.33.31.31,0,0,0-.35-.26,8.52,8.52,0,0,1-7-2.31.29.29,0,0,0-.42,0,.3.3,0,0,0,0,.42A9.08,9.08,0,0,0,210.25,124.21Z" style="fill:#fff"></path><path d="M184.58,124.64a10.09,10.09,0,0,0,6.82,3.73c3.57.35,4.77-3,3.28-6-1.33-2.74-4.8-6.23-8.14-5.16S182.54,122,184.58,124.64Z" style="fill:#ff8b7b"></path><path d="M205.53,112.12c.16.86.75,1.47,1.31,1.36s.89-.9.73-1.76-.75-1.47-1.31-1.36S205.37,111.26,205.53,112.12Z" style="fill:#263238"></path><path d="M213.34,110.55c.16.86.74,1.47,1.31,1.36s.88-.9.72-1.76-.74-1.47-1.31-1.36S213.18,109.69,213.34,110.55Z" style="fill:#263238"></path><path d="M200.5,110.8a.45.45,0,0,1-.25,0,.49.49,0,0,1-.23-.68,5.12,5.12,0,0,1,3.72-2.89.49.49,0,0,1,.56.44.51.51,0,0,1-.45.58h0a4.14,4.14,0,0,0-2.92,2.32A.5.5,0,0,1,200.5,110.8Z" style="fill:#263238"></path><path d="M217.45,108a.54.54,0,0,1-.46-.16,4.07,4.07,0,0,0-3.45-1.34.51.51,0,0,1-.59-.41.53.53,0,0,1,.42-.6,5,5,0,0,1,4.37,1.65.51.51,0,0,1,0,.72A.59.59,0,0,1,217.45,108Z" style="fill:#263238"></path><path d="M166,234l-6.56,2.11c-5.67,4.52,1.41,10.8,1.41,10.8l2.18,4.39a3.66,3.66,0,0,0,4.46,1.59l4.6-1.45a3.8,3.8,0,0,0,2.8-4.51l-1.25-4.09a7.5,7.5,0,0,0-1.9-3.15Z" style="fill:#ff8b7b"></path></g><g id="freepik--character-3--inject-6"><path d="M393,227a16.09,16.09,0,0,1,3.29,1.05,20.5,20.5,0,0,1,3.2,1.87,32.32,32.32,0,0,1,5.8,5.46,64.2,64.2,0,0,1,8.85,14.38,98.15,98.15,0,0,1,5.8,16.31q1.11,4.22,1.86,8.5c.48,2.86.89,5.82,1.28,8.75,1.55,11.8,2.81,23.77,5.07,35.64a151.25,151.25,0,0,0,4.3,17.65,62.79,62.79,0,0,0,7.76,16.68,1.61,1.61,0,0,0,2.68-1.77l0,0a59.44,59.44,0,0,1-6.73-16,147.35,147.35,0,0,1-3.56-17.3c-1.8-11.71-2.62-23.58-3.76-35.53-.29-3-.59-6-1-9s-1-6.08-1.64-9.08A105.31,105.31,0,0,0,420.58,247a71.11,71.11,0,0,0-9.33-16.4,40.57,40.57,0,0,0-7-7.05,29.7,29.7,0,0,0-4.43-2.8,25.39,25.39,0,0,0-5.17-1.85,4.18,4.18,0,0,0-1.89,8.14l.11,0Z" style="fill:#263238"></path><polygon points="445.24 357 442.72 348.39 441.29 352.05 437.41 352.62 445.24 357" style="fill:#263238"></polygon><path d="M352.79,147.34l-.4,4.81-.47,4.93c-.34,3.28-.76,6.54-1.24,9.73s-1.07,6.29-1.79,9.19c-.36,1.43-.78,2.8-1.2,4a19.67,19.67,0,0,1-1.27,3l.55-.71a70.07,70.07,0,0,1-4.86,5.77c-.42.47-.88.93-1.34,1.38l-1.37,1.39c-.95.89-1.89,1.8-2.9,2.66-2,1.76-4,3.47-6.17,5.1-1.08.81-2.16,1.62-3.26,2.4l-1.64,1.15-1.54,1.07-.56.39a5.94,5.94,0,0,0,5.1,10.56c.93-.28,1.64-.48,2.42-.74l2.24-.79q2.22-.84,4.37-1.8a78.16,78.16,0,0,0,8.4-4.4,71.85,71.85,0,0,0,7.92-5.49,70.15,70.15,0,0,0,7.29-6.67,2.11,2.11,0,0,0,.19-.23l.36-.48a35.6,35.6,0,0,0,3.6-6.22,57.26,57.26,0,0,0,2.27-5.8,93.52,93.52,0,0,0,3-11.14c.79-3.67,1.37-7.31,1.85-10.94.23-1.82.45-3.63.61-5.46l.24-2.74.17-2.86a10.28,10.28,0,0,0-20.5-1.48Z" style="fill:#263238"></path><path d="M324.72,205l-6.56-1.8.19,10.82a19.36,19.36,0,0,0,4.26.07,5.37,5.37,0,0,0,4.64-6.31h0A3.49,3.49,0,0,0,324.72,205Z" style="fill:#ffb573"></path><path d="M310,207.73l.7,3.78a3.13,3.13,0,0,0,3.14,2.56l4.52-.1-.19-10.82-5.61.92A3.14,3.14,0,0,0,310,207.73Z" style="fill:#ffb573"></path><path d="M335.14,415.63h.14a1.49,1.49,0,0,0,1.35-1.63L311.22,139a1.5,1.5,0,1,0-3,.27l25.42,275A1.49,1.49,0,0,0,335.14,415.63Z" style="fill:#263238"></path><path d="M310.4,169.59c.71,0,1.42,0,2.13-.1A22.69,22.69,0,0,0,333,144.84a1.5,1.5,0,1,0-3,.27,19.67,19.67,0,0,1-39.17,3.62,1.5,1.5,0,0,0-3,.28,22.67,22.67,0,0,0,22.53,20.58Z" style="fill:#263238"></path><path d="M374.84,303.4c6.92-28.49,17.56-55.94,19.2-87.93l-21-.34-16.14-.26s-4.72,50.1-6.7,91.07c-.55,11.34,7,43.86,10.54,68.57,1.28,9,4.06,24.25,6.1,29.92l13.84,2.13c0-6.56,3-13.51,1.91-20.67C382.57,363.89,378.21,326.33,374.84,303.4Z" style="fill:#263238"></path><path d="M377.79,292.05c5.39-19.93,11.81-39.71,14.78-61.3C368.79,241.3,369.55,274.55,377.79,292.05Z" style="opacity:0.2"></path><path d="M425.37,387.7c-4.51-24.35-6.94-68.59-11.37-85.13-2.51-28.38,2.11-61.28-5.82-86.93l-39.4-.77s7.87,51.08,18.28,92c1.93,7.57,9.83,45.08,17.24,69.87,2.69,9,5.81,21.92,8.76,27.7L427,406.56C432.73,402.22,426.29,392.68,425.37,387.7Z" style="fill:#263238"></path><path d="M381.17,401.21c-.51,5.35,6.32,15,.32,15H361.32c-4,0-8.57.43-6.5-2.86.92-1.46,12.83-1.93,12-8.95C371.9,398.75,381.17,401.21,381.17,401.21Z" style="fill:#263238"></path><path d="M427.67,401.21c-.51,5.35,6.32,15,.32,15H410c-4,0-8.57.43-6.5-2.86.91-1.46,9.39-4.17,8.55-11.18C417.13,396.51,427.67,401.21,427.67,401.21Z" style="fill:#263238"></path><path d="M400.31,134.06a161.12,161.12,0,0,0-33.39-.14,15.94,15.94,0,0,0-14.25,14.73c-1.22,18.53,4.21,36.9,4.18,66.22,4.86,5.52,30.26,7.68,51.33.77-1-8.31,0-35.21,4.62-65.25A14.19,14.19,0,0,0,400.31,134.06Z" style="fill:#263238"></path><path d="M370.49,157.72c-.12,1.46.37,2.71,1.1,2.77s1.43-1.07,1.56-2.54-.36-2.71-1.09-2.77S370.62,156.25,370.49,157.72Z" style="fill:#fff"></path><path d="M370.49,167.86c0,1.48.67,2.65,1.41,2.63s1.3-1.23,1.26-2.7-.68-2.65-1.41-2.63S370.45,166.39,370.49,167.86Z" style="fill:#fff"></path><path d="M393.12,111.09,379,122.33c1.5,4.09,2.15,8.44-2.4,11a13.11,13.11,0,0,0-6.69,9.33c-.52,3.47-.11,7.12,2.49,9.13,9.22-2.22,19.54-11.59,22.88-16.56C394.06,131.48,392,118,393.12,111.09Z" style="fill:#ffb573"></path><path d="M387.36,115.67,379,122.32a18.86,18.86,0,0,1,1,3.56c3.31.23,7.87-3.07,8-6A11.74,11.74,0,0,0,387.36,115.67Z" style="opacity:0.2"></path><path d="M372.61,90.92l6.29,15.92s-7.29,1-9-.59C368.48,102.92,368.06,93.73,372.61,90.92Z" style="fill:#263238"></path><path d="M395.12,103.29c-1.27,8.75-1.57,13.93-6.39,18-7.25,6.17-17.78,1.14-19.15-7.83-1.24-8.08,1.05-21,10-23.73A12.18,12.18,0,0,1,395.12,103.29Z" style="fill:#ffb573"></path><path d="M370.63,76.22c-.4,7.78,2.88,14.53,6.56,16.75L380,89.71S374.75,86.44,370.63,76.22Z" style="fill:#407BFF"></path><path d="M394.48,107.77c-5.41,2.73-7.33,1.4-7.33,1.4a9,9,0,0,1,2.72-4.8c-2.25-1.37-5-5.54-3.47-9.12-5.75.5-13.91,4.08-15.16-2.25s4.22-8.08,8.27-8.92c.23,1.3-1.61,2.84-1.61,2.84a21.57,21.57,0,0,1,15.53.19,7.29,7.29,0,0,0-2.58,1.81s11.59-.63,8.84,5.12c5.92,1.71,5.79,6.84.48,13.38s-6.81,8.29-4.68,10.41c-2.64.88-5.21-4-3.67-7C394.18,108.71,394.48,107.77,394.48,107.77Z" style="fill:#263238"></path><path d="M403.88,77.92C402.68,85.61,398.1,91.56,394,93L392,89.22S397.76,87.08,403.88,77.92Z" style="fill:#407BFF"></path><path d="M394.49,106.13a.52.52,0,0,0,.47-.34c1.26-3.68,1.6-11.6-2.83-17.2a.49.49,0,0,0-.7-.08.5.5,0,0,0-.09.7c4.7,5.92,3.47,13.92,2.67,16.25a.51.51,0,0,0,.48.67Z" style="fill:#407BFF"></path><path d="M373.63,113.85s3.08-1,11.75-1.69c-1,2.79-2.87,5.16-7.32,5.48A3.8,3.8,0,0,1,373.63,113.85Z" style="fill:#263238"></path><path d="M380.11,115.34a8.38,8.38,0,0,0-4.83,1.71,4.37,4.37,0,0,0,2.78.59,8.34,8.34,0,0,0,4.82-1.71A4.34,4.34,0,0,0,380.11,115.34Z" style="fill:#ff5652"></path><path d="M374,113.74c.25.56.5,1.12,1.37,1.24a45.79,45.79,0,0,0,7.67-1.3,2.7,2.7,0,0,0,1.95-1.49A70.55,70.55,0,0,0,374,113.74Z" style="fill:#fff"></path><path d="M397.59,108.67a7.62,7.62,0,0,1-3.76,4.48c-2.4,1.22-4.15-.79-3.95-3.33.19-2.28,1.66-5.67,4.29-5.84A3.48,3.48,0,0,1,397.59,108.67Z" style="fill:#ffb573"></path><path d="M381.37,103.4c-.06.72-.49,1.27-1,1.22s-.8-.66-.74-1.37.49-1.26.95-1.22S381.42,102.69,381.37,103.4Z" style="fill:#263238"></path><path d="M373.19,103.4c-.06.72-.49,1.27-1,1.22s-.8-.66-.74-1.37.49-1.26,1-1.22S373.25,102.69,373.19,103.4Z" style="fill:#263238"></path><path d="M376,104.37a25.41,25.41,0,0,1-3.93,5.81c1.17,1.3,3.37.95,3.37.95Z" style="fill:#ed893e"></path><path d="M384.16,101.33a.39.39,0,0,0,.21,0,.42.42,0,0,0,.24-.55,4.29,4.29,0,0,0-2.86-2.61.44.44,0,0,0-.5.33.43.43,0,0,0,.33.5h0a3.4,3.4,0,0,1,2.24,2.09A.43.43,0,0,0,384.16,101.33Z" style="fill:#263238"></path><path d="M370.15,100.84a.44.44,0,0,0,.34-.2A3.31,3.31,0,0,1,373,99a.42.42,0,1,0,0-.84,4.14,4.14,0,0,0-3.24,2,.42.42,0,0,0,.14.58A.44.44,0,0,0,370.15,100.84Z" style="fill:#263238"></path><path d="M394.78,153.93l2.71,4,2.73,4.1c1.81,2.73,3.53,5.5,5.19,8.25s3.18,5.52,4.49,8.2c.65,1.34,1.22,2.66,1.72,3.9a21.81,21.81,0,0,1,1,3.25l-.07-.89a48,48,0,0,1,0,8.12,78.83,78.83,0,0,1-1.24,8.64c-.56,2.92-1.29,5.87-2.11,8.81-.41,1.47-.83,2.95-1.3,4.41-.22.73-.46,1.47-.7,2.19l-.68,2.07-.15.47a5.94,5.94,0,0,0,10.56,5.2c.58-.85,1-1.52,1.53-2.28s.93-1.48,1.37-2.23c.88-1.5,1.74-3,2.53-4.56a90.38,90.38,0,0,0,4.28-9.62,76.55,76.55,0,0,0,3.08-10.38,57.38,57.38,0,0,0,1.37-11.31c0-.12,0-.23,0-.34l-.06-.56a37.45,37.45,0,0,0-1.32-6.8,58.19,58.19,0,0,0-2-5.77A102.8,102.8,0,0,0,423,160.45c-1.7-3.27-3.54-6.42-5.44-9.5-1-1.53-1.93-3.06-2.94-4.56l-1.53-2.25-1.65-2.29a10.28,10.28,0,0,0-16.84,11.79Z" style="fill:#263238"></path><path d="M408.13,219.92l-6.08,3,7.35,8a19.35,19.35,0,0,0,3.22-2.8,5.37,5.37,0,0,0-.74-7.8h0A3.52,3.52,0,0,0,408.13,219.92Z" style="fill:#ffb573"></path><path d="M399,231.81l3,2.35a3.14,3.14,0,0,0,4.05-.18l3.3-3.08-7.35-8-3.56,4.43A3.12,3.12,0,0,0,399,231.81Z" style="fill:#ffb573"></path></g></svg>