<svg xmlns="http://www.w3.org/2000/svg" viewBox="0 0 500 500"><g id="freepik--background-simple--inject-21"><path d="M477.65,289.52c-13.32,40.38-42,84.63-84.26,99-63.81,21.77-69.51,74.11-185.34,73.76a233.6,233.6,0,0,1-50.29-5.41A192.77,192.77,0,0,1,134,450C65.33,425.25,27.77,366.39,22.41,303.49c-7.07-82.73,49.23-124.46,85.92-149S186.84,38.49,300.71,38a225.83,225.83,0,0,1,51.69,5.52c38.67,8.87,78.45,30.28,102.35,62.89q2.69,3.67,5.16,7.52C492.14,164,495.82,234.47,477.65,289.52Z" style="fill:#92E3A9"></path><path d="M477.65,289.52c-13.32,40.38-42,84.63-84.26,99-63.81,21.77-69.51,74.11-185.34,73.76a233.6,233.6,0,0,1-50.29-5.41A192.77,192.77,0,0,1,134,450C65.33,425.25,27.77,366.39,22.41,303.49c-7.07-82.73,49.23-124.46,85.92-149S186.84,38.49,300.71,38a225.83,225.83,0,0,1,51.69,5.52c38.67,8.87,78.45,30.28,102.35,62.89q2.69,3.67,5.16,7.52C492.14,164,495.82,234.47,477.65,289.52Z" style="fill:#fff;opacity:0.7000000000000001"></path></g><g id="freepik--Floor--inject-21"><path d="M479.64,439.6H17.48a.5.5,0,0,1,0-1H479.64a.5.5,0,0,1,0,1Z" style="fill:#263238"></path></g><g id="freepik--Window--inject-21"><g style="opacity:0.30000000000000004"><path d="M323.46,241.23H56.9a.5.5,0,0,1-.5-.5V46.24a.5.5,0,0,1,.5-.5H323.46a.5.5,0,0,1,.5.5V240.73A.5.5,0,0,1,323.46,241.23Zm-266.06-1H323V46.74H57.4Z"></path><path d="M181.29,234.32H66.77a.5.5,0,0,1-.5-.5V53.15a.5.5,0,0,1,.5-.5H181.29a.5.5,0,0,1,.5.5V233.82A.5.5,0,0,1,181.29,234.32Zm-114-1H180.79V53.65H67.27Z"></path><path d="M313.59,234.32H198.08a.5.5,0,0,1-.5-.5V53.15a.5.5,0,0,1,.5-.5H313.59a.5.5,0,0,1,.5.5V233.82A.5.5,0,0,1,313.59,234.32Zm-115-1H313.09V53.65H198.58Z"></path><path d="M189.19,239.26a.5.5,0,0,1-.5-.5V48.21a.5.5,0,0,1,1,0V238.76A.5.5,0,0,1,189.19,239.26Z"></path><path d="M185.6,171.47h0a1.61,1.61,0,0,1-1.62-1.62V150.4a1.61,1.61,0,0,1,1.62-1.62h0a1.62,1.62,0,0,1,1.62,1.62v19.45A1.62,1.62,0,0,1,185.6,171.47Z"></path><path d="M185.6,172a2.12,2.12,0,0,1-2.12-2.12V150.4a2.12,2.12,0,0,1,4.24,0v19.45A2.12,2.12,0,0,1,185.6,172Zm0-22.69a1.12,1.12,0,0,0-1.12,1.12v19.45a1.12,1.12,0,0,0,2.24,0V150.4A1.12,1.12,0,0,0,185.6,149.28Z"></path><path d="M193.47,171.47h0a1.62,1.62,0,0,1-1.62-1.62V150.4a1.62,1.62,0,0,1,1.62-1.62h0a1.61,1.61,0,0,1,1.62,1.62v19.45A1.61,1.61,0,0,1,193.47,171.47Z"></path><path d="M193.47,172a2.12,2.12,0,0,1-2.12-2.12V150.4a2.12,2.12,0,0,1,4.24,0v19.45A2.12,2.12,0,0,1,193.47,172Zm0-22.69a1.12,1.12,0,0,0-1.12,1.12v19.45a1.12,1.12,0,0,0,2.24,0V150.4A1.12,1.12,0,0,0,193.47,149.28Z"></path></g></g><g id="freepik--serum-bag--inject-21"><rect x="341.69" y="113.06" width="3.4" height="318.56" transform="translate(686.77 544.69) rotate(180)" style="fill:#fff"></rect><path d="M345.08,432.12h-3.39a.5.5,0,0,1-.5-.5V113.06a.5.5,0,0,1,.5-.5h3.39a.5.5,0,0,1,.5.5V431.62A.5.5,0,0,1,345.08,432.12Zm-2.89-1h2.39V113.56h-2.39Z" style="fill:#263238"></path><rect x="324.29" y="431.5" width="38.49" height="2.21" transform="translate(687.07 865.22) rotate(180)" style="fill:#fff"></rect><path d="M362.78,434.21H324.29a.5.5,0,0,1-.5-.5V431.5a.5.5,0,0,1,.5-.5h38.49a.5.5,0,0,1,.5.5v2.21A.5.5,0,0,1,362.78,434.21Zm-38-1h37.49V432H324.79Z" style="fill:#263238"></path><path d="M323.72,436.37a2.73,2.73,0,1,1,2.72,2.73A2.73,2.73,0,0,1,323.72,436.37Z" style="fill:#263238"></path><path d="M326.44,439.6a3.23,3.23,0,1,1,3.23-3.23A3.23,3.23,0,0,1,326.44,439.6Zm0-5.46a2.23,2.23,0,1,0,2.23,2.23A2.23,2.23,0,0,0,326.44,434.14Z" style="fill:#263238"></path><circle cx="360.42" cy="436.37" r="2.73" style="fill:#263238"></circle><path d="M360.42,439.6a3.23,3.23,0,1,1,3.23-3.23A3.23,3.23,0,0,1,360.42,439.6Zm0-5.46a2.23,2.23,0,1,0,2.23,2.23A2.23,2.23,0,0,0,360.42,434.14Z" style="fill:#263238"></path><path d="M318.18,122a6.89,6.89,0,0,1-6.88-6.88v-.85a1.5,1.5,0,0,1,3,0v.85a3.88,3.88,0,1,0,7.76,0v-1.42a1.5,1.5,0,0,1,1.5-1.5h39.08a1.5,1.5,0,0,1,1.5,1.5v.85a3.88,3.88,0,0,0,3.88,3.88h1.13a3.88,3.88,0,0,0,3.88-3.88v-.85a1.5,1.5,0,0,1,3,0v.85a6.88,6.88,0,0,1-6.88,6.88H368a6.89,6.89,0,0,1-6.85-6.23H325.06A6.88,6.88,0,0,1,318.18,122Z" style="fill:#263238"></path><path d="M317.43,287.83a1,1,0,0,1-1-1V167.19a1,1,0,0,1,2,0V286.83A1,1,0,0,1,317.43,287.83Z" style="fill:#263238"></path><path d="M314.35,118.47a3.88,3.88,0,0,1,5.23-.09l5.55,4.88c2.62,2.29,3.93,3.28,3.93,3.28H305.78Z" style="fill:#fff"></path><path d="M329.06,127H305.78a.5.5,0,0,1-.34-.87L314,118.1a4.36,4.36,0,0,1,5.9-.09c1.81,1.59,4.11,3.62,5.55,4.87,2.57,2.25,3.89,3.25,3.9,3.26a.5.5,0,0,1-.3.9Zm-22-1h20.59c-.66-.54-1.6-1.33-2.83-2.41l-5.55-4.87a3.38,3.38,0,0,0-4.56.07h0Zm7.31-7.57h0Z" style="fill:#263238"></path><path d="M310.59,126.54h13.63a4.84,4.84,0,0,1,4.84,4.84v28.28a0,0,0,0,1,0,0H305.76a0,0,0,0,1,0,0V131.37A4.84,4.84,0,0,1,310.59,126.54Z" transform="translate(634.82 286.19) rotate(180)" style="fill:#fff"></path><path d="M324.22,160.16H310.59a5.34,5.34,0,0,1-5.33-5.34V126.54a.5.5,0,0,1,.5-.5h23.3a.5.5,0,0,1,.5.5v28.28A5.35,5.35,0,0,1,324.22,160.16Zm-18-33.12v27.78a4.34,4.34,0,0,0,4.33,4.34h13.63a4.34,4.34,0,0,0,4.34-4.34V127Z" style="fill:#263238"></path><path d="M311.7,141.07h11.41a4.84,4.84,0,0,1,4.84,4.84v12.17a0,0,0,0,1,0,0H306.87a0,0,0,0,1,0,0V145.91A4.84,4.84,0,0,1,311.7,141.07Z" transform="translate(634.82 299.15) rotate(180)" style="fill:#92E3A9"></path><path d="M323.11,158.58H311.7a5.34,5.34,0,0,1-5.33-5.34V141.07a.5.5,0,0,1,.5-.5H328a.5.5,0,0,1,.5.5v12.17A5.35,5.35,0,0,1,323.11,158.58Zm-15.74-17v11.67a4.34,4.34,0,0,0,4.33,4.34h11.41a4.34,4.34,0,0,0,4.34-4.34V141.57Z" style="fill:#263238"></path><rect x="315.92" y="159.76" width="2.97" height="7.22" transform="translate(634.82 326.73) rotate(180)" style="fill:#92E3A9"></rect><path d="M318.9,167.48h-3a.51.51,0,0,1-.5-.5v-7.22a.5.5,0,0,1,.5-.5h3a.5.5,0,0,1,.5.5V167A.51.51,0,0,1,318.9,167.48Zm-2.48-1h2v-6.22h-2Z" style="fill:#263238"></path><rect x="308.31" y="128.93" width="18.06" height="26.68" transform="translate(634.69 284.55) rotate(180)" style="fill:#fff"></rect><path d="M326.38,156.11H308.31a.5.5,0,0,1-.5-.5V128.93a.51.51,0,0,1,.5-.5h18.07a.51.51,0,0,1,.5.5v26.68A.5.5,0,0,1,326.38,156.11Zm-17.57-1h17.07V129.43H308.81Z" style="fill:#263238"></path><path d="M316.15,120.14a5.37,5.37,0,0,1-3.35-5v-.85" style="fill:#fff"></path><path d="M316.15,121.64a1.6,1.6,0,0,1-.57-.11,6.87,6.87,0,0,1-4.28-6.37v-.85a1.5,1.5,0,0,1,3,0v.85a3.87,3.87,0,0,0,2.41,3.59,1.5,1.5,0,0,1-.56,2.89Z" style="fill:#263238"></path></g><g id="freepik--Plant--inject-21"><path d="M73.51,324.29h0a.08.08,0,0,0-.05-.11.08.08,0,0,0-.11,0,115.86,115.86,0,0,0-6.09,19.09,176.42,176.42,0,0,0-3.36,19.78l-.48,5c-.07.83-.16,1.66-.22,2.5l-.14,2.51c-.07,1.67-.17,3.34-.22,5l0,5,0,2.52c0,.83.1,1.67.16,2.5.12,1.67.23,3.34.38,5,.32,3.33.82,6.65,1.34,9.95a.08.08,0,0,0,.08.07.09.09,0,0,0,.09-.09h0c0-1.68-.08-3.34-.12-5s-.19-3.32-.17-5,0-3.33,0-5l-.05-2.49.05-2.49,0-5,.13-5,.06-2.49c0-.83.09-1.66.14-2.49l.3-5a175.15,175.15,0,0,1,2.82-19.73A115,115,0,0,1,73.51,324.29Z" style="fill:#263238"></path><path d="M74.22,350.33a.09.09,0,0,0,0-.11.1.1,0,0,0-.12,0,119.74,119.74,0,0,0-3.54,12.65,118.08,118.08,0,0,0-2.09,13c-.45,4.35-.93,8.72-1,13.1a108.89,108.89,0,0,0,.46,13.14.11.11,0,0,0,.08.08.1.1,0,0,0,.1-.08c.51-4.36.81-8.72,1.12-13.07s.35-8.7.63-13.06a129.9,129.9,0,0,1,4.4-25.7Z" style="fill:#263238"></path><path d="M88.66,359.49a.09.09,0,0,0-.12,0,44,44,0,0,0-9.66,8.42,38.48,38.48,0,0,0-3.77,5.24l-.78,1.47-.6,1.52a12.18,12.18,0,0,0-.53,1.54c-.16.52-.33,1-.47,1.56a61.36,61.36,0,0,0-2,12.73,73.38,73.38,0,0,0,.48,12.83.09.09,0,0,0,.17,0l1.1-12.69a113.34,113.34,0,0,1,1.61-12.52c.12-.51.26-1,.39-1.52a12.79,12.79,0,0,1,.45-1.49l.51-1.47.67-1.39a37.46,37.46,0,0,1,3.46-5.25,43.31,43.31,0,0,1,9.06-8.82h0A.1.1,0,0,0,88.66,359.49Z" style="fill:#263238"></path><path d="M81.67,375.8a14.11,14.11,0,0,0-4.39,5.27,32.05,32.05,0,0,0-2.46,6.47c-.17.55-.31,1.11-.43,1.68L74,390.9a28.42,28.42,0,0,0-.42,3.43c0,1.16,0,2.31,0,3.45a28.24,28.24,0,0,0,.45,3.43s0,.07.07.07a.09.09,0,0,0,.11-.07,31,31,0,0,0,.6-3.37c.18-1.12.36-2.23.49-3.34s.31-2.21.4-3.33.23-2.22.47-3.31a30.45,30.45,0,0,1,1.89-6.41,14.19,14.19,0,0,1,3.68-5.5h0a.08.08,0,0,0,0-.12A.08.08,0,0,0,81.67,375.8Z" style="fill:#263238"></path><path d="M61.42,388.52c-.47-5.64-1.4-11.22-2.28-16.8S57.29,360.58,56.27,355,54.11,344,52.91,338.44a.1.1,0,0,0-.1-.07.09.09,0,0,0-.07.11q1.44,8.32,2.66,16.7t2.35,16.74c.69,5.59,1.22,11.2,1.92,16.78l2.07,16.78s0,.07.08.08a.09.09,0,0,0,.09-.09c.07-1.41.07-2.83.1-4.24s0-2.83-.08-4.25C61.88,394.15,61.64,391.34,61.42,388.52Z" style="fill:#263238"></path><path d="M58.05,388.43c-.31-2.23-.72-4.45-1.14-6.66l-.79-3.29c-.26-1.1-.51-2.2-.83-3.28A92,92,0,0,0,51,362.38l-.67-1.55-.75-1.51c-.48-1-1.06-2-1.61-3a25.18,25.18,0,0,0-4.07-5.4.09.09,0,0,0-.12,0,.11.11,0,0,0,0,.13h0a24.7,24.7,0,0,1,3.72,5.51c.49,1,1,2,1.43,3l.66,1.54.59,1.56a92.64,92.64,0,0,1,3.75,12.82c.52,2.17.86,4.38,1.28,6.57l.52,3.3c.2,1.1.43,2.19.59,3.3.35,2.2.75,4.4,1.14,6.6s.74,4.42,1.21,6.63a.08.08,0,0,0,.08.07.09.09,0,0,0,.09-.09q0-3.37-.15-6.75C58.55,392.91,58.28,390.68,58.05,388.43Z" style="fill:#263238"></path><path d="M53.38,388.72c-1-3-2.25-5.85-3.57-8.69a78,78,0,0,0-4.49-8.23.11.11,0,0,0-.12,0,.1.1,0,0,0,0,.12A76,76,0,0,1,49,380.38c1.15,2.88,2.18,5.81,3,8.78s1.52,6,2.31,9,1.5,6,2.41,9a.11.11,0,0,0,.09.07.09.09,0,0,0,.09-.09,45.45,45.45,0,0,0-.88-9.38A58,58,0,0,0,53.38,388.72Z" style="fill:#263238"></path><path d="M53.19,398.57a20.7,20.7,0,0,0-2.48-5.2,22,22,0,0,0-3.61-4.49,16.66,16.66,0,0,0-2.3-1.73A9.19,9.19,0,0,0,42.19,386a.09.09,0,0,0,0,.17h0a13.11,13.11,0,0,1,4.32,3.36,20.36,20.36,0,0,1,3,4.56c.85,1.62,1.3,3.41,2,5.07.33.86.65,1.72,1,2.57a22.71,22.71,0,0,0,1.14,2.61h0a.08.08,0,0,0,.08.05.09.09,0,0,0,.09-.09,21.34,21.34,0,0,0-.11-2.88C53.61,400.45,53.41,399.51,53.19,398.57Z" style="fill:#ababab"></path><path d="M53.54,346.51a16,16,0,0,1-11.37-12.08c-2.13-9.94,4.74-5.68-1.42-21.31S36,293.94,38.14,289.44s3.32-3.08,5.21,2.84,8.77,15.16,11.37,32.44S53.54,346.51,53.54,346.51Z" style="fill:#92E3A9"></path><path d="M71.77,329.7s-6.16-2.13-6.39-13.74,4.5-9.23,5.21-23.68,1.65-24.63,4.26-24.86,9.47,7.1,11.84,23.2-3.08,26.76-7.82,31.5S71.77,329.7,71.77,329.7Z" style="fill:#92E3A9"></path><path d="M50.22,360.48S48.8,352,46,347.93s-9-7.58-13-15.39-8.52-11.6-8.28-.47,5.21,16.81,11.36,20.6S50.22,360.48,50.22,360.48Z" style="fill:#92E3A9"></path><path d="M47.62,375.16s-5.69-10.89-14-18.94-14.91-12.08-12.55-8.05,5.21,3.79,9.24,10.89,2.84,12.31,8.52,16.34S47.62,375.16,47.62,375.16Z" style="fill:#92E3A9"></path><path d="M46.91,389.14c-.24-.72-.48-5.92-8.53-10.19s-15.63-2.6-14.68-.47,5.92,5.68,10.89,7.81S46.91,389.14,46.91,389.14Z" style="fill:#92E3A9"></path><path d="M71.3,361s-3.56-4.5-1.66-14,6.16-7.1,10.89-12.07,3.79-5.69,8.53-10.9,9-8.05,10.89-5.92-1,8.77-3.79,12.55-7.34,5.69-9.47,10.42-1.19,12.32-6.63,15.87S71.3,361,71.3,361Z" style="fill:#92E3A9"></path><path d="M83.14,363.56s8.52-9.71,14.68-16.81,8.52-12.55,8.76-7.82,2.13,8.53-2.84,14.68S83.14,363.56,83.14,363.56Z" style="fill:#92E3A9"></path><path d="M78.64,379.19s-.24-3.79,13.26-12.55,19.18-10.42,17.76-6.87-7.34,7.11-13.74,13.5S78.64,379.19,78.64,379.19Z" style="fill:#92E3A9"></path><path d="M54.1,346a.49.49,0,0,1-.49-.41c0-.17-3.2-17.1-6.48-29s-5.42-19.34-5.44-19.41a.5.5,0,0,1,1-.28c0,.07,2.17,7.48,5.45,19.42s6.46,28.94,6.49,29.11a.5.5,0,0,1-.4.58Z" style="fill:#263238"></path><path d="M71.22,330.38l-.14,0a.49.49,0,0,1-.33-.62c0-.19,5.76-18.51,7.63-29.48,1.69-9.91.15-17.55-.86-22.6-.12-.57-.22-1.11-.32-1.61a.5.5,0,1,1,1-.19c.1.5.2,1,.32,1.6,1,5.13,2.59,12.87.87,23-1.88,11-7.61,29.42-7.67,29.61A.5.5,0,0,1,71.22,330.38Z" style="fill:#263238"></path><path d="M49.47,360.63a.51.51,0,0,1-.43-.26A90.52,90.52,0,0,0,40.37,348c-1.33-1.58-2.57-2.94-3.76-4.26-3.43-3.79-6.14-6.79-7.93-11.27a.5.5,0,0,1,.93-.37c1.73,4.31,4.38,7.25,7.74,11,1.2,1.32,2.44,2.7,3.78,4.28a90.24,90.24,0,0,1,8.78,12.51.49.49,0,0,1-.19.68A.45.45,0,0,1,49.47,360.63Z" style="fill:#263238"></path><path d="M71.3,361.46h-.09a.51.51,0,0,1-.41-.58c.08-.47,2-11.55,6.49-17.5,1.75-2.31,4.15-5.08,6.69-8,4-4.64,8.18-9.43,10.33-13a.51.51,0,0,1,.69-.18.51.51,0,0,1,.17.69c-2.2,3.67-6.38,8.49-10.43,13.16-2.53,2.92-4.92,5.68-6.65,8-4.37,5.75-6.28,16.95-6.3,17.07A.5.5,0,0,1,71.3,361.46Z" style="fill:#263238"></path><path d="M46.35,389.38a.53.53,0,0,1-.27-.08c-.08-.06-8-5.21-13.61-8a.5.5,0,0,1,.45-.89c5.64,2.82,13.62,8,13.7,8.06a.5.5,0,0,1,.15.69A.51.51,0,0,1,46.35,389.38Z" style="fill:#263238"></path><path d="M69.52,439.1H59.1a4.55,4.55,0,0,1-4.22-2.81c-3.41-8.16-12.5-31.71-7-38.39,5.22-6.37,27.7-6.37,32.92,0,5.48,6.68-3.62,30.23-7,38.39A4.57,4.57,0,0,1,69.52,439.1Z" style="fill:#263238"></path></g><g id="freepik--character-1--inject-21"><path d="M250.15,421.44l3.76,4.14,12,7.89a7.76,7.76,0,0,1,.75,3v.95A1.68,1.68,0,0,1,265,439.1H230.76a.61.61,0,0,1-.6-.52,54.63,54.63,0,0,1-.67-7c0-3,1.88-12.77,1.88-12.77l17.65-.76Z" style="fill:#fff"></path><path d="M265,439.6H230.76a1.09,1.09,0,0,1-1.09-.94,53,53,0,0,1-.68-7.07c0-3,1.81-12.47,1.89-12.87a.49.49,0,0,1,.47-.4l17.65-.76a.49.49,0,0,1,.5.35l1.09,3.28,3.65,4,12,7.86a.47.47,0,0,1,.18.19,8.36,8.36,0,0,1,.8,3.23v.95A2.19,2.19,0,0,1,265,439.6Zm-33.21-20.3c-.35,1.84-1.8,9.7-1.8,12.29a53.49,53.49,0,0,0,.66,6.92.12.12,0,0,0,.11.09H265a1.18,1.18,0,0,0,1.18-1.18v-.95a7.22,7.22,0,0,0-.64-2.66L253.63,426l-.09-.09-3.76-4.13a.4.4,0,0,1-.1-.18l-1-3Z" style="fill:#263238"></path><path d="M230.16,438.58a.61.61,0,0,0,.6.52H265a1.68,1.68,0,0,0,1.68-1.68v-.95a3.71,3.71,0,0,0,0-.47H229.81C229.94,437.09,230.08,438,230.16,438.58Z" style="fill:#fff"></path><path d="M265,439.6H230.76a1.09,1.09,0,0,1-1.09-.94h0c-.09-.55-.23-1.5-.36-2.6a.51.51,0,0,1,.5-.56h36.84a.5.5,0,0,1,.5.46,4.36,4.36,0,0,1,0,.51v.95A2.19,2.19,0,0,1,265,439.6Zm-34.35-1.09a.12.12,0,0,0,.11.09H265a1.18,1.18,0,0,0,1.18-1.18v-.92H230.37c.11.84.22,1.56.28,2Z" style="fill:#263238"></path><path d="M193.07,418.54l-.59,4.73s-5.77,11.39-6.21,12.58a7.34,7.34,0,0,0,0,3.25h25.29s1-5.92-.3-9.17-.93-8.69-.93-8.69l-.69-2.7S196.77,416.91,193.07,418.54Z" style="fill:#fff"></path><path d="M211.56,439.6H186.27a.49.49,0,0,1-.49-.39,7.85,7.85,0,0,1,0-3.54c.43-1.16,5.64-11.46,6.19-12.54l.59-4.65a.49.49,0,0,1,.29-.4c3.78-1.66,16.3-.1,16.83,0a.51.51,0,0,1,.42.38l.7,2.69a1,1,0,0,1,0,.17c0,.05-.37,5.35.9,8.46,1.37,3.35.37,9.2.32,9.45A.49.49,0,0,1,211.56,439.6Zm-24.87-1h24.44c.2-1.38.73-5.88-.33-8.48-1.28-3.14-1-8.11-1-8.83l-.59-2.29c-2-.24-12.22-1.35-15.71-.1l-.55,4.44a1,1,0,0,1,0,.16c-2,3.93-5.85,11.61-6.19,12.52A5.91,5.91,0,0,0,186.69,438.6Zm5.79-15.33h0Z" style="fill:#263238"></path><path d="M186.27,439.1h25.29a29.09,29.09,0,0,0,.34-3.25H186.27A7.34,7.34,0,0,0,186.27,439.1Z" style="fill:#fff"></path><path d="M211.56,439.6H186.27a.49.49,0,0,1-.49-.39,7.85,7.85,0,0,1,0-3.54.5.5,0,0,1,.47-.32H211.9a.48.48,0,0,1,.5.52,29.19,29.19,0,0,1-.35,3.32A.49.49,0,0,1,211.56,439.6Zm-24.87-1h24.44c.07-.46.17-1.28.24-2.25H186.65A6.75,6.75,0,0,0,186.69,438.6Z" style="fill:#263238"></path><path d="M255.41,283.2s-4.88,76.64-4.13,90.54-1.13,47.7-1.13,47.7a73.84,73.84,0,0,0-8.26,1.88c-1.88.75-11.34,1.51-11.34,1.51a94.4,94.4,0,0,1-1.06-9.77,87.47,87.47,0,0,1,.75-10.52c.38-2.25-6-99.55-6-99.55l-3.76,1.88-9.76,110.07-.38,7.51L199.06,423l-7.32,1.61s-1.32-10.25-.94-12.51,2.25-13.14,2.25-13.14l-3.38-116.08S238.13,285.08,255.41,283.2Z" style="fill:#92E3A9"></path><path d="M230.55,425.33a.51.51,0,0,1-.5-.42,94.5,94.5,0,0,1-1.06-9.85,86.57,86.57,0,0,1,.76-10.6c.27-1.95-3.76-65-6-98.69L221,307.19,211.21,417l-.38,7.5a.47.47,0,0,1-.18.35.54.54,0,0,1-.38.12l-11.19-1.5-7.23,1.6a.51.51,0,0,1-.61-.42c-.05-.43-1.32-10.36-.94-12.66s2.26-13.15,2.26-13.15l-3.39-116a.51.51,0,0,1,.15-.37.44.44,0,0,1,.37-.14c.49,0,48.62,2.23,65.67.38a.5.5,0,0,1,.4.13.52.52,0,0,1,.15.39c0,.77-4.87,76.77-4.13,90.48s-1.11,47.42-1.13,47.76a.5.5,0,0,1-.41.47,71.6,71.6,0,0,0-8.17,1.85c-1.92.77-11.1,1.51-11.48,1.54Zm-6.32-120.84a.45.45,0,0,1,.25.07.48.48,0,0,1,.25.4c.26,4,6.39,97.38,6,99.66a88.44,88.44,0,0,0-.74,10.44,88,88,0,0,0,1,9.23c2.9-.24,9.33-.87,10.73-1.43a65.56,65.56,0,0,1,8-1.84c.21-3.83,1.81-34.35,1.11-47.26-.71-13.12,3.64-82.83,4.09-90-16.59,1.65-59.38-.18-64.68-.41l3.36,115.54c0,.1-1.88,11-2.26,13.24-.27,1.65.42,8.16.88,11.83l6.78-1.5a.55.55,0,0,1,.18,0l10.73,1.43.35-7L220,306.83a.5.5,0,0,1,.27-.41l3.76-1.88A.54.54,0,0,1,224.23,304.49Z" style="fill:#263238"></path><polygon points="269.39 203 273.78 230.12 271.98 233.22 258.8 223.66 255.96 207.39 269.39 203" style="fill:#b5b5b5"></polygon><path d="M272,233.72a.53.53,0,0,1-.3-.09l-13.17-9.56a.48.48,0,0,1-.2-.32l-2.84-16.27a.49.49,0,0,1,.33-.56l13.44-4.4a.53.53,0,0,1,.41,0,.54.54,0,0,1,.24.35L274.28,230a.53.53,0,0,1-.06.33l-1.81,3.1a.48.48,0,0,1-.33.24Zm-12.72-10.34,12.56,9.11,1.44-2.46L269,203.66l-12.46,4.07Z" style="fill:#263238"></path><polygon points="257.21 210.94 269.81 208.69 269.81 205.77 258.54 207.91 257.21 210.94" style="fill:#263238"></polygon><path d="M257.21,211.44a.51.51,0,0,1-.39-.19.52.52,0,0,1-.07-.51l1.33-3a.52.52,0,0,1,.37-.29l11.27-2.14a.5.5,0,0,1,.41.1.5.5,0,0,1,.18.39v2.92a.49.49,0,0,1-.41.49l-12.6,2.25Zm1.68-3.09-.84,1.94,11.26-2v-1.9Z" style="fill:#263238"></path><path d="M220.83,149.53s-.78,10.33-.78,12.14-14.46,4.65-21.44,10.07c-3.92,3-8.78,9.56-8.78,13.44s2.07,55.53,2.07,55.53l-3.73,45.12s17.08,4.55,30.51,5.84,39-6.21,39-6.21-2-41.39-2-44.23-.52-10.33-.52-10.33l2.33-21.7,1-1.29,15.76-3.1s-4.19-14.59-11.11-25.32c-5.16-8-20.92-13.17-22.47-13.69l-1.55-.51-.52-5.43S224.7,154.44,220.83,149.53Z" style="fill:#92E3A9"></path><path d="M222,292.32c-1.19,0-2.33-.05-3.4-.15-13.32-1.28-30.42-5.81-30.59-5.85a.52.52,0,0,1-.37-.53l3.73-45.12c0-.45-2.07-51.65-2.07-55.49,0-4.25,5.23-10.92,9-13.83,4-3.09,10.38-5.37,15.06-7,2.79-1,5.95-2.12,6.19-2.68,0-1.77.74-11.72.77-12.14a.52.52,0,0,1,.35-.44.51.51,0,0,1,.54.17C225,154,238.7,159.34,238.83,159.4a.49.49,0,0,1,.32.41l.49,5.1,1.24.42c4.16,1.38,17.91,6.41,22.73,13.89,6.88,10.66,11.13,25.3,11.17,25.45a.51.51,0,0,1,0,.4.55.55,0,0,1-.33.23l-15.58,3.06-.83,1L255.68,231c0,.22.52,7.45.52,10.28s1.94,43.79,2,44.2a.51.51,0,0,1-.35.51C257.57,286,235.91,292.32,222,292.32Zm-33.33-6.87c2.66.69,17.93,4.56,30,5.72,12.29,1.19,35.2-5.17,38.42-6.09-.22-4.49-1.95-41.14-1.95-43.85s-.51-10.22-.51-10.3L257,209.15a.47.47,0,0,1,.11-.26l1-1.3a.51.51,0,0,1,.3-.17l15.21-3c-.82-2.69-4.82-15.25-10.89-24.66-4.65-7.2-18.13-12.13-22.15-13.46l-1.61-.54a.5.5,0,0,1-.34-.43l-.49-5.12c-1.94-.77-12.59-5.13-16.94-9.48-.2,2.76-.69,9.53-.69,10.94,0,1.1-2,1.85-6.85,3.58-4.61,1.65-10.93,3.9-14.78,6.89s-8.59,9.46-8.59,13c0,3.82,2,55,2.07,55.51Z" style="fill:#263238"></path><path d="M239.17,165.29l-.52-5.43s-14-5.42-17.82-10.33c0,0-.78,10.33-.78,12.14,0,.71-2.23,1.58-5.36,2.7,3.25,4.61,11.42,16.12,13.89,19a61.58,61.58,0,0,1,6.2,9.56l9.3-25.93c-1.73-.66-3-1.07-3.36-1.2Z" style="fill:#b5b5b5"></path><path d="M234.78,193.43a.52.52,0,0,1-.45-.27,61.89,61.89,0,0,0-6.13-9.47c-2.47-2.88-10.55-14.27-13.92-19a.49.49,0,0,1-.06-.44.47.47,0,0,1,.31-.32c1.55-.56,4.8-1.72,5-2.27,0-1.77.74-11.72.77-12.14a.52.52,0,0,1,.35-.44.51.51,0,0,1,.54.17C225,154,238.7,159.34,238.83,159.4a.49.49,0,0,1,.32.41l.49,5.1,1.24.42c.52.17,1.72.57,3.38,1.21a.48.48,0,0,1,.29.63l-9.3,25.92a.5.5,0,0,1-.44.33Zm-19.3-28.81c3.55,5,11.12,15.67,13.48,18.42a58.36,58.36,0,0,1,5.73,8.66l8.76-24.4c-1.4-.53-2.42-.87-2.82-1l-1.62-.54a.5.5,0,0,1-.34-.43l-.49-5.12c-1.94-.77-12.59-5.13-16.94-9.48-.2,2.76-.69,9.53-.69,10.94C220.55,162.59,219.27,163.24,215.48,164.62Z" style="fill:#263238"></path><path d="M239.11,164.7l-.46-4.84s-14-5.42-17.82-10.33c0,0-.12,1.58-.26,3.62,1,2.08,7,14.12,12.07,13.91A12.27,12.27,0,0,0,239.11,164.7Z" style="fill:#263238"></path><path d="M232.52,167.57c-5.18,0-10.8-10.85-12.41-14.21a.51.51,0,0,1,0-.25c.14-2,.26-3.62.26-3.62a.52.52,0,0,1,.35-.44.51.51,0,0,1,.54.17C225,154,238.7,159.34,238.83,159.4a.49.49,0,0,1,.32.41l.46,4.84a.49.49,0,0,1-.21.46,12.66,12.66,0,0,1-6.74,2.45Zm-11.45-14.52c3.07,6.35,7.87,13.66,11.55,13.51a11.59,11.59,0,0,0,6-2.11l-.41-4.24c-1.94-.77-12.59-5.13-16.94-9.48C221.2,151.34,221.14,152.15,221.07,153.05Z" style="fill:#263238"></path><path d="M253.38,213.07s16.53,12.66,19.11,14.73,2.33,5.42.52,8.52-10.33,6.46-13.18,4.14-9.3-15-10.07-16.54-3.36-8.26-3.36-8.26Z" style="fill:#b5b5b5"></path><path d="M262.58,241.73a4.81,4.81,0,0,1-3.06-.89c-3.11-2.54-10.14-16.55-10.21-16.69-.77-1.56-3.27-8-3.37-8.31a.48.48,0,0,1,0-.39.45.45,0,0,1,.28-.26l7-2.59a.49.49,0,0,1,.48.08c.17.12,16.57,12.68,19.12,14.73s2.8,5.47.64,9.16c-1.21,2.08-5.2,4.3-8.9,5A11,11,0,0,1,262.58,241.73ZM247.05,216c.6,1.55,2.52,6.48,3.16,7.75,1.93,3.87,7.5,14.37,9.94,16.37.81.66,2.3.83,4.21.49,3.39-.61,7.15-2.67,8.22-4.49,1.88-3.23,1.73-6.18-.4-7.88-2.39-1.91-16.92-13.05-18.89-14.55Z" style="fill:#263238"></path><path d="M252.08,208.17a53.13,53.13,0,0,0-8.52-3.62c-3.1-.78-6.72,6.46-6.72,6.46l16.28-.26Z" style="fill:#b5b5b5"></path><path d="M236.84,211.51a.49.49,0,0,1-.42-.24.5.5,0,0,1,0-.49c.39-.77,3.88-7.57,7.28-6.72a54.48,54.48,0,0,1,8.64,3.66.53.53,0,0,1,.23.26l1,2.58a.49.49,0,0,1-.05.47.5.5,0,0,1-.4.22l-16.28.26Zm6.24-6.52c-1.92,0-4.25,3.45-5.4,5.5l14.7-.23-.69-1.74a52.06,52.06,0,0,0-8.25-3.49A1.47,1.47,0,0,0,243.08,205Z" style="fill:#263238"></path><polygon points="228.32 207.91 215.66 238.39 244.59 238.39 257.51 207.65 228.32 207.91" style="fill:#263238"></polygon><path d="M244.59,238.89H215.66a.5.5,0,0,1-.46-.69l12.66-30.48a.49.49,0,0,1,.46-.31l29.19-.26a.55.55,0,0,1,.41.22.47.47,0,0,1,.05.47l-12.92,30.74A.48.48,0,0,1,244.59,238.89Zm-28.18-1h27.85l12.49-29.73-28.1.24Z" style="fill:#263238"></path><path d="M206.36,226.76s11.89-8.52,13.44-9,5.68-1.55,5.68-1.55l-1.81,3.62,8.52.26s1.55-.26,1.3,2.32-4.65,3.1-4.65,3.1-2.07,8-5.69,8.79-16,0-16,0-24,15.49-27.13,11.1-.51-41.59-.51-41.59l17.31,3.88-.52,19.89Z" style="fill:#b5b5b5"></path><path d="M182,246.59a2.75,2.75,0,0,1-2.4-.94c-3.17-4.48-.72-40.38-.61-41.91a.49.49,0,0,1,.2-.37.5.5,0,0,1,.41-.08l17.3,3.87a.5.5,0,0,1,.4.5L196.8,227l9.39-.72c1.65-1.19,11.91-8.52,13.45-9s5.55-1.52,5.72-1.56a.5.5,0,0,1,.51.17.52.52,0,0,1,.06.54l-1.46,2.91,7.74.24a1.46,1.46,0,0,1,1.17.41,2.83,2.83,0,0,1,.6,2.46c-.25,2.52-3.64,3.31-4.75,3.5-.44,1.55-2.49,8.08-6,8.82s-14.44.12-16,0C204.64,236.46,188.59,246.59,182,246.59Zm-2-42.2c-.73,10.71-2,37.27.46,40.69,2.06,2.91,17.31-5.35,26.45-11.24a.46.46,0,0,1,.3-.08c.12,0,12.37.76,15.88,0,2.71-.59,4.75-6.28,5.3-8.42a.49.49,0,0,1,.43-.37s4-.5,4.21-2.66a2.06,2.06,0,0,0-.29-1.62.54.54,0,0,0-.43-.16l-8.62-.25a.52.52,0,0,1-.41-.24.51.51,0,0,1,0-.48l1.32-2.64c-1.33.34-3.55.92-4.59,1.27s-8.54,5.56-13.3,9a.45.45,0,0,1-.25.09l-10.07.78a.5.5,0,0,1-.54-.51l.5-19.48Zm26.4,22.37h0Z" style="fill:#263238"></path><polygon points="179.35 208.92 196.68 211.62 196.68 210.27 179.57 205.54 179.35 208.92" style="fill:#263238"></polygon><path d="M196.68,212.12h-.08l-17.33-2.7a.5.5,0,0,1-.42-.53l.23-3.37a.51.51,0,0,1,.2-.38.54.54,0,0,1,.43-.07l17.1,4.73a.49.49,0,0,1,.37.48v1.35a.53.53,0,0,1-.18.38A.47.47,0,0,1,196.68,212.12Zm-16.8-3.63,16.3,2.54v-.38L180,206.19Z" style="fill:#263238"></path><line x1="196.29" y1="227.54" x2="185.7" y2="227.8" style="fill:#fff"></line><path d="M185.7,228.3a.5.5,0,0,1-.5-.49.49.49,0,0,1,.49-.51l10.59-.26a.48.48,0,0,1,.51.49.5.5,0,0,1-.49.51l-10.59.26Z" style="fill:#263238"></path><path d="M204.81,169.16s-11.62,1-18.85,7c-2.13,1.75-11.37,28.16-11.37,28.16l23.51,5.94,1.81-9" style="fill:#92E3A9"></path><path d="M198.1,210.73H198l-23.5-5.94a.54.54,0,0,1-.32-.25.47.47,0,0,1,0-.4c.95-2.72,9.35-26.6,11.52-28.38,7.27-6,18.65-7,19.13-7.09a.5.5,0,0,1,.09,1c-.12,0-11.56,1.09-18.59,6.86-1.45,1.19-7.32,16.85-11,27.42l22.47,5.68,1.71-8.53a.48.48,0,0,1,.58-.39.51.51,0,0,1,.4.59l-1.81,9a.55.55,0,0,1-.23.33A.48.48,0,0,1,198.1,210.73Z" style="fill:#263238"></path><path d="M218.83,134.4s-3.22-4.84-4.51,0,0,6.86,1.92,8.15,2.59,1.21,2.59,1.21.33,6.45,2.59,10.65,7.42,9,12.26,9.36,8.07-3.23,9.68-5.49,6.78-14.84,6.78-21-.65-17.43-3.87-21-13.88-6.78-21.63-3.55S217.87,131.17,218.83,134.4Z" style="fill:#b5b5b5"></path><path d="M234.29,164.29l-.64,0c-5.05-.34-10.3-5.21-12.67-9.62-2-3.69-2.51-9-2.62-10.46A8.47,8.47,0,0,1,216,143c-2.62-1.75-3.28-4.43-2.14-8.7.41-1.51,1.06-2.35,2-2.5a2.81,2.81,0,0,1,2.2.9c-.69-5.19-.67-17.38,6.46-20.35,7.93-3.31,18.76-.1,22.19,3.67,3.71,4.09,4,17.35,4,21.32,0,6.27-5.24,19-6.87,21.26C241.09,162.32,237.82,164.29,234.29,164.29Zm-15.42-21a.44.44,0,0,1,.3.12.43.43,0,0,1,.16.35c0,.07.35,6.4,2.53,10.44,2.28,4.24,7.33,8.8,11.85,9.1,4.32.29,7.41-2.71,9.24-5.28,1.55-2.16,6.69-14.71,6.69-20.68,0-8-1-17.61-3.74-20.65-3.17-3.48-13.64-6.51-21.06-3.42-7.26,3-6.55,17.6-5.53,21a.5.5,0,0,1-.89.42c-.54-.81-1.69-2-2.47-1.92-.46.07-.87.7-1.15,1.77-1.29,4.83.15,6.55,1.72,7.6a5.55,5.55,0,0,0,2.29,1.13Z" style="fill:#263238"></path><path d="M233.83,139.19c0,1.19-.54,2.14-1.2,2.14s-1.21-1-1.21-2.14.54-2.13,1.21-2.13S233.83,138,233.83,139.19Z" style="fill:#263238"></path><path d="M246.66,139.19c0,1.19-.54,2.14-1.2,2.14s-1.21-1-1.21-2.14.54-2.13,1.21-2.13S246.66,138,246.66,139.19Z" style="fill:#263238"></path><path d="M240.65,124.22a31.39,31.39,0,0,0,8.27-1.26c-.59-2.85-1.44-5.29-2.65-6.63-3.23-3.55-13.88-6.78-21.63-3.55s-6.77,18.39-5.81,21.62h0a2,2,0,0,0,2.59-2.14l0-.28s3.78-2.51,3.78-5.19,0-5.24,0-5.24S235.83,124.22,240.65,124.22Z" style="fill:#263238"></path><path d="M217.8,133.18l1,1.22A7.84,7.84,0,0,0,217.8,133.18Z" style="fill:#263238"></path><path d="M236.66,148.68a7.31,7.31,0,0,1-4.29-1.8.5.5,0,0,1,.66-.75,6.46,6.46,0,0,0,3.63,1.55c1.74,0,3.7-.65,3.88-2.07s-.69-7.11-1-9.23a.5.5,0,0,1,1-.16c0,.32,1.26,7.8,1,9.52C241.28,147.77,238.9,148.68,236.66,148.68Z" style="fill:#263238"></path><path d="M236,153.3a8,8,0,0,1-4.47-1.4.5.5,0,1,1,.61-.79,6.8,6.8,0,0,0,7.76,0,.5.5,0,0,1,.54.84A8.22,8.22,0,0,1,236,153.3Z" style="fill:#263238"></path><path d="M235,135.38a1,1,0,0,1-.52-.14,7.92,7.92,0,0,0-7-.36,1,1,0,0,1-.83-1.83,10,10,0,0,1,8.85.48,1,1,0,0,1-.52,1.85Z" style="fill:#263238"></path><path d="M247.86,135.92a1,1,0,0,1-.61-.22c-2.32-1.81-5-.21-5.11-.14a1,1,0,0,1-1.06-1.7c.16-.1,4-2.42,7.4.27a1,1,0,0,1-.62,1.79Z" style="fill:#263238"></path></g><g id="freepik--character-2--inject-21"><rect x="166" y="266.72" width="3.3" height="67.6" style="fill:#263238"></rect><path d="M169.3,334.81H166a.5.5,0,0,1-.5-.5V266.72a.5.5,0,0,1,.5-.5h3.3a.5.5,0,0,1,.5.5v67.59A.5.5,0,0,1,169.3,334.81Zm-2.8-1h2.3V267.22h-2.3Z" style="fill:#263238"></path><rect x="200.62" y="266.72" width="3.3" height="67.6" style="fill:#263238"></rect><path d="M203.92,334.81h-3.3a.5.5,0,0,1-.5-.5V266.72a.5.5,0,0,1,.5-.5h3.3a.5.5,0,0,1,.5.5v67.59A.5.5,0,0,1,203.92,334.81Zm-2.8-1h2.3V267.22h-2.3Z" style="fill:#263238"></path><rect x="235.24" y="266.72" width="3.3" height="67.6" style="fill:#263238"></rect><path d="M238.54,334.81h-3.3a.5.5,0,0,1-.5-.5V266.72a.5.5,0,0,1,.5-.5h3.3a.5.5,0,0,1,.5.5v67.59A.5.5,0,0,1,238.54,334.81Zm-2.8-1H238V267.22h-2.3Z" style="fill:#263238"></path><rect x="269.87" y="266.72" width="3.3" height="67.6" style="fill:#263238"></rect><path d="M273.16,334.81h-3.29a.5.5,0,0,1-.5-.5V266.72a.5.5,0,0,1,.5-.5h3.29a.5.5,0,0,1,.5.5v67.59A.5.5,0,0,1,273.16,334.81Zm-2.79-1h2.29V267.22h-2.29Z" style="fill:#263238"></path><rect x="304.49" y="266.72" width="3.3" height="67.6" style="fill:#263238"></rect><path d="M307.79,334.81h-3.3a.5.5,0,0,1-.5-.5V266.72a.5.5,0,0,1,.5-.5h3.3a.5.5,0,0,1,.5.5v67.59A.5.5,0,0,1,307.79,334.81Zm-2.8-1h2.3V267.22H305Z" style="fill:#263238"></path><rect x="155.28" y="260.12" width="176.41" height="6.59" style="fill:#263238"></rect><path d="M331.69,267.22H155.28a.51.51,0,0,1-.5-.5v-6.6a.51.51,0,0,1,.5-.5H331.69a.5.5,0,0,1,.5.5v6.6A.5.5,0,0,1,331.69,267.22Zm-175.91-1H331.19v-5.6H155.78Z" style="fill:#263238"></path><path d="M461.06,267.41a232.31,232.31,0,0,0-126.36-.08,8.29,8.29,0,0,0-6,8v67.24h15.66v-4.08a7.47,7.47,0,0,1,7.47-7.46h86.46a7.47,7.47,0,0,1,7.47,7.46v4.08H467.1V275.39A8.3,8.3,0,0,0,461.06,267.41ZM339.32,291.63v-11a6.64,6.64,0,0,1,5.12-6.31c4-1.07,8.09-2,12.17-2.81C351.08,282.29,344.51,288.32,339.32,291.63Zm80.84-13.37c-20.61-4.95-51.11,0-51.11,0V269.4a210.11,210.11,0,0,1,51.11-.77ZM456.43,293c-12.15-6.6-18.37-15-21.52-22.28,5.51,1,11,2.17,16.42,3.61a6.64,6.64,0,0,1,5.1,6.31Z" style="fill:#fff"></path><path d="M467.1,343.06H445.72a.5.5,0,0,1-.5-.5v-4.08a7,7,0,0,0-7-7H351.79a7,7,0,0,0-7,7v4.08a.5.5,0,0,1-.5.5H328.66a.5.5,0,0,1-.5-.5V275.32a8.84,8.84,0,0,1,6.41-8.48,232.81,232.81,0,0,1,126.63.09h0a8.81,8.81,0,0,1,6.4,8.46v67.17A.51.51,0,0,1,467.1,343.06Zm-20.88-1H466.6V275.39a7.82,7.82,0,0,0-5.67-7.5h0a231.72,231.72,0,0,0-126.09-.08,7.83,7.83,0,0,0-5.68,7.51v66.74h14.66v-3.58a8,8,0,0,1,8-8h86.46a8,8,0,0,1,8,8Zm10.21-48.53a.46.46,0,0,1-.23-.06c-10.38-5.64-17.69-13.22-21.75-22.52a.52.52,0,0,1,.06-.51.54.54,0,0,1,.49-.19c5.74,1,11.27,2.26,16.46,3.63a7.16,7.16,0,0,1,5.47,6.79V293a.51.51,0,0,1-.24.43A.59.59,0,0,1,456.43,293.53Zm-20.68-22.12c3.94,8.49,10.72,15.47,20.18,20.77V280.67a6.15,6.15,0,0,0-4.73-5.82C446.33,273.55,441.13,272.4,435.75,271.41Zm-96.43,20.72a.53.53,0,0,1-.24-.06.51.51,0,0,1-.26-.44v-11a7.17,7.17,0,0,1,5.49-6.81c3.86-1,8-2,12.2-2.81a.5.5,0,0,1,.5.19.51.51,0,0,1,.05.53C351.27,283,344.37,289,339.59,292.05A.43.43,0,0,1,339.32,292.13Zm16.36-19.94c-3.85.79-7.59,1.66-11.12,2.59a6.16,6.16,0,0,0-4.74,5.84v10.09C344.31,287.68,350.41,282.1,355.68,272.19Zm13.37,6.57a.47.47,0,0,1-.32-.12.53.53,0,0,1-.18-.38V269.4a.5.5,0,0,1,.43-.49,211.17,211.17,0,0,1,51.24-.78.5.5,0,0,1,.44.5v9.63a.49.49,0,0,1-.19.39.46.46,0,0,1-.42.09c-20.28-4.86-50.61,0-50.92,0Zm.5-8.92v7.84c4.28-.64,31.23-4.36,50.11-.05v-8.55A209.49,209.49,0,0,0,369.55,269.84Z" style="fill:#263238"></path><path d="M455.27,267.41a232.31,232.31,0,0,0-126.36-.08,8.28,8.28,0,0,0-6,8v67.24h15.66v-4.08A7.46,7.46,0,0,1,346,331h86.46a7.46,7.46,0,0,1,7.46,7.46v4.08H461.3V275.39A8.29,8.29,0,0,0,455.27,267.41ZM333.53,291.63v-11a6.64,6.64,0,0,1,5.11-6.31c4-1.07,8.1-2,12.18-2.81C345.28,282.29,338.72,288.32,333.53,291.63Zm80.84-13.37c-20.61-4.95-51.11,0-51.11,0V269.4a210.11,210.11,0,0,1,51.11-.77ZM450.64,293c-12.15-6.6-18.37-15-21.53-22.28,5.52,1,11,2.17,16.43,3.61a6.64,6.64,0,0,1,5.1,6.31Z" style="fill:#fff"></path><path d="M461.3,343.06H439.92a.51.51,0,0,1-.5-.5v-4.08a7,7,0,0,0-7-7H346a7,7,0,0,0-7,7v4.08a.51.51,0,0,1-.5.5H322.87a.5.5,0,0,1-.5-.5V275.32a8.84,8.84,0,0,1,6.4-8.48,232.84,232.84,0,0,1,126.64.09h0a8.83,8.83,0,0,1,6.39,8.46v67.17A.5.5,0,0,1,461.3,343.06Zm-20.88-1H460.8V275.39a7.83,7.83,0,0,0-5.67-7.5h0a231.69,231.69,0,0,0-126.08-.08,7.82,7.82,0,0,0-5.68,7.51v66.74H338v-3.58a8,8,0,0,1,8-8h86.46a8,8,0,0,1,8,8Zm10.22-48.53a.53.53,0,0,1-.24-.06C440,287.83,432.71,280.25,428.66,271a.49.49,0,0,1,.06-.51.53.53,0,0,1,.48-.19c5.74,1,11.28,2.26,16.46,3.63a7.15,7.15,0,0,1,5.48,6.79V293a.51.51,0,0,1-.24.43A.59.59,0,0,1,450.64,293.53ZM430,271.41c3.94,8.49,10.72,15.47,20.18,20.77V280.67a6.16,6.16,0,0,0-4.73-5.82C440.53,273.55,435.34,272.4,430,271.41Zm-96.43,20.72a.53.53,0,0,1-.24-.06.51.51,0,0,1-.26-.44v-11a7.17,7.17,0,0,1,5.49-6.81c3.86-1,8-2,12.2-2.81a.5.5,0,0,1,.54.72C345.48,283,338.57,289,333.8,292.05A.45.45,0,0,1,333.53,292.13Zm16.36-19.94c-3.86.79-7.59,1.66-11.12,2.59a6.16,6.16,0,0,0-4.74,5.84v10.09C338.52,287.68,344.62,282.1,349.89,272.19Zm13.37,6.57a.49.49,0,0,1-.5-.5V269.4a.49.49,0,0,1,.43-.49,211.09,211.09,0,0,1,51.23-.78.5.5,0,0,1,.45.5v9.63a.49.49,0,0,1-.19.39.48.48,0,0,1-.43.09c-20.27-4.86-50.61,0-50.91,0Zm.5-8.92v7.84c4.28-.64,31.23-4.36,50.11-.05v-8.55A209.49,209.49,0,0,0,363.76,269.84Z" style="fill:#263238"></path><rect x="340.18" y="297.22" width="96.45" height="24.73" style="fill:#92E3A9"></rect><path d="M436.63,322.45H340.18a.5.5,0,0,1-.5-.5V297.22a.5.5,0,0,1,.5-.5h96.45a.5.5,0,0,1,.5.5V322A.51.51,0,0,1,436.63,322.45Zm-95.95-1h95.45V297.72H340.68Z" style="fill:#263238"></path><polygon points="446.38 215.68 335.06 215.68 275.13 322.96 393.38 319.39 446.38 215.68" style="fill:#92E3A9"></polygon><path d="M275.13,323.46a.5.5,0,0,1-.43-.24.52.52,0,0,1,0-.51l59.93-107.28a.5.5,0,0,1,.43-.25H446.38a.49.49,0,0,1,.42.24.48.48,0,0,1,0,.48l-53,103.72a.49.49,0,0,1-.43.27l-118.26,3.57Zm60.22-107.28L276,322.43l117.08-3.53,52.49-102.72Z" style="fill:#263238"></path><rect x="182.64" y="319.39" width="212.38" height="14.01" style="fill:#92E3A9"></rect><path d="M395,333.91H182.64a.5.5,0,0,1-.5-.5v-14a.5.5,0,0,1,.5-.5H395a.5.5,0,0,1,.5.5v14A.5.5,0,0,1,395,333.91Zm-211.88-1H394.52v-13H183.14Z" style="fill:#263238"></path><polygon points="446.38 229.69 393.38 333.41 393.38 319.39 446.38 215.68 446.38 229.69" style="fill:#92E3A9"></polygon><path d="M393.38,333.91l-.11,0a.49.49,0,0,1-.39-.48v-14a.43.43,0,0,1,.06-.22l53-103.72a.5.5,0,0,1,.56-.26.51.51,0,0,1,.39.49v14a.46.46,0,0,1-.06.23l-53,103.71A.51.51,0,0,1,393.38,333.91Zm.5-14.4v11.82l52-101.76V217.75Zm52.5-89.82Z" style="fill:#263238"></path><path d="M356.85,203.92s42.12-3.86,53.33-1.52l4.24.52s4.39-1.12,6.16.3,0,2.91-.2,4.21a26.46,26.46,0,0,1-.65,3s.83,13.77-2,23.1S406.24,256,406.24,256s1,3.44.19,4.81-2.68-1-2.68-1-19.64.17-37,.41-26-1.73-26-1.73-4.32,1.75-5.34,1.22,1.6-3.08,1.6-3.08,1.08-5,3.53-15.2,10.92-30.48,10.92-30.48-1.21-8.25,2.08-7.64Z" style="fill:#fff"></path><path d="M405.76,261.73a3.65,3.65,0,0,1-2.25-1.43c-2.29,0-20.62.18-36.77.41-16,.24-24.67-1.45-25.92-1.71-1.21.48-4.53,1.71-5.62,1.14a.91.91,0,0,1-.5-.69c-.14-1,1.28-2.49,1.88-3.08.19-.89,1.3-5.88,3.5-15.06,2.32-9.75,10.16-28.7,10.88-30.44-.14-1-.7-6,1-7.57a1.89,1.89,0,0,1,1.73-.49l3.22.6c2.53-.23,42.38-3.81,53.41-1.5l4.11.5c.68-.16,4.69-1,6.5.43,1.54,1.24.88,2.6.4,3.59a3.92,3.92,0,0,0-.41,1.07c-.17,1.18-.55,2.6-.64,3,.06,1.18.67,14.26-2.07,23.19-2.67,8.67-10.32,20.76-11.39,22.42.23.86.89,3.64.08,5a1.26,1.26,0,0,1-1,.67Zm-2-2.43a.49.49,0,0,1,.39.19c.4.51,1.18,1.24,1.61,1.24h0s.13,0,.23-.18c.52-.87.13-3.17-.24-4.42a.49.49,0,0,1,.06-.41c.09-.14,8.58-13.21,11.39-22.37s2-22.78,2-22.92a.88.88,0,0,1,0-.16,26.61,26.61,0,0,0,.64-2.91,4.39,4.39,0,0,1,.5-1.36c.51-1.05.75-1.68-.13-2.39-1.28-1-4.56-.5-5.72-.21a.37.37,0,0,1-.18,0l-4.24-.51c-11.05-2.31-52.8,1.48-53.22,1.51h-.14l-3.29-.62a.9.9,0,0,0-.86.23c-1,1-.94,4.73-.64,6.84a.42.42,0,0,1,0,.27c-.08.2-8.48,20.32-10.89,30.41s-3.52,15.14-3.53,15.19a.48.48,0,0,1-.14.25,5.76,5.76,0,0,0-1.69,2.32c.46.2,2.91-.48,4.9-1.29a.61.61,0,0,1,.3,0c.08,0,8.73,2,25.84,1.72s36.82-.41,37-.41Z" style="fill:#263238"></path><path d="M331.18,269.15c7.73.59,15.68,1.12,21.83,1.34,8.09.3,20.36,2.85,31.24,5.52,1.31-4.08,2.32-7.26,2.32-7.26l7.79-2.34s10.11-1,10.11-2.33.78-23.87-.52-26.73-10.37-5.45-27.76-4.67c-4.41.2-12.45-1.29-12.45-1.29s-11,1.81-14.92,1.81-7.78-.52-10.9,2.86c-.13.14-.29.33-.45.54l-20.16,24.16,10.38,2Z" style="fill:#263238"></path><path d="M384.25,276.51l-.12,0c-13.89-3.4-24.37-5.25-31.14-5.5-5.41-.2-12.76-.65-21.84-1.34a.51.51,0,0,1-.4-.26l-3.38-6.18-10.15-2a.48.48,0,0,1-.38-.32.49.49,0,0,1,.09-.49l20.16-24.16a5.75,5.75,0,0,1,.47-.56c2.89-3.14,6.45-3.09,9.89-3h1.37c3.81,0,14.73-1.79,14.84-1.81h.17c.08,0,8,1.48,12.34,1.29,15.47-.69,26.55,1.26,28.24,5,1,2.31.84,15.59.6,25.38,0,.82,0,1.37,0,1.55,0,.43,0,1.74-10.56,2.83L387,269.15l-2.24,7A.51.51,0,0,1,384.25,276.51Zm-52.76-7.84c8.95.68,16.19,1.13,21.53,1.32,6.77.25,17.17,2.08,30.9,5.42,1.24-3.86,2.18-6.82,2.18-6.82a.48.48,0,0,1,.33-.32l7.78-2.34c4.32-.45,9.15-1.3,9.76-1.93,0-.23,0-.76,0-1.5.37-15,.2-23.37-.51-24.94-1.2-2.64-10.26-5.14-27.28-4.38-4.23.19-11.56-1.12-12.48-1.29-1.12.19-11.17,1.81-14.92,1.81h-1.38c-3.37-.05-6.56-.11-9.15,2.7l-.43.52-19.62,23.52,9.55,1.84a.51.51,0,0,1,.34.25Z" style="fill:#263238"></path><path d="M366.09,191.32c-1,1.65-2.68,5.79-3.62,7.51-1.77,3.24-.69,4.13-2.11,7.3,0,0-5.89,2.74-5.21,3.89s2,4.08,2,4.08-1.68,11.59-.94,12.33,6.62,1,6.62,1l-1.51,5.35s-6.27,4.39-6.06,11.08,12.54,2.51,17.14-.21,8.16-10,8.16-10a6.62,6.62,0,0,1-.38-3.47c.42-1.41,3.65-6.23,3.65-6.23s9.38-7.93,11-13.19-1.64-12.07-7.9-17S368.49,189.35,366.09,191.32Z" style="fill:#fff"></path><path d="M359.94,247.91a6.93,6.93,0,0,1-3.29-.69,3.72,3.72,0,0,1-1.94-3.39c-.2-6.38,5.14-10.66,6.13-11.39l1.29-4.58c-2.05-.1-5.61-.37-6.32-1.08s0-7.24.77-12.61c-.25-.57-1.28-2.92-1.86-3.9a.92.92,0,0,1-.07-.76c.41-1.32,4-3.12,5.33-3.76a9.82,9.82,0,0,0,.78-3.08,10,10,0,0,1,1.27-4.08c.39-.7.9-1.84,1.44-3.05a42.17,42.17,0,0,1,2.2-4.49.52.52,0,0,1,.1-.11c2.52-2.07,14.89-2.76,21.41,2.36s9.71,12.12,8.06,17.52c-1.58,5.19-10.24,12.67-11.09,13.39a44.94,44.94,0,0,0-3.54,6,6.27,6.27,0,0,0,.36,3.16.53.53,0,0,1,0,.39c-.15.31-3.68,7.49-8.35,10.25C369.88,245.65,364.17,247.91,359.94,247.91Zm6.53-56.25a42.51,42.51,0,0,0-2.09,4.29c-.55,1.23-1.07,2.38-1.47,3.12a8.72,8.72,0,0,0-1.15,3.72,11.11,11.11,0,0,1-.94,3.54.51.51,0,0,1-.25.25c-2.59,1.2-4.91,2.72-5,3.24.67,1.11,1.9,4,2,4.08a.63.63,0,0,1,0,.27c-.77,5.32-1.36,11.24-1,12,.38.32,3.55.66,6.24.76a.48.48,0,0,1,.38.2.5.5,0,0,1,.08.43l-1.5,5.35a.63.63,0,0,1-.2.28c-.06,0-6.05,4.32-5.85,10.65a2.74,2.74,0,0,0,1.42,2.54c3.32,1.83,11.38-1,15-3.16,4-2.37,7.28-8.5,7.86-9.64a6.73,6.73,0,0,1-.31-3.58c.43-1.45,3.38-5.87,3.71-6.37l.09-.1c.1-.08,9.29-7.9,10.84-13s-1.58-11.61-7.73-16.44S368.88,189.82,366.47,191.66Zm-6.11,14.47h0Z" style="fill:#263238"></path><path d="M368.43,185.75c-2.47.53-4.34,1.6-4.17,3.62a4.94,4.94,0,0,0,3.81,4.35s12.44,3.07,12.2,4.72-5.65,4-5,5.4a4.13,4.13,0,0,0,2.48,1.84s-2.08,4.14-.31,5,1.95-.36,3.31-1,5.15.95,4.52,5.3-6.19,4.8-6.19,4.8l3.51,4.95s6.63-5,10.83-7.73,8-10.25,5.36-18-16.36-12.51-20.47-13.31A30,30,0,0,0,368.43,185.75Z" style="fill:#263238"></path><path d="M382.59,225.26h-.08a.5.5,0,0,1-.33-.2l-3.51-5a.5.5,0,0,1,0-.5.48.48,0,0,1,.41-.28s5.17-.49,5.73-4.39a4.12,4.12,0,0,0-1.51-4.2,2.61,2.61,0,0,0-2.29-.57,4.18,4.18,0,0,0-.91.63,2.17,2.17,0,0,1-2.84.36c-1.8-.9-.71-3.92-.16-5.18a4.21,4.21,0,0,1-2.25-1.91c-.51-1.09.9-2.15,2.54-3.37,1-.73,2.34-1.74,2.43-2.32-.34-.83-6.4-2.83-11.83-4.16a5.5,5.5,0,0,1-4.19-4.8c-.12-1.42.57-3.29,4.57-4.14a30,30,0,0,1,10.07-.06c4.63.9,18.16,5.82,20.85,13.63,2.89,8.4-1.51,15.94-5.55,18.61s-10.74,7.66-10.81,7.71A.54.54,0,0,1,382.59,225.26ZM380,220.18l2.74,3.87c1.52-1.12,6.88-5.09,10.45-7.44,3.77-2.49,7.87-9.55,5.15-17.44-2.54-7.4-15.61-12.11-20.09-13a29.42,29.42,0,0,0-9.68.05h0c-2.63.56-3.9,1.6-3.77,3.09a4.39,4.39,0,0,0,3.41,3.9c5.89,1.45,12.85,3.55,12.6,5.28-.15,1-1.44,2-2.82,3-.72.54-2.4,1.79-2.23,2.14a3.74,3.74,0,0,0,2.15,1.57.5.5,0,0,1,.33.27.52.52,0,0,1,0,.44c-.6,1.2-1.52,3.85-.52,4.35a1.22,1.22,0,0,0,1.74-.23,5.14,5.14,0,0,1,1.13-.77,3.49,3.49,0,0,1,3.32.67,5.22,5.22,0,0,1,1.9,5.15C385.24,218.69,381.62,219.84,380,220.18Zm-11.53-34.43h0Z" style="fill:#263238"></path><path d="M360.57,217.62a5.88,5.88,0,0,1-2.82-.63.51.51,0,0,1-.17-.69.49.49,0,0,1,.68-.17c.1.05,2.19,1.23,5.49-.23a.51.51,0,0,1,.66.26.5.5,0,0,1-.26.66A8.79,8.79,0,0,1,360.57,217.62Z" style="fill:#263238"></path><path d="M365.74,206.82c-.25.77-.77,1.29-1.16,1.16s-.48-.85-.23-1.62.78-1.28,1.16-1.16S366,206.06,365.74,206.82Z" style="fill:#263238"></path><path d="M369.09,203.24a.5.5,0,0,1-.39-.18,3.18,3.18,0,0,0-4.3-.62.5.5,0,0,1-.69-.14.5.5,0,0,1,.13-.69,4.12,4.12,0,0,1,5.63.81.5.5,0,0,1-.07.71A.51.51,0,0,1,369.09,203.24Z" style="fill:#263238"></path><path d="M356.16,226.43a78.11,78.11,0,0,0,8.28-.28c1.95-.36,8-1.38,8-1.38l-10.35,4.42.68-1.8S357.46,227.67,356.16,226.43Z" style="fill:#263238"></path><path d="M362.1,229.69a.5.5,0,0,1-.47-.68l.42-1.1c-1.6,0-5.09,0-6.24-1.12a.5.5,0,0,1,.36-.86,78.25,78.25,0,0,0,8.18-.28c1.95-.35,8-1.37,8-1.37a.5.5,0,0,1,.28.95l-10.36,4.42A.65.65,0,0,1,362.1,229.69Zm.68-2.8a.48.48,0,0,1,.4.2.5.5,0,0,1,.07.47l-.27.71,5.38-2.3-3.83.67a33.3,33.3,0,0,1-4,.26c.8,0,1.58,0,2.21,0Z" style="fill:#263238"></path><path d="M408.74,302.64l-1.88-2.12c-1.88-2.13-.33-6.72-5.12-10.41a128.28,128.28,0,0,1-11.43-10.69s-11.79-4.05-18.79-5.9-29.49-8.47-45-3.31c0,0-3.32,1.84-3.69,3.31s-3.68,5.53-3.68,5.53-48.66,2.95-57.13,4.06-24.33,5.9-29.86,8.11-21.38,5.16-21.38,5.16S202,293.43,199,294.17s-10,8.47-11.06,9.95a41.41,41.41,0,0,1-4.79,4.42V319.6h21.32a86.47,86.47,0,0,0-.57,10.32s204.82,1.84,205.19,0S408.74,302.64,408.74,302.64Z" style="fill:#fff"></path><path d="M355.75,331.24c-13.9,0-30.41-.05-49.37-.13-50.67-.23-101.95-.69-102.46-.69a.5.5,0,0,1-.5-.5,89.14,89.14,0,0,1,.51-9.82H183.17a.5.5,0,0,1-.5-.5V308.54a.49.49,0,0,1,.19-.39,41.41,41.41,0,0,0,4.7-4.33c.92-1.23,8.12-9.34,11.34-10.14,2.89-.72,10.81,1.81,11.95,2.18,1.5-.28,16-3,21.15-5.11,5.39-2.15,21.26-7,30-8.14,8.11-1.06,53.38-3.82,56.95-4,1-1.23,3.18-4.1,3.45-5.17.41-1.63,3.57-3.43,3.92-3.63,14.79-4.94,35.95.75,43.92,2.89l1.42.38c6.94,1.83,18.72,5.87,18.84,5.91a.63.63,0,0,1,.2.13,127.87,127.87,0,0,0,11.37,10.63c3.14,2.42,3.68,5.21,4.12,7.45a6.43,6.43,0,0,0,1.06,3l1.89,2.13a.47.47,0,0,1,.12.32c0,1,.74,25.51.36,27.39-.12.62-.2,1-32.7,1.18Q367.63,331.23,355.75,331.24Zm-151.33-1.82c68.56.62,197.5,1.42,204.23.14.23-2.67-.2-19.83-.4-26.72l-1.76-2a7.16,7.16,0,0,1-1.31-3.5c-.42-2.18-.9-4.65-3.74-6.84A126.58,126.58,0,0,1,390,279.86c-1.24-.43-12.11-4.13-18.65-5.85l-1.43-.38c-7.89-2.12-28.84-7.75-43.25-2.95-1.13.64-3.13,2.05-3.36,3-.39,1.53-3.44,5.3-3.79,5.72a.47.47,0,0,1-.35.18c-.49,0-48.74,3-57.1,4.05-8.65,1.13-24.39,5.94-29.73,8.08-5.52,2.21-20.83,5.07-21.48,5.19a.53.53,0,0,1-.25,0c-2.42-.81-9.21-2.77-11.51-2.2-2.66.66-9.43,8-10.78,9.77a37.52,37.52,0,0,1-4.69,4.36V319.1h20.82a.5.5,0,0,1,.5.57A81.56,81.56,0,0,0,204.42,329.42Z" style="fill:#263238"></path><path d="M379.26,327.47a.5.5,0,0,1-.5-.5c0-.05,0-4.56-2.38-6.23-.47-.34-1.59-.83-4.27-1.29a.49.49,0,0,1-.41-.57.5.5,0,0,1,.58-.41,12.2,12.2,0,0,1,4.69,1.46c2.75,2,2.79,6.83,2.79,7a.5.5,0,0,1-.5.5Z" style="fill:#263238"></path><path d="M366.45,318.8h0c-1.76-.13-3-.18-3-.18a.49.49,0,0,1-.48-.51.52.52,0,0,1,.51-.49s1.29.05,3.07.18a.5.5,0,0,1,0,1Z" style="fill:#263238"></path><path d="M337.61,327.47a.5.5,0,0,1-.5-.5c0-.05,0-4.56-2.38-6.23-2-1.44-10.06-2-13-2.12a.49.49,0,0,1-.48-.51.51.51,0,0,1,.51-.49c.45,0,10.87.4,13.55,2.31s2.79,6.83,2.79,7a.5.5,0,0,1-.5.5Z" style="fill:#263238"></path><path d="M265.73,327.47a.5.5,0,0,1-.5-.5c0-.05,0-4.56-2.37-6.23-2-1.44-10.06-2-13-2.12a.5.5,0,0,1-.49-.51.54.54,0,0,1,.52-.49c.44,0,10.87.4,13.54,2.31s2.79,6.83,2.79,7a.5.5,0,0,1-.5.5Z" style="fill:#263238"></path><path d="M329.87,327.47a.5.5,0,0,1-.5-.5c0-.05,0-4.6-1.77-6.27-1.46-1.41-7.39-2-9.55-2.08a.5.5,0,0,1-.48-.52.51.51,0,0,1,.52-.48c.84,0,8.2.44,10.2,2.35s2.08,6.8,2.08,7A.5.5,0,0,1,329.87,327.47Z" style="fill:#263238"></path><path d="M382.51,269.78s-26.4-4.08-27.4-4.08-8.65,1.57-11.76,3.19-2.61,2.73-.75,3.73a19.2,19.2,0,0,0,5.11,1.49,42.34,42.34,0,0,0,4.85.62s2.49-.12,4.23-.37a10.08,10.08,0,0,0,3.23-1.12s19.6,8.93,22.09,9.67Z" style="fill:#fff"></path><path d="M382.11,283.41a.32.32,0,0,1-.14,0c-2.38-.71-19.63-8.54-21.93-9.59a10.62,10.62,0,0,1-3.18,1.06c-1.75.24-4.18.37-4.28.37a40.23,40.23,0,0,1-5-.63c-.38-.1-.77-.18-1.19-.26a13.84,13.84,0,0,1-4-1.28c-.76-.4-1.77-1.06-1.76-2s.8-1.69,2.51-2.58c3.2-1.66,11-3.24,12-3.24s24.77,3.67,27.47,4.08a.51.51,0,0,1,.43.51l-.4,13.14a.51.51,0,0,1-.21.39A.5.5,0,0,1,382.11,283.41ZM360,272.74a.41.41,0,0,1,.21.05c.18.08,17.31,7.87,21.4,9.42l.37-12c-10.56-1.64-26.12-4-26.89-4-1,0-8.51,1.56-11.53,3.13-1.78.92-2,1.5-2,1.7s.16.58,1.23,1.15a12.75,12.75,0,0,0,3.75,1.18c.43.09.84.17,1.24.27a42.09,42.09,0,0,0,4.76.6s2.43-.12,4.13-.36a9.71,9.71,0,0,0,3-1.06A.47.47,0,0,1,360,272.74Z" style="fill:#263238"></path><path d="M390.07,247.69l-3.5,21.06-4.06,1-.4,13.13s12.54,2.79,14.33,3,7.16,1,7.36-4.78,1.2-32.24,1.2-32.24" style="fill:#263238"></path><path d="M398.5,286.55a15.94,15.94,0,0,1-1.95-.14l-.17,0c-1.79-.2-13.87-2.88-14.38-3a.5.5,0,0,1-.39-.5l.4-13.14a.5.5,0,0,1,.37-.47l3.75-1,3.45-20.73a.48.48,0,0,1,.57-.41.49.49,0,0,1,.41.57l-3.49,21.06a.52.52,0,0,1-.37.4l-3.7.94-.38,12.34c2.16.48,12.31,2.72,13.87,2.89l.18,0c1.21.14,3.75.43,5.28-.89a4.53,4.53,0,0,0,1.35-3.43c.2-5.77,1.2-32.24,1.2-32.24l1,0s-1,26.47-1.2,32.24a5.45,5.45,0,0,1-1.7,4.15A6.19,6.19,0,0,1,398.5,286.55Z" style="fill:#263238"></path><path d="M353.24,265.77s3.34.6,4.35.2,1.82.1,1.72,1.11-2.23,1.52-2.23,1.52Z" style="fill:#fff"></path><path d="M357.08,269.1a.45.45,0,0,1-.29-.1l-3.85-2.83a.51.51,0,0,1-.16-.6.5.5,0,0,1,.55-.29,12.64,12.64,0,0,0,4.07.23,1.84,1.84,0,0,1,1.82.12,1.61,1.61,0,0,1,.59,1.5c-.13,1.3-2.2,1.86-2.61,1.95Zm-1.95-2.56,2.06,1.51c.71-.21,1.58-.63,1.62-1a.66.66,0,0,0-.19-.6.88.88,0,0,0-.84,0A6.94,6.94,0,0,1,355.13,266.54Z" style="fill:#263238"></path><path d="M343,265.49s7.42-1,8.8-.44,9.41,4.7,9.55,5.4-.83,1.1-.83,1.1-.14,1-1.8,1.8l-1.66.83s-1.79.76-2.49,1.11-1.53,0-3.32-.55-4.43-1.8-4.85-1.8a27.83,27.83,0,0,1-5.81-1.25,9.89,9.89,0,0,0-3.45-.67s-8.59,1.5-11.36,2.47-9.41-1.11-11.34-3.46-.14-9.13,4.43-10.38,17,3.38,17.93,3.66S343,265.49,343,265.49Z" style="fill:#fff"></path><path d="M354,275.93a7.94,7.94,0,0,1-2.17-.51l-.67-.21c-.94-.28-2.09-.76-3-1.13a14.77,14.77,0,0,0-1.7-.64h0a28.11,28.11,0,0,1-6-1.29,8.85,8.85,0,0,0-3.26-.63S328.68,273,326,274c-2.91,1-9.81-1.07-11.9-3.61-1-1.2-1.16-3.44-.44-5.71a7.87,7.87,0,0,1,5.12-5.47c4.16-1.13,14.13,2.27,17.41,3.39l.8.27c.91.25,5.33,1.86,6.12,2.14,1.5-.19,7.53-.94,8.92-.39.43.17,9.62,4.59,9.86,5.77a1.52,1.52,0,0,1-.91,1.55,3.72,3.72,0,0,1-2,1.9l-1.66.83s-1.81.77-2.49,1.11A1.92,1.92,0,0,1,354,275.93Zm-16.78-5.41a10.13,10.13,0,0,1,3.62.71,27.55,27.55,0,0,0,5.62,1.21,7.79,7.79,0,0,1,2.05.71c.92.37,2,.83,2.94,1.11l.68.21c1.32.41,1.86.57,2.28.37.7-.35,2.44-1.09,2.51-1.12l1.63-.82c1.37-.68,1.53-1.42,1.53-1.43a.58.58,0,0,1,.3-.38c.14-.06.5-.28.54-.48-.79-.82-7.7-4.48-9.25-5.1-.92-.36-5.72.09-8.54.47a.65.65,0,0,1-.24,0c-.05,0-5.22-1.9-6.16-2.17l-.85-.28c-8.6-2.94-14.26-4.08-16.82-3.38a6.94,6.94,0,0,0-4.44,4.81c-.61,1.93-.5,3.84.26,4.77,1.82,2.21,8.28,4.19,10.8,3.31,2.77-1,11.08-2.44,11.43-2.5Z" style="fill:#263238"></path><path d="M360.55,272.05a.52.52,0,0,1-.21,0l-8.92-4.07a.49.49,0,0,1-.25-.66.5.5,0,0,1,.66-.25l8.92,4.07a.49.49,0,0,1,.25.66A.49.49,0,0,1,360.55,272.05Z" style="fill:#263238"></path><path d="M358.75,273.85a.52.52,0,0,1-.21,0l-8.74-3.95a.5.5,0,1,1,.41-.91L359,272.9a.49.49,0,0,1,.25.66A.49.49,0,0,1,358.75,273.85Z" style="fill:#263238"></path><path d="M356,275.06a.52.52,0,0,1-.21,0l-7.28-3.34a.49.49,0,0,1-.24-.66.5.5,0,0,1,.66-.25l7.28,3.34a.5.5,0,0,1-.21.95Z" style="fill:#263238"></path><path d="M383.68,299.83a.52.52,0,0,1-.36-.16,45.83,45.83,0,0,0-4.43-3.82.5.5,0,0,1,.61-.79A43.72,43.72,0,0,1,384,299a.5.5,0,0,1,0,.71A.49.49,0,0,1,383.68,299.83Z" style="fill:#263238"></path><path d="M374.25,292.42a.47.47,0,0,1-.28-.09,110.93,110.93,0,0,0-14.46-8c-16.24-7.58-34.53-4.42-34.72-4.39a.5.5,0,0,1-.58-.4.5.5,0,0,1,.41-.58c.18,0,18.77-3.26,35.31,4.46a113,113,0,0,1,14.59,8.11.49.49,0,0,1,.14.69A.48.48,0,0,1,374.25,292.42Z" style="fill:#263238"></path><path d="M393.63,318.25a.5.5,0,0,1-.5-.5.5.5,0,0,1,.5-.5s.85-3-13.95-14.95-40.1-18.64-40.36-18.71A.5.5,0,0,1,339,283a.49.49,0,0,1,.61-.36c.25.07,25.7,6.81,40.73,18.9,14.37,11.56,14.51,15.23,14.21,16.08A.92.92,0,0,1,393.63,318.25Z" style="fill:#263238"></path><rect x="112.21" y="336.78" width="7.77" height="78.36" style="fill:#fff"></rect><path d="M120,415.64h-7.77a.5.5,0,0,1-.5-.5V336.78a.5.5,0,0,1,.5-.5H120a.5.5,0,0,1,.5.5v78.36A.5.5,0,0,1,120,415.64Zm-7.27-1h6.77V337.28h-6.77Z" style="fill:#263238"></path><rect x="114.75" y="336.78" width="7.77" height="78.36" style="fill:#fff"></rect><path d="M122.52,415.64h-7.77a.5.5,0,0,1-.5-.5V336.78a.5.5,0,0,1,.5-.5h7.77a.5.5,0,0,1,.5.5v78.36A.5.5,0,0,1,122.52,415.64Zm-7.27-1H122V337.28h-6.77Z" style="fill:#263238"></path><rect x="114.8" y="387.29" width="113.33" height="8.42" style="fill:#fff"></rect><path d="M228.13,396.21H114.8a.5.5,0,0,1-.5-.5v-8.42a.51.51,0,0,1,.5-.5H228.13a.5.5,0,0,1,.5.5v8.42A.5.5,0,0,1,228.13,396.21Zm-112.83-1H227.63v-7.42H115.3Z" style="fill:#263238"></path><circle cx="112.72" cy="426.15" r="12.95" transform="translate(-268.32 204.52) rotate(-45)" style="fill:#263238"></circle><path d="M112.72,439.6a13.45,13.45,0,1,1,13.45-13.45A13.46,13.46,0,0,1,112.72,439.6Zm0-25.9a12.45,12.45,0,1,0,12.45,12.45A12.46,12.46,0,0,0,112.72,413.7Z" style="fill:#263238"></path><path d="M122.71,420.37V409.43H109.93v8.36a9.8,9.8,0,1,0,12.78,2.58Z" style="fill:#fff"></path><path d="M114.89,436.49a10.27,10.27,0,0,1-5.46-19v-8.08a.5.5,0,0,1,.5-.5h12.78a.5.5,0,0,1,.5.5V420.2a10.19,10.19,0,0,1,2,6A10.3,10.3,0,0,1,114.89,436.49Zm-4.46-26.56v7.86a.5.5,0,0,1-.25.43,9.28,9.28,0,1,0,14,8,9.13,9.13,0,0,0-1.86-5.54.57.57,0,0,1-.1-.3V409.93Z" style="fill:#263238"></path><rect x="226.84" y="336.78" width="7.77" height="78.36" style="fill:#fff"></rect><path d="M234.61,415.64h-7.77a.5.5,0,0,1-.5-.5V336.78a.5.5,0,0,1,.5-.5h7.77a.5.5,0,0,1,.5.5v78.36A.5.5,0,0,1,234.61,415.64Zm-7.27-1h6.77V337.28h-6.77Z" style="fill:#263238"></path><rect x="229.38" y="336.78" width="7.77" height="78.36" style="fill:#fff"></rect><path d="M237.15,415.64h-7.77a.5.5,0,0,1-.5-.5V336.78a.5.5,0,0,1,.5-.5h7.77a.5.5,0,0,1,.5.5v78.36A.5.5,0,0,1,237.15,415.64Zm-7.27-1h6.77V337.28h-6.77Z" style="fill:#263238"></path><circle cx="227.85" cy="426.15" r="12.95" transform="translate(-234.6 285.93) rotate(-45)" style="fill:#263238"></circle><path d="M227.85,439.6a13.45,13.45,0,1,1,13.45-13.45A13.47,13.47,0,0,1,227.85,439.6Zm0-25.9a12.45,12.45,0,1,0,12.45,12.45A12.47,12.47,0,0,0,227.85,413.7Z" style="fill:#263238"></path><path d="M237.84,420.37V409.43H225.05v8.36a9.79,9.79,0,1,0,12.79,2.58Z" style="fill:#fff"></path><path d="M230,436.49a10.27,10.27,0,0,1-5.46-19v-8.08a.5.5,0,0,1,.5-.5h12.79a.5.5,0,0,1,.5.5V420.2a10.18,10.18,0,0,1,1.95,6A10.29,10.29,0,0,1,230,436.49Zm-4.46-26.56v7.86a.5.5,0,0,1-.24.43,9.28,9.28,0,1,0,14,8,9.18,9.18,0,0,0-1.85-5.54.57.57,0,0,1-.1-.3V409.93Z" style="fill:#263238"></path><rect x="309.23" y="336.78" width="7.77" height="78.36" style="fill:#fff"></rect><path d="M317,415.64h-7.78a.5.5,0,0,1-.5-.5V336.78a.5.5,0,0,1,.5-.5H317a.5.5,0,0,1,.5.5v78.36A.5.5,0,0,1,317,415.64Zm-7.28-1h6.78V337.28h-6.78Z" style="fill:#263238"></path><rect x="311.77" y="336.78" width="7.77" height="78.36" style="fill:#fff"></rect><path d="M319.54,415.64h-7.77a.5.5,0,0,1-.5-.5V336.78a.5.5,0,0,1,.5-.5h7.77a.5.5,0,0,1,.5.5v78.36A.5.5,0,0,1,319.54,415.64Zm-7.27-1H319V337.28h-6.77Z" style="fill:#263238"></path><rect x="311.82" y="387.29" width="113.33" height="8.42" style="fill:#fff"></rect><path d="M425.15,396.21H311.82a.5.5,0,0,1-.5-.5v-8.42a.5.5,0,0,1,.5-.5H425.15a.51.51,0,0,1,.5.5v8.42A.5.5,0,0,1,425.15,396.21Zm-112.83-1H424.65v-7.42H312.32Z" style="fill:#263238"></path><circle cx="309.73" cy="426.15" r="12.95" transform="translate(-90.08 83.09) rotate(-13.36)" style="fill:#263238"></circle><path d="M309.73,439.6a13.45,13.45,0,1,1,13.46-13.45A13.47,13.47,0,0,1,309.73,439.6Zm0-25.9a12.45,12.45,0,1,0,12.46,12.45A12.46,12.46,0,0,0,309.73,413.7Z" style="fill:#263238"></path><path d="M319.73,420.37V409.43H306.94v8.36a9.79,9.79,0,1,0,12.79,2.58Z" style="fill:#fff"></path><path d="M311.9,436.49a10.27,10.27,0,0,1-5.46-19v-8.08a.5.5,0,0,1,.5-.5h12.79a.5.5,0,0,1,.5.5V420.2a10.18,10.18,0,0,1,1.95,6A10.29,10.29,0,0,1,311.9,436.49Zm-4.46-26.56v7.86a.5.5,0,0,1-.24.43,9.28,9.28,0,1,0,14,8,9.18,9.18,0,0,0-1.85-5.54.49.49,0,0,1-.1-.3V409.93Z" style="fill:#263238"></path><rect x="423.85" y="336.78" width="7.77" height="78.36" style="fill:#fff"></rect><path d="M431.62,415.64h-7.77a.5.5,0,0,1-.5-.5V336.78a.5.5,0,0,1,.5-.5h7.77a.5.5,0,0,1,.5.5v78.36A.5.5,0,0,1,431.62,415.64Zm-7.27-1h6.77V337.28h-6.77Z" style="fill:#263238"></path><rect x="426.39" y="336.78" width="7.77" height="78.36" style="fill:#fff"></rect><path d="M434.16,415.64h-7.77a.5.5,0,0,1-.5-.5V336.78a.5.5,0,0,1,.5-.5h7.77a.5.5,0,0,1,.5.5v78.36A.5.5,0,0,1,434.16,415.64Zm-7.27-1h6.77V337.28h-6.77Z" style="fill:#263238"></path><circle cx="424.86" cy="426.15" r="12.95" transform="translate(-176.89 425.24) rotate(-45)" style="fill:#263238"></circle><path d="M424.86,439.6a13.45,13.45,0,1,1,13.45-13.45A13.46,13.46,0,0,1,424.86,439.6Zm0-25.9a12.45,12.45,0,1,0,12.45,12.45A12.46,12.46,0,0,0,424.86,413.7Z" style="fill:#263238"></path><path d="M434.85,420.37V409.43H422.07v8.36a9.8,9.8,0,1,0,12.78,2.58Z" style="fill:#fff"></path><path d="M427,436.49a10.27,10.27,0,0,1-5.46-19v-8.08a.5.5,0,0,1,.5-.5h12.78a.5.5,0,0,1,.5.5V420.2a10.19,10.19,0,0,1,2,6A10.29,10.29,0,0,1,427,436.49Zm-4.46-26.56v7.86a.5.5,0,0,1-.25.43,9.28,9.28,0,1,0,14,8,9.13,9.13,0,0,0-1.86-5.54.57.57,0,0,1-.1-.3V409.93Z" style="fill:#263238"></path><rect x="182.64" y="328.54" width="276.16" height="14.01" style="fill:#fff"></rect><path d="M458.79,343.06H182.64a.5.5,0,0,1-.5-.5v-14a.5.5,0,0,1,.5-.5H458.79a.5.5,0,0,1,.5.5v14A.5.5,0,0,1,458.79,343.06Zm-275.65-1H458.29V329H183.14Z" style="fill:#263238"></path><rect x="90.31" y="328.54" width="118.71" height="14.01" style="fill:#fff"></rect><path d="M209,343.06H90.31a.5.5,0,0,1-.5-.5v-14a.5.5,0,0,1,.5-.5H209a.51.51,0,0,1,.5.5v14A.51.51,0,0,1,209,343.06Zm-118.21-1H208.52V329H90.81Z" style="fill:#263238"></path><rect x="266.72" y="266.72" width="3.3" height="67.6" style="fill:#fff"></rect><path d="M270,334.81h-3.3a.5.5,0,0,1-.5-.5V266.72a.5.5,0,0,1,.5-.5H270a.5.5,0,0,1,.5.5v67.59A.5.5,0,0,1,270,334.81Zm-2.8-1h2.3V267.22h-2.3Z" style="fill:#263238"></path><rect x="301.34" y="266.72" width="3.3" height="67.6" style="fill:#fff"></rect><path d="M304.64,334.81h-3.3a.5.5,0,0,1-.5-.5V266.72a.5.5,0,0,1,.5-.5h3.3a.5.5,0,0,1,.5.5v67.59A.5.5,0,0,1,304.64,334.81Zm-2.8-1h2.3V267.22h-2.3Z" style="fill:#263238"></path><rect x="335.97" y="266.72" width="3.3" height="67.6" style="fill:#fff"></rect><path d="M339.26,334.81H336a.5.5,0,0,1-.5-.5V266.72a.5.5,0,0,1,.5-.5h3.29a.5.5,0,0,1,.5.5v67.59A.5.5,0,0,1,339.26,334.81Zm-2.79-1h2.29V267.22h-2.29Z" style="fill:#263238"></path><rect x="370.59" y="266.72" width="3.3" height="67.6" style="fill:#fff"></rect><path d="M373.89,334.81h-3.3a.5.5,0,0,1-.5-.5V266.72a.5.5,0,0,1,.5-.5h3.3a.5.5,0,0,1,.5.5v67.59A.5.5,0,0,1,373.89,334.81Zm-2.8-1h2.3V267.22h-2.3Z" style="fill:#263238"></path><rect x="405.21" y="266.72" width="3.3" height="67.6" style="fill:#fff"></rect><path d="M408.51,334.81h-3.3a.5.5,0,0,1-.5-.5V266.72a.5.5,0,0,1,.5-.5h3.3a.5.5,0,0,1,.5.5v67.59A.5.5,0,0,1,408.51,334.81Zm-2.8-1H408V267.22h-2.3Z" style="fill:#263238"></path><rect x="256" y="260.12" width="176.41" height="6.59" style="fill:#fff"></rect><path d="M432.41,267.22H256a.51.51,0,0,1-.5-.5v-6.6a.51.51,0,0,1,.5-.5H432.41a.5.5,0,0,1,.5.5v6.6A.5.5,0,0,1,432.41,267.22Zm-175.91-1H431.91v-5.6H256.5Z" style="fill:#263238"></path><path d="M220.26,267.41a232.31,232.31,0,0,0-126.36-.08,8.29,8.29,0,0,0-6,8v67.24h15.66v-4.08A7.47,7.47,0,0,1,111,331h86.46a7.47,7.47,0,0,1,7.47,7.46v4.08H226.3V275.39A8.3,8.3,0,0,0,220.26,267.41ZM98.52,291.63v-11a6.64,6.64,0,0,1,5.12-6.31c4-1.07,8.09-2,12.17-2.81C110.28,282.29,103.71,288.32,98.52,291.63Zm80.84-13.37c-20.61-4.95-51.11,0-51.11,0V269.4a210.11,210.11,0,0,1,51.11-.77ZM215.63,293c-12.15-6.6-18.37-15-21.52-22.28,5.51,1,11,2.17,16.42,3.61a6.64,6.64,0,0,1,5.1,6.31Z" style="fill:#fff"></path><path d="M226.3,343.06H204.92a.5.5,0,0,1-.5-.5v-4.08a7,7,0,0,0-7-7H111a7,7,0,0,0-7,7v4.08a.5.5,0,0,1-.5.5H87.86a.5.5,0,0,1-.5-.5V275.32a8.84,8.84,0,0,1,6.41-8.48,232.81,232.81,0,0,1,126.63.09h0a8.81,8.81,0,0,1,6.4,8.46v67.17A.51.51,0,0,1,226.3,343.06Zm-20.88-1H225.8V275.39a7.82,7.82,0,0,0-5.67-7.5h0A231.72,231.72,0,0,0,94,267.81a7.83,7.83,0,0,0-5.68,7.51v66.74H103v-3.58a8,8,0,0,1,8-8h86.46a8,8,0,0,1,8,8Zm10.21-48.53a.46.46,0,0,1-.23-.06C205,287.83,197.71,280.25,193.65,271a.5.5,0,0,1,.07-.51.52.52,0,0,1,.48-.19c5.74,1,11.28,2.26,16.46,3.63a7.15,7.15,0,0,1,5.47,6.79V293a.51.51,0,0,1-.24.43A.59.59,0,0,1,215.63,293.53ZM195,271.41c3.94,8.49,10.72,15.47,20.18,20.77V280.67a6.15,6.15,0,0,0-4.73-5.82C205.53,273.55,200.34,272.4,195,271.41ZM98.52,292.13a.53.53,0,0,1-.24-.06.51.51,0,0,1-.26-.44v-11a7.17,7.17,0,0,1,5.49-6.81c3.86-1,8-2,12.2-2.81a.5.5,0,0,1,.55.72C110.47,283,103.57,289,98.79,292.05A.43.43,0,0,1,98.52,292.13Zm16.36-19.94c-3.85.79-7.59,1.66-11.12,2.59A6.16,6.16,0,0,0,99,280.62v10.09C103.51,287.67,109.61,282.1,114.88,272.19Zm13.37,6.57a.49.49,0,0,1-.32-.12.53.53,0,0,1-.18-.38V269.4a.5.5,0,0,1,.43-.49,210.67,210.67,0,0,1,51.24-.78.5.5,0,0,1,.44.5v9.63a.49.49,0,0,1-.19.39.46.46,0,0,1-.42.09c-20.28-4.86-50.61,0-50.92,0Zm.5-8.92v7.84c4.28-.64,31.23-4.36,50.11-.05v-8.55A209.5,209.5,0,0,0,128.75,269.84Z" style="fill:#263238"></path><path d="M214.47,267.41a232.31,232.31,0,0,0-126.36-.08,8.28,8.28,0,0,0-6,8v67.24H97.73v-4.08A7.46,7.46,0,0,1,105.2,331h86.46a7.46,7.46,0,0,1,7.46,7.46v4.08H220.5V275.39A8.29,8.29,0,0,0,214.47,267.41ZM92.73,291.63v-11a6.64,6.64,0,0,1,5.11-6.31c4-1.07,8.1-2,12.18-2.81C104.48,282.29,97.92,288.32,92.73,291.63Zm80.84-13.37c-20.61-4.95-51.11,0-51.11,0V269.4a210.11,210.11,0,0,1,51.11-.77ZM209.84,293c-12.15-6.6-18.37-15-21.53-22.28,5.52,1,11,2.17,16.43,3.61a6.64,6.64,0,0,1,5.1,6.31Z" style="fill:#fff"></path><path d="M220.5,343.06H199.12a.51.51,0,0,1-.5-.5v-4.08a7,7,0,0,0-7-7H105.2a7,7,0,0,0-7,7v4.08a.5.5,0,0,1-.5.5H82.07a.53.53,0,0,1-.36-.15.5.5,0,0,1-.14-.35V275.32a8.84,8.84,0,0,1,6.4-8.48,232.84,232.84,0,0,1,126.64.09h0a8.83,8.83,0,0,1,6.39,8.46v67.17A.5.5,0,0,1,220.5,343.06Zm-20.88-1H220V275.39a7.83,7.83,0,0,0-5.67-7.5h0a231.69,231.69,0,0,0-126.08-.08,7.82,7.82,0,0,0-5.68,7.51v66.74H97.23v-3.58a8,8,0,0,1,8-8h86.46a8,8,0,0,1,8,8Zm10.22-48.53a.53.53,0,0,1-.24-.06c-10.37-5.64-17.69-13.21-21.74-22.52a.49.49,0,0,1,.06-.51.53.53,0,0,1,.48-.19c5.74,1,11.28,2.26,16.46,3.63a7.15,7.15,0,0,1,5.48,6.79V293a.51.51,0,0,1-.24.43A.59.59,0,0,1,209.84,293.53Zm-20.68-22.12c3.94,8.49,10.72,15.47,20.18,20.77V280.67a6.16,6.16,0,0,0-4.73-5.82C199.73,273.55,194.54,272.4,189.16,271.41ZM92.73,292.13a.53.53,0,0,1-.24-.06.51.51,0,0,1-.26-.44v-11a7.17,7.17,0,0,1,5.49-6.81c3.85-1,8-2,12.2-2.81a.5.5,0,0,1,.54.72C104.68,283,97.77,289,93,292.05A.45.45,0,0,1,92.73,292.13Zm16.36-19.94c-3.86.79-7.59,1.66-11.12,2.59a6.16,6.16,0,0,0-4.74,5.84v10.09C97.72,287.68,103.82,282.1,109.09,272.19Zm13.37,6.57a.47.47,0,0,1-.32-.12.49.49,0,0,1-.18-.38V269.4a.49.49,0,0,1,.43-.49,211.09,211.09,0,0,1,51.23-.78.5.5,0,0,1,.45.5v9.63a.49.49,0,0,1-.19.39.48.48,0,0,1-.43.09c-20.27-4.86-50.61,0-50.91,0Zm.5-8.92v7.84c4.28-.64,31.23-4.36,50.11-.05v-8.55A209.49,209.49,0,0,0,123,269.84Z" style="fill:#263238"></path><rect x="99.38" y="297.22" width="96.45" height="24.73" style="fill:#92E3A9"></rect><path d="M195.83,322.45H99.38a.5.5,0,0,1-.5-.5V297.22a.5.5,0,0,1,.5-.5h96.45a.5.5,0,0,1,.5.5V322A.51.51,0,0,1,195.83,322.45Zm-96-1h95.45V297.72H99.88Z" style="fill:#263238"></path><rect x="455.3" y="326.1" width="11.8" height="16.45" style="fill:#92E3A9"></rect><path d="M467.1,343.06H455.3a.5.5,0,0,1-.5-.5V326.1a.5.5,0,0,1,.5-.5h11.8a.51.51,0,0,1,.5.5v16.46A.51.51,0,0,1,467.1,343.06Zm-11.3-1h10.8V326.6H455.8Z" style="fill:#263238"></path><rect x="217.65" y="326.1" width="11.8" height="16.45" style="fill:#92E3A9"></rect><path d="M229.45,343.06h-11.8a.51.51,0,0,1-.5-.5V326.1a.51.51,0,0,1,.5-.5h11.8a.5.5,0,0,1,.5.5v16.46A.5.5,0,0,1,229.45,343.06Zm-11.3-1H229V326.6h-10.8Z" style="fill:#263238"></path></g></svg>